<?xml version="1.0" standalone="no"?>
<!DOCTYPE svg PUBLIC "-//W3C//DTD SVG 1.1//EN" "http://www.w3.org/Graphics/SVG/1.1/DTD/svg11.dtd" >
<svg>
<metadata>
Created by FontForge 20090914 at Fri Nov 20 15:09:13 2015
 By www-data
Copyright 2008 Jonas Schudel Dalton Maag Ltd. All rights reserved. This font may not be altered in any way without prior permission of Dalton Maag Ltd. DaMa is a trademark of Dalton Maag Ltd.
</metadata>
<defs>
<font id="EffraMedium-Regular" horiz-adv-x="360" >
  <font-face 
    font-family="Effra Medium"
    font-weight="400"
    font-stretch="normal"
    units-per-em="1000"
    panose-1="2 0 6 6 8 0 0 2 0 4"
    ascent="800"
    descent="-200"
    x-height="469"
    cap-height="667"
    bbox="-157 -233.002 1255 931"
    underline-thickness="20"
    underline-position="-113"
    unicode-range="U+0020-U+FB04"
  />
<missing-glyph horiz-adv-x="560" 
d="M50 700h460v-700h-460v700zM445 54v592h-330v-592h330z" />
    <glyph glyph-name="ff" unicode="ff" horiz-adv-x="651" 
d="M93 373h-80.002v96h80v25c0 39.333 6 71.333 18 96s26.833 44 44.5 58s36.167 23.667 55.5 29s36.666 8 51.999 8c21.333 0 43.5 -3.33301 66.5 -10s46.167 -19.667 69.5 -39l-55 -78c-9.33301 7.33301 -19.666 13.333 -30.999 18s-22.333 7 -33 7
c-22.667 0 -40 -7.33301 -52 -22s-18 -35 -18 -61v-31h194v29c0 34 5.33301 62.833 16 86.5s24.334 43 41.001 58s35.334 25.833 56.001 32.5s41 10 61 10c21.333 0 45 -3 71 -9s51 -19.333 75 -40l-55 -78c-10.667 7.33301 -22.167 13.333 -34.5 18s-24.833 7 -37.5 7
c-23.333 0 -41.833 -7.5 -55.5 -22.5s-20.5 -36.5 -20.5 -64.5v-27h121v-96h-120v-373h-118v373h-193v-373h-118v373z" />
    <glyph glyph-name="fi" unicode="fi" horiz-adv-x="565" 
d="M93 373h-79.999v96h80v5c0 40.667 6.5 74.5 19.5 101.5s30.333 48.667 52 65s46.667 27.833 75 34.5s58.166 10 89.499 10c12 0 25.5 -1 40.5 -3s30.5 -5 46.5 -9s32.167 -9.16699 48.5 -15.5s31.5 -13.833 45.5 -22.5l-49 -89c-15.333 9.33301 -35.333 18 -60 26
s-49 12 -73 12c-41.333 0 -71.333 -7 -90 -21s-28 -37 -28 -69v-25h292v-469h-118v373h-173v-373h-118v373z" />
    <glyph glyph-name="fl" unicode="fl" horiz-adv-x="570" 
d="M93 373l-79.999 0.000976562v96h80v14c0 38.667 5.83301 70.834 17.5 96.501s27.667 46.334 48 62.001s44 26.834 71 33.501s55.5 10 85.5 10c24 0 47 -2 69 -6s41.667 -8.83301 59 -14.5s32 -11.334 44 -17.001s20.333 -9.83398 25 -12.501v-635h-118v572
c-8.66699 3.33301 -20.834 6.16602 -36.501 8.49902s-30.5 3.5 -44.5 3.5c-38.667 0 -65.5 -7.33301 -80.5 -22s-22.5 -40.334 -22.5 -77.001v-16h121v-96h-120v-373h-118v373z" />
    <glyph glyph-name="ffi" unicode="ffi" horiz-adv-x="876" 
d="M93 373l-80 -0.000976562v96h80v25c0 39.333 6 71.333 18 96s26.833 44 44.5 58s36.167 23.667 55.5 29s36.666 8 51.999 8c21.333 0 43.5 -3.33301 66.5 -10s46.167 -19.667 69.5 -39l-55 -78c-9.33301 7.33301 -19.666 13.333 -30.999 18s-22.333 7 -33 7
c-22.667 0 -40 -7.33301 -52 -22s-18 -35 -18 -61v-31h194v5c0 40.667 6.33301 74.5 19 101.5s29.667 48.667 51 65s45.833 27.833 73.5 34.5s56.167 10 85.5 10c28 0 59.167 -4 93.5 -12s65.833 -20.667 94.5 -38l-49 -89c-15.333 9.33301 -35.333 18 -60 26s-49 12 -73 12
c-41.333 0 -71.333 -7.66699 -90 -23s-28 -42.666 -28 -81.999v-10h292v-469h-118v373h-173v-373h-118v373h-193v-373h-118v373z" />
    <glyph glyph-name="ffl" unicode="ffl" horiz-adv-x="881" 
d="M93 373l-79.999 0.000976562v96h80v25c0 39.333 6 71.333 18 96s26.833 44 44.5 58s36.167 23.667 55.5 29s36.666 8 51.999 8c21.333 0 43.5 -3.33301 66.5 -10s46.167 -19.667 69.5 -39l-55 -78c-9.33301 7.33301 -19.666 13.333 -30.999 18s-22.333 7 -33 7
c-22.667 0 -40 -7.33301 -52 -22s-18 -35 -18 -61v-31h194v14c0 38.667 5.83301 70.834 17.5 96.501s27.667 46.334 48 62.001s44 26.834 71 33.501s55.5 10 85.5 10c24 0 47 -2 69 -6s41.667 -8.83301 59 -14.5s32 -11.334 44 -17.001s20.333 -9.83398 25 -12.501v-635
h-118v572c-8.66699 3.33301 -20.834 6.16602 -36.501 8.49902s-30.5 3.5 -44.5 3.5c-38.667 0 -65.5 -7.33301 -80.5 -22s-22.5 -40.334 -22.5 -77.001v-16h121v-96h-120v-373h-118v373h-193v-373h-118v373z" />
    <glyph glyph-name=".notdef" horiz-adv-x="560" 
d="M50 700h460v-700h-460v700zM445 54v592h-330v-592h330z" />
    <glyph glyph-name="space" unicode=" " horiz-adv-x="181" 
 />
    <glyph glyph-name="exclam" unicode="!" horiz-adv-x="279" 
d="M74 667h131l-2 -458h-127zM68 138h143v-138h-143v138z" />
    <glyph glyph-name="quotedbl" unicode="&#x22;" horiz-adv-x="388" 
d="M53 667h112v-232h-112v232zM223 667h112v-232h-112v232z" />
    <glyph glyph-name="numbersign" unicode="#" horiz-adv-x="745" 
d="M161 151h-93v93h118l38 142h-95v93h120l40 150h106l-40 -150h123l40 150h106l-40 -150h93v-93h-118l-38 -142h95v-93h-120l-40 -151h-106l40 151h-123l-40 -151h-106zM415 244l38 142h-123l-38 -142h123z" />
    <glyph glyph-name="dollar" unicode="$" horiz-adv-x="545" 
d="M97 181l25 -25.9961c9.33301 -9.33301 20 -18.333 32 -27s25 -16.334 39 -23.001s29.667 -11.334 47 -14.001v184c-3.33301 1.33301 -6.16602 2 -8.49902 2s-5.16602 0.666992 -8.49902 2c-32 8.66699 -59.167 19.334 -81.5 32.001s-40.5 26.667 -54.5 42
s-24.167 32.166 -30.5 50.499s-9.5 37.833 -9.5 58.5c0 22 3.83301 43 11.5 63s19.5 37.833 35.5 53.5s36.167 28.667 60.5 39s52.833 16.833 85.5 19.5v92h75v-92c28 -3.33301 52 -9 72 -17s36.833 -16.5 50.5 -25.5s24.5 -17.833 32.5 -26.5s14 -15 18 -19l-83 -75
c-5.33301 6 -15.333 15.5 -30 28.5s-34.667 22.833 -60 29.5v-164c24.667 -6 48.667 -13.833 72 -23.5s43.666 -22.334 60.999 -38.001s31.333 -34.667 42 -57s16 -48.5 16 -78.5c0 -24.667 -4.66699 -47.5 -14 -68.5s-22.5 -39.333 -39.5 -55s-37.167 -28.667 -60.5 -39
s-49 -17.5 -77 -21.5v-93h-75v91c-28.667 2.66699 -54.834 8.16699 -78.501 16.5s-45 18.166 -64 29.499s-35.5 23.333 -49.5 36s-25.667 25 -35 37zM315 93.0039c26.667 4.66699 46 13.666 58 26.999s18 31.333 18 54c0 17.333 -5 32.333 -15 45s-30.333 24.334 -61 35.001
v-161zM240 536.003c-29.333 -4 -50 -12.835 -62 -26.502s-18 -29.5 -18 -47.5c0 -19.333 5.66699 -34.666 17 -45.999s32.333 -21.666 63 -30.999v151z" />
    <glyph glyph-name="percent" unicode="%" horiz-adv-x="925" 
d="M609 630h107l-406 -630h-107zM210 285c-46 0 -84 15.167 -114 45.5s-45 75.5 -45 135.5s15 105.167 45 135.5s68 45.5 114 45.5s84 -15.167 114 -45.5s45 -75.5 45 -135.5s-15 -105.167 -45 -135.5s-68 -45.5 -114 -45.5zM210 364c7.33301 0 14.666 1.66699 21.999 5
s13.833 9 19.5 17s10.334 18.5 14.001 31.5s5.5 29.167 5.5 48.5s-1.83301 35.5 -5.5 48.5s-8.33398 23.5 -14.001 31.5s-12.167 13.667 -19.5 17s-14.666 5 -21.999 5s-14.666 -1.66699 -21.999 -5s-13.833 -9 -19.5 -17s-10.334 -18.5 -14.001 -31.5
s-5.5 -29.167 -5.5 -48.5s1.83301 -35.5 5.5 -48.5s8.33398 -23.5 14.001 -31.5s12.167 -13.667 19.5 -17s14.666 -5 21.999 -5zM715 -9c-46 0 -84 15.167 -114 45.5s-45 75.5 -45 135.5s15 105.167 45 135.5s68 45.5 114 45.5s84 -15.167 114 -45.5s45 -75.5 45 -135.5
s-15 -105.167 -45 -135.5s-68 -45.5 -114 -45.5zM715 70c7.33301 0 14.666 1.66699 21.999 5s13.833 9 19.5 17s10.334 18.5 14.001 31.5s5.5 29.167 5.5 48.5s-1.83301 35.5 -5.5 48.5s-8.33398 23.5 -14.001 31.5s-12.167 13.667 -19.5 17s-14.666 5 -21.999 5
s-14.666 -1.66699 -21.999 -5s-13.833 -9 -19.5 -17s-10.334 -18.5 -14.001 -31.5s-5.5 -29.167 -5.5 -48.5s1.83301 -35.5 5.5 -48.5s8.33398 -23.5 14.001 -31.5s12.167 -13.667 19.5 -17s14.666 -5 21.999 -5z" />
    <glyph glyph-name="ampersand" unicode="&#x26;" horiz-adv-x="643" 
d="M429 61c-21.333 -22 -46.668 -40.333 -76.001 -55s-65.666 -22 -108.999 -22c-36 0 -67.667 5.16699 -95 15.5s-50 24.166 -68 41.499s-31.5 37.666 -40.5 60.999s-13.5 47.666 -13.5 72.999c0 37.333 9.66699 73.166 29 107.499s53.333 68.833 102 103.5l-2 3
c-17.333 20.667 -29.833 41.834 -37.5 63.501s-11.5 43.834 -11.5 66.501c0 22 4.16699 43 12.5 63s20.666 37.667 36.999 53s36.333 27.5 60 36.5s50.834 13.5 81.501 13.5c28.667 0 53 -3.83301 73 -11.5s37 -17.167 51 -28.5s25.333 -23.5 34 -36.5
s15.667 -24.833 21 -35.5l-88 -56c-16.667 27.333 -31.667 45 -45 53s-26.333 12 -39 12c-23.333 0 -41.333 -6 -54 -18s-19 -27 -19 -45c0 -15.333 4 -30.166 12 -44.499s18 -28.166 30 -41.499l160 -194l86 105l88 -71l-101 -123l125 -150h-152zM225.998 304
c-30 -22.667 -50.167 -43.168 -60.5 -61.501s-15.5 -38.5 -15.5 -60.5c0 -25.333 8.16699 -46.166 24.5 -62.499s41.5 -24.5 75.5 -24.5c24 0 44.333 5 61 15s32 22.667 46 38z" />
    <glyph glyph-name="quotesingle" unicode="'" horiz-adv-x="218" 
d="M53 667h112v-232h-112v232z" />
    <glyph glyph-name="parenleft" unicode="(" horiz-adv-x="297" 
d="M153 -93c-8 15.333 -17.5 35.501 -28.5 60.501s-21.333 54.333 -31 88s-18 71.5 -25 113.5s-10.5 87.667 -10.5 137s3.5 95 10.5 137s15.333 80 25 114s20 63.5 31 88.5s20.5 45.167 28.5 60.5h116c-11.333 -19.333 -22.166 -43.333 -32.499 -72s-19.5 -60.5 -27.5 -95.5
s-14.333 -72.333 -19 -112s-7 -79.834 -7 -120.501s2.33301 -80.667 7 -120s11 -76.5 19 -111.5s17.167 -67 27.5 -96s21.166 -52.833 32.499 -71.5h-116z" />
    <glyph glyph-name="parenright" unicode=")" horiz-adv-x="297" 
d="M28 -93c10.667 18.667 21.167 42.499 31.5 71.499s19.5 61 27.5 96s14.5 72.167 19.5 111.5s7.5 79.333 7.5 120s-2.5 80.834 -7.5 120.501s-11.5 77 -19.5 112s-17.167 66.833 -27.5 95.5s-20.833 52.667 -31.5 72h116c8 -15.333 17.5 -35.5 28.5 -60.5
s21.333 -54.5 31 -88.5s18 -72 25 -114s10.5 -87.667 10.5 -137s-3.5 -95 -10.5 -137s-15.333 -79.833 -25 -113.5s-20 -63 -31 -88s-20.5 -45.167 -28.5 -60.5h-116z" />
    <glyph glyph-name="asterisk" unicode="*" horiz-adv-x="501" 
d="M58 460l111 58l-111 58l46 80l106 -67l-5 125h92l-4 -125l104 67l46 -80l-109 -58l109 -58l-46 -80l-104 67l4 -125h-92l5 125l-106 -67z" />
    <glyph glyph-name="plus" unicode="+" horiz-adv-x="545" 
d="M74 371h149v147h100v-147h149v-99h-149v-146h-100v146h-149v99z" />
    <glyph glyph-name="comma" unicode="," horiz-adv-x="279" 
d="M129 0h-51v139h143v-137l-85 -145h-70z" />
    <glyph glyph-name="hyphen" unicode="-" horiz-adv-x="441" 
d="M68 335h305v-112h-305v112z" />
    <glyph glyph-name="period" unicode="." horiz-adv-x="279" 
d="M68 138h143v-138h-143v138z" />
    <glyph glyph-name="slash" unicode="/" horiz-adv-x="426" 
d="M289 685h114l-263 -701h-117z" />
    <glyph glyph-name="zero" unicode="0" horiz-adv-x="545" 
d="M272 -16c-40.667 0 -76.334 8.33301 -107.001 25s-56.334 39.834 -77.001 69.501s-36.167 65.334 -46.5 107.001s-15.5 87.5 -15.5 137.5c0 48.667 5.16699 93 15.5 133s25.833 74.167 46.5 102.5s46.5 50.333 77.5 66s66.833 23.5 107.5 23.5
s76.334 -7.83301 107.001 -23.5s56.334 -37.667 77.001 -66s36.167 -62.5 46.5 -102.5s15.5 -84.333 15.5 -133c0 -50 -5.16699 -95.833 -15.5 -137.5s-25.833 -77.334 -46.5 -107.001s-46.5 -52.834 -77.5 -69.501s-66.833 -25 -107.5 -25zM273 92
c20.667 0 38.834 6 54.501 18s28.667 28.333 39 49s18.166 45 23.499 73s8 58.333 8 91c0 31.333 -2.66699 60.333 -8 87s-13.333 49.5 -24 68.5s-23.834 33.833 -39.501 44.5s-33.834 16 -54.501 16s-38.834 -5.33301 -54.501 -16s-28.667 -25.5 -39 -44.5
s-18.166 -41.833 -23.499 -68.5s-8 -55.667 -8 -87c0 -32.667 2.66699 -63 8 -91s13.333 -52.333 24 -73s23.834 -37 39.501 -49s33.834 -18 54.501 -18z" />
    <glyph glyph-name="one" unicode="1" horiz-adv-x="545" 
d="M131 103h108v398l-121 -64l-49 92l185 101h103v-527h104v-103h-330v103z" />
    <glyph glyph-name="two" unicode="2" horiz-adv-x="545" 
d="M63 79c0 28.667 4.83203 54.667 14.499 78s22.167 44.833 37.5 64.5s32.333 37.834 51 54.501l56 49l49.5 41c14.333 11.333 26.5 22.166 36.5 32.499s17.5 20.833 22.5 31.5s7.5 23 7.5 37c0 8.66699 -1.5 17.667 -4.5 27s-8 17.5 -15 24.5s-16.167 12.833 -27.5 17.5
s-25.666 7 -42.999 7c-15.333 0 -29.166 -2.33301 -41.499 -7s-23.333 -10.667 -33 -18s-18 -15.333 -25 -24s-12.833 -17 -17.5 -25l-88 63c8 13.333 18 26.833 30 40.5s26.667 26.167 44 37.5s37.666 20.5 60.999 27.5s50 10.5 80 10.5c36 0 67 -4.83301 93 -14.5
s47.333 -22.5 64 -38.5s29 -34.167 37 -54.5s12 -41.166 12 -62.499c0 -22.667 -3.66699 -43.667 -11 -63s-17 -37.333 -29 -54s-25.667 -32.334 -41 -47.001s-31 -28.667 -47 -42l-54.5 -44c-17 -13.333 -31.833 -26.333 -44.5 -39s-22.667 -25.5 -30 -38.5
s-11 -27.5 -11 -43.5h272v-107h-405v79z" />
    <glyph glyph-name="three" unicode="3" horiz-adv-x="545" 
d="M89 138c18 -16 37.832 -28.834 59.499 -38.501s46.5 -14.5 74.5 -14.5c36 0 64.667 9.83301 86 29.5s32 45.5 32 77.5c0 14 -1.83301 27.167 -5.5 39.5s-9.83398 23 -18.501 32s-20 16.167 -34 21.5s-31 8 -51 8c-9.33301 0 -19 -1 -29 -3s-19 -4 -27 -6l-35 56l161 181
h-236v108h377v-90l-140 -164c56 -6.66699 97.167 -26.667 123.5 -60s39.5 -74.666 39.5 -123.999c0 -32.667 -6.16699 -62 -18.5 -88s-29.5 -48 -51.5 -66s-47.667 -31.667 -77 -41s-61 -14 -95 -14c-45.333 0 -84.666 6.83301 -117.999 20.5s-61.666 31.167 -84.999 52.5z
" />
    <glyph glyph-name="four" unicode="4" horiz-adv-x="545" 
d="M40 220l275 410h118v-409h65v-100h-65v-121h-113v121h-280v99zM320 221v243l-166 -243h166z" />
    <glyph glyph-name="five" unicode="5" horiz-adv-x="545" 
d="M90 139c18 -16 37.3311 -28.667 57.998 -38s47 -14 79 -14c21.333 0 39.5 3.16699 54.5 9.5s27.333 15 37 26s16.667 23.5 21 37.5s6.5 28.667 6.5 44c0 10 -1.83301 21.167 -5.5 33.5s-10.167 23.833 -19.5 34.5s-22.166 19.667 -38.499 27s-36.833 11 -61.5 11
c-22.667 0 -40.667 -2.16699 -54 -6.5l-37 -12.5l-60 46l63 292h327v-110h-242l-25 -121c4.66699 2 12.667 4 24 6s25 3 41 3c30.667 0 58.834 -4.66699 84.501 -14s47.834 -22.5 66.501 -39.5s33.167 -37.833 43.5 -62.5s15.5 -52 15.5 -82
c0 -29.333 -4.33301 -57.666 -13 -84.999s-22.834 -51.5 -42.501 -72.5s-45.334 -37.833 -77.001 -50.5s-70.167 -19 -115.5 -19c-44.667 0 -82.667 6.66699 -114 20s-58.666 30.666 -81.999 51.999z" />
    <glyph glyph-name="six" unicode="6" horiz-adv-x="545" 
d="M442 513c-8.66699 5.33301 -18.6689 10.332 -30.002 14.999c-9.33301 4 -20.666 7.66699 -33.999 11s-28 5 -44 5c-24 0 -45.667 -5.16699 -65 -15.5s-36 -24 -50 -41s-24.833 -36.167 -32.5 -57.5s-11.5 -43.333 -11.5 -66c14.667 8.66699 32.334 18.167 53.001 28.5
s47 15.5 79 15.5c28.667 0 55.167 -4.66699 79.5 -14s45 -22.833 62 -40.5s30.333 -39.167 40 -64.5s14.5 -54.333 14.5 -87c0 -29.333 -4.66699 -57.333 -14 -84s-23 -50 -41 -70s-40.5 -36 -67.5 -48s-57.833 -18 -92.5 -18c-33.333 0 -64.166 6 -92.499 18
s-52.833 30.667 -73.5 56s-36.834 57.5 -48.501 96.5s-17.5 85.5 -17.5 139.5c0 52 6 99.833 18 143.5s29.667 81.334 53 113.001s52.333 56.167 87 73.5s75 26 121 26c18.667 0 36 -1.5 52 -4.5s30.833 -6.66699 44.5 -11s25.667 -8.83301 36 -13.5s18.833 -9 25.5 -13z
M173.998 268.999c0 -35.333 3.00098 -64.833 9.00098 -88.5s14.167 -42.5 24.5 -56.5s22.5 -24 36.5 -30s28.667 -9 44 -9c31.333 0 56.5 11.167 75.5 33.5s28.5 51.5 28.5 87.5c0 30.667 -8.83301 55.167 -26.5 73.5s-40.834 27.5 -69.501 27.5
c-30 0 -54.833 -4.33301 -74.5 -13s-35.5 -17 -47.5 -25z" />
    <glyph glyph-name="seven" unicode="7" horiz-adv-x="545" 
d="M127 0c14 44.667 31 92.832 51 144.499s40.667 101.667 62 150s42 92.5 62 132.5s36.667 70.667 50 92h-287v111h408v-106c-8.66699 -14 -19.167 -33 -31.5 -57s-25.5 -51.167 -39.5 -81.5s-28.167 -62.666 -42.5 -96.999l-41.5 -103
c-13.333 -34.333 -25.5 -67.5 -36.5 -99.5s-19.833 -60.667 -26.5 -86h-128z" />
    <glyph glyph-name="eight" unicode="8" horiz-adv-x="545" 
d="M273 391c26.667 7.33301 48 19.833 64 37.5s24 36.167 24 55.5c0 22 -8.16699 40.167 -24.5 54.5s-37.5 21.5 -63.5 21.5c-24.667 0 -45.5 -7.33301 -62.5 -22s-25.5 -33.667 -25.5 -57c0 -17.333 8 -34.833 24 -52.5s37.333 -30.167 64 -37.5zM271 294
c-15.333 -3.33301 -30.002 -8.5 -44.002 -15.5s-26.167 -15.333 -36.5 -25s-18.666 -20.834 -24.999 -33.501s-9.5 -26 -9.5 -40c0 -18 3.5 -33.167 10.5 -45.5s16.167 -22.5 27.5 -30.5s24 -13.833 38 -17.5s27.667 -5.5 41 -5.5s27 1.83301 41 5.5s26.667 9.5 38 17.5
s20.5 18.167 27.5 30.5s10.5 27.5 10.5 45.5c0 14 -3.33301 27.333 -10 40s-15.5 23.834 -26.5 33.501s-23.667 18 -38 25s-29.166 12.167 -44.499 15.5zM152.998 349c-20.667 12 -39.001 29.832 -55.001 53.499s-24 49.834 -24 78.501c0 24.667 4.83301 47.334 14.5 68.001
s23.167 38.334 40.5 53.001s38.166 26 62.499 34s51.5 12 81.5 12c32.667 0 61.334 -4 86.001 -12s45.334 -19.167 62.001 -33.5s29.334 -31.5 38.001 -51.5s13 -41.667 13 -65c0 -31.333 -8.33301 -58.5 -25 -81.5s-35.667 -40.167 -57 -51.5
c38 -16 67.5 -38.833 88.5 -68.5s31.5 -64.834 31.5 -105.501c0 -21.333 -4.33301 -43.5 -13 -66.5s-22.5 -44 -41.5 -63s-43.5 -34.667 -73.5 -47s-66.333 -18.5 -109 -18.5c-43.333 0 -80 6 -110 18s-54.5 27.333 -73.5 46s-32.667 39.5 -41 62.5s-12.5 45.167 -12.5 66.5
c0 40.667 10.667 75.667 32 105s49.666 51.666 84.999 66.999z" />
    <glyph glyph-name="nine" unicode="9" horiz-adv-x="545" 
d="M104 121c11.333 -6.66699 23.6689 -12.332 37.002 -16.999c11.333 -4 24.5 -7.66699 39.5 -11s30.5 -5 46.5 -5c24 0 44.833 4.83301 62.5 14.5s32.667 22.667 45 39s21.666 35 27.999 56s9.83301 42.833 10.5 65.5c-10.667 -8.66699 -26.5 -18 -47.5 -28
s-50.167 -15 -87.5 -15c-29.333 0 -56 5.5 -80 16.5s-44.667 26 -62 45s-30.833 41 -40.5 66s-14.5 51.833 -14.5 80.5c0 29.333 4.83301 57.333 14.5 84s23.834 50 42.501 70s41.5 36 68.5 48s58.167 18 93.5 18c33.333 0 64.166 -6 92.499 -18s52.833 -30.667 73.5 -56
s36.834 -57.5 48.501 -96.5s17.5 -85.5 17.5 -139.5c0 -51.333 -5.33301 -98.5 -16 -141.5s-27 -80.333 -49 -112s-49.667 -56.334 -83 -74.001s-73 -26.5 -119 -26.5c-18.667 0 -36.667 1.5 -54 4.5s-33.333 6.66699 -48 11s-27.834 8.83301 -39.501 13.5
s-20.834 9 -27.501 13zM374.003 361.002c0 35.333 -3.00098 64.832 -9.00098 88.499s-14.167 42.5 -24.5 56.5s-22.5 24 -36.5 30s-28.667 9 -44 9c-31.333 0 -57.166 -10.667 -77.499 -32s-30.5 -50 -30.5 -86c0 -29.333 9.16699 -53.666 27.5 -72.999
s43.166 -29 74.499 -29c32.667 0 57.834 4 75.501 12s32.5 16 44.5 24z" />
    <glyph glyph-name="colon" unicode=":" horiz-adv-x="279" 
d="M68 138h143v-138h-143v138zM68 469h143v-138h-143v138z" />
    <glyph glyph-name="semicolon" unicode=";" horiz-adv-x="291" 
d="M131 0h-51v139h143v-137l-85 -145h-70zM80 469h143v-138h-143v138z" />
    <glyph glyph-name="less" unicode="&#x3c;" horiz-adv-x="545" 
d="M71 357l357 193l43 -85l-267 -144l267 -144l-43 -85l-357 193v72z" />
    <glyph glyph-name="equal" unicode="=" horiz-adv-x="545" 
d="M74 454h398v-99h-398v99zM74 286h398v-99h-398v99z" />
    <glyph glyph-name="greater" unicode="&#x3e;" horiz-adv-x="545" 
d="M74 177l267 144l-267 144l43 85l357 -193v-72l-357 -193z" />
    <glyph glyph-name="question" unicode="?" horiz-adv-x="512" 
d="M155 138h143v-138h-143v138zM166 231c0 12.667 0.832031 26.165 2.49902 40.498s5.16699 29 10.5 44s13.5 29.833 24.5 44.5s26.167 28.667 45.5 42l32 23c10.667 8 20.334 16.333 29.001 25s15.667 17.667 21 27s8 19.666 8 30.999c0 20 -7.66699 36.5 -23 49.5
s-36.666 19.5 -63.999 19.5c-18 0 -34.667 -2.66699 -50 -8s-28.833 -11.333 -40.5 -18s-21.334 -13.5 -29.001 -20.5s-13.167 -11.833 -16.5 -14.5l-78 70c3.33301 4.66699 10 12.334 20 23.001s23.667 21.5 41 32.5s38.833 20.833 64.5 29.5s55.5 13 89.5 13
c32.667 0 61.667 -4.66699 87 -14s46.833 -22 64.5 -38s31.167 -34.5 40.5 -55.5s14 -42.833 14 -65.5c0 -37.333 -7.33301 -67.666 -22 -90.999s-36.667 -45.666 -66 -66.999l-38 -28c-10.667 -8 -19.5 -16.5 -26.5 -25.5s-12.167 -18.833 -15.5 -29.5s-5 -23.667 -5 -39
v-22h-120v22z" />
    <glyph glyph-name="at" unicode="@" horiz-adv-x="958" 
d="M575 212l-35.002 2c-9.33301 0.666992 -19.166 1.16699 -29.499 1.5s-19.166 0.5 -26.499 0.5c-35.333 0 -61.833 -7.5 -79.5 -22.5s-26.5 -32.167 -26.5 -51.5c0 -20 7.66699 -35.667 23 -47s37 -17 65 -17c14 0 27.5 2.33301 40.5 7s24.5 11 34.5 19
s18.167 17.333 24.5 28s9.5 22 9.5 34v46zM181.998 -18c-15.333 10.667 -31.166 25.166 -47.499 43.499s-31.333 40 -45 65s-24.834 53 -33.501 84s-13 64.833 -13 101.5c0 70 12.333 130.833 37 182.5s57.5 94.334 98.5 128.001s87.667 58.834 140 75.501
s106.5 25 162.5 25c60.667 0 117.5 -8 170.5 -24s99 -40.167 138 -72.5s69.667 -73 92 -122s33.5 -106.833 33.5 -173.5c0 -61.333 -7.66699 -112.166 -23 -152.499s-34 -72.166 -56 -95.499s-45.667 -39.666 -71 -48.999s-48 -14 -68 -14
c-22.667 0 -43.334 4.66699 -62.001 14s-32.334 24.666 -41.001 45.999c-14 -12.667 -27.667 -22.834 -41 -30.501s-26.833 -13.667 -40.5 -18s-28 -7.33301 -43 -9s-31.5 -2.5 -49.5 -2.5c-14.667 0 -30.834 3 -48.501 9s-34.167 15.333 -49.5 28
s-28.166 28.667 -38.499 48s-15.5 42 -15.5 68c0 26.667 5 50.5 15 71.5s24 38.667 42 53s39.667 25.166 65 32.499s53.333 11 84 11c9.33301 0 19.666 -0.166992 30.999 -0.5s22.333 -0.833008 33 -1.5l37 -2v11c0 23.333 -8.83301 41.666 -26.5 54.999s-40.5 20 -68.5 20
c-36 0 -64.333 -4.33301 -85 -13s-38.667 -18 -54 -28l-54 80c10.667 8 22 15.5 34 22.5s26 13.167 42 18.5s34.5 9.66602 55.5 12.999s46.167 5 75.5 5c28.667 0 55 -4.16699 79 -12.5s44.5 -20 61.5 -35s30.167 -33 39.5 -54s14 -43.833 14 -68.5v-196
c0 -10 2.83301 -18.167 8.5 -24.5s13.167 -9.5 22.5 -9.5c8.66699 0 18.334 3.66699 29.001 11s20.5 19.333 29.5 36s16.667 38.834 23 66.501s9.5 61.5 9.5 101.5c0 52.667 -9.5 97.667 -28.5 135s-44.167 67.666 -75.5 90.999s-67 40.333 -107 51s-81 16 -123 16
c-35.333 0 -72.166 -5.5 -110.499 -16.5s-73.166 -28.667 -104.499 -53s-57.166 -56 -77.499 -95s-30.5 -86.833 -30.5 -143.5c0 -32 3.33301 -60.667 10 -86s15 -47.5 25 -66.5s20.667 -35.167 32 -48.5s21.666 -23.666 30.999 -30.999z" />
    <glyph glyph-name="A" unicode="A" horiz-adv-x="646" 
d="M258 667h130l253 -667h-140l-58 169h-248l-58 -169h-132zM407 273l-88 259l-89 -259h177z" />
    <glyph glyph-name="B" unicode="B" horiz-adv-x="596" 
d="M70 667l229.001 -0.000976562c35.333 0 66.5 -4.5 93.5 -13.5s49.5 -21.333 67.5 -37s31.667 -34 41 -55s14 -43.833 14 -68.5c0 -23.333 -4.33301 -43.666 -13 -60.999s-18.834 -31.833 -30.501 -43.5s-23.334 -20.334 -35.001 -26.001s-20.834 -8.5 -27.501 -8.5
c12 -1.33301 26 -5 42 -11s31.167 -15.333 45.5 -28s26.5 -29.167 36.5 -49.5s15 -45.166 15 -74.499c0 -36 -6.33301 -66.167 -19 -90.5s-30.167 -44 -52.5 -59s-48.666 -25.667 -78.999 -32s-63.166 -9.5 -98.499 -9.5h-229v667zM293.001 400.999
c12.667 0 24.999 1.33203 36.999 3.99902s22.833 7.33398 32.5 14.001s17.334 15 23.001 25s8.5 22.667 8.5 38s-3 28 -9 38s-13.833 18 -23.5 24s-20.5 10.167 -32.5 12.5s-24 3.5 -36 3.5h-102v-159h102zM298 106.998c12 0 25.166 0.834961 39.499 2.50195
s27.833 5.66699 40.5 12s23.334 15.666 32.001 27.999s13 29.166 13 50.499c0 20 -4.16699 36.167 -12.5 48.5s-18.666 22 -30.999 29s-25.833 11.833 -40.5 14.5s-28.334 4 -41.001 4h-107v-189h107z" />
    <glyph glyph-name="C" unicode="C" horiz-adv-x="680" 
d="M657 122c-10 -15.333 -23.8301 -31.001 -41.4971 -47.001s-38.5 -30.833 -62.5 -44.5s-50.333 -24.834 -79 -33.501s-59 -13 -91 -13c-50 0 -95.667 8.66699 -137 26s-77 41.5 -107 72.5s-53.333 67.5 -70 109.5s-25 88 -25 138c0 48.667 8.33301 94.334 25 137.001
s40.167 80 70.5 112s66.5 57.333 108.5 76s88.333 28 139 28c32.667 0 62.667 -3.5 90 -10.5s52.166 -16.5 74.499 -28.5s42.166 -26.167 59.499 -42.5s32.666 -33.833 45.999 -52.5l-89 -79c-21.333 30.667 -46.166 55.334 -74.499 74.001s-63.833 28 -106.5 28
c-32.667 0 -62 -6.5 -88 -19.5s-48.167 -30.333 -66.5 -52s-32.333 -47 -42 -76s-14.5 -59.5 -14.5 -91.5s4.83301 -62 14.5 -90s23.5 -52.333 41.5 -73s39.5 -37 64.5 -49s53.167 -18 84.5 -18c28.667 0 53.167 3.33301 73.5 10s37.666 15 51.999 25s26.333 20.5 36 31.5
s18.5 20.5 26.5 28.5z" />
    <glyph glyph-name="D" unicode="D" horiz-adv-x="726" 
d="M70 667h249.002c52 0 99.667 -6.66699 143 -20s80.666 -33.666 111.999 -60.999s55.666 -62.333 72.999 -105s26 -93 26 -151c0 -55.333 -8.83301 -103.5 -26.5 -144.5s-42.334 -75.333 -74.001 -103s-69.167 -48.334 -112.5 -62.001s-90.666 -20.5 -141.999 -20.5h-248
v667zM307.002 112c76 0 134 18.332 174 54.999s60 90.334 60 161.001c0 70 -18.5 125.333 -55.5 166s-96.5 61 -178.5 61h-111v-443h111z" />
    <glyph glyph-name="E" unicode="E" horiz-adv-x="568" 
d="M70 667h432v-111h-306v-157h225v-112h-225v-174h329v-113h-455v667z" />
    <glyph glyph-name="F" unicode="F" horiz-adv-x="534" 
d="M70 667h431v-111h-305v-173h228v-112h-228v-271h-126v667z" />
    <glyph glyph-name="G" unicode="G" horiz-adv-x="723" 
d="M421 353h239.004v-276c-26 -24.667 -60.333 -46.334 -103 -65.001s-97.334 -28 -164.001 -28c-54.667 0 -103.5 9 -146.5 27s-79.5 42.5 -109.5 73.5s-53 67.5 -69 109.5s-24 87.333 -24 136s8.33301 94.334 25 137.001s40.167 80 70.5 112s66.5 57.333 108.5 76
s88.333 28 139 28c32.667 0 62.667 -3.5 90 -10.5s52.166 -16.5 74.499 -28.5s42.166 -26.167 59.499 -42.5s32.666 -33.833 45.999 -52.5l-89 -79c-21.333 30.667 -46.166 55.334 -74.499 74.001s-63.833 28 -106.5 28c-32.667 0 -62 -6.5 -88 -19.5
s-48.167 -30.333 -66.5 -52s-32.333 -47 -42 -76s-14.5 -59.5 -14.5 -91.5c0 -36 5.83301 -68.333 17.5 -97s27.667 -53.334 48 -74.001s44 -36.5 71 -47.5s55.5 -16.5 85.5 -16.5c61.333 0 108.666 14.667 141.999 44v104h-119v107z" />
    <glyph glyph-name="H" unicode="H" horiz-adv-x="723" 
d="M70 667h126v-268h331v268h126v-667h-126v287h-331v-287h-126v667z" />
    <glyph glyph-name="I" unicode="I" horiz-adv-x="266" 
d="M70 667h126v-667h-126v667z" />
    <glyph glyph-name="J" unicode="J" horiz-adv-x="508" 
d="M98 157c21.333 -23.333 41 -38.833 59 -46.5s38.667 -11.5 62 -11.5c12 0 23.833 2.16699 35.5 6.5s22.167 10.833 31.5 19.5s16.833 19.5 22.5 32.5s8.5 28.167 8.5 45.5v464h126v-471c0 -40 -6.5 -73.667 -19.5 -101s-29.833 -49.333 -50.5 -66s-44 -28.667 -70 -36
s-52 -11 -78 -11c-52 0 -94.833 8.16699 -128.5 24.5s-62.5 39.833 -86.5 70.5z" />
    <glyph glyph-name="K" unicode="K" horiz-adv-x="621" 
d="M70 667h126v-274l247 274h143l-246 -273l273 -394h-152l-203 303l-62 -69v-234h-126v667z" />
    <glyph glyph-name="L" unicode="L" horiz-adv-x="553" 
d="M70 667h126v-555h329v-112h-455v667z" />
    <glyph glyph-name="M" unicode="M" horiz-adv-x="789" 
d="M94 667h117l185 -315l182 315h117l32 -667h-123l-22 462l-160 -272h-59l-161 265l-22 -455h-118z" />
    <glyph glyph-name="N" unicode="N" horiz-adv-x="713" 
d="M70 667h127l323 -474v474h123v-667h-124l-326 480v-480h-123v667z" />
    <glyph glyph-name="O" unicode="O" horiz-adv-x="782" 
d="M391 -18c-48.667 0 -94 9.16699 -136 27.5s-78.667 43.5 -110 75.5s-56 69.333 -74 112s-27 88.334 -27 137.001s9 94.334 27 137.001s42.5 79.834 73.5 111.501s67.667 56.667 110 75s87.833 27.5 136.5 27.5s94 -9.16699 136 -27.5s78.667 -43.333 110 -75
s56 -68.834 74 -111.501s27 -88.334 27 -137.001s-9 -94.334 -27 -137.001s-42.667 -80 -74 -112s-68 -57.167 -110 -75.5s-87.333 -27.5 -136 -27.5zM391 101c32.667 0 62.334 6.33301 89.001 19s49.334 29.834 68.001 51.501s33 46.834 43 75.501s15 58.667 15 90
c0 32 -5 62.167 -15 90.5s-24.333 53.166 -43 74.499s-41.334 38.166 -68.001 50.499s-56.334 18.5 -89.001 18.5c-33.333 0 -63.166 -6.16699 -89.499 -18.5s-48.833 -29.166 -67.5 -50.499s-33 -46.166 -43 -74.499s-15 -58.5 -15 -90.5c0 -31.333 5 -61.333 15 -90
s24.333 -53.834 43 -75.501s41.167 -38.834 67.5 -51.501s56.166 -19 89.499 -19z" />
    <glyph glyph-name="P" unicode="P" horiz-adv-x="558" 
d="M70 667h213.998c46.667 0 84.834 -7.16699 114.501 -21.5s53.167 -32 70.5 -53s29.333 -43.5 36 -67.5s10 -46 10 -66c0 -37.333 -6.66699 -69.333 -20 -96s-30.666 -48.5 -51.999 -65.5s-45.333 -29.5 -72 -37.5s-53 -12 -79 -12h-101v-248h-121v667zM281.998 354
c32 0 57.5 9.33301 76.5 28s28.5 43 28.5 73c0 31.333 -10 56.833 -30 76.5s-45 29.5 -75 29.5h-91v-207h91z" />
    <glyph glyph-name="Q" unicode="Q" horiz-adv-x="782" 
d="M548 19c-23.333 -11.333 -48.333 -20.334 -75 -27.001s-54 -10 -82 -10c-48.667 0 -94 9.16699 -136 27.5s-78.667 43.5 -110 75.5s-56 69.333 -74 112s-27 88.334 -27 137.001s9 94.334 27 137.001s42.5 79.834 73.5 111.501s67.667 56.667 110 75
s87.833 27.5 136.5 27.5s94 -9.16699 136 -27.5s78.667 -43.333 110 -75s56 -68.834 74 -111.501s27 -88.334 27 -137.001c0 -51.333 -9.83301 -99 -29.5 -143s-46.5 -82.333 -80.5 -115l75 -96l-75 -63zM396 213.999l75.002 63.002l79 -102
c18 21.333 31.833 45.833 41.5 73.5s14.5 57.167 14.5 88.5c0 32 -5 62.167 -15 90.5s-24.333 53.166 -43 74.499s-41.334 38.166 -68.001 50.499s-56.334 18.5 -89.001 18.5c-33.333 0 -63.166 -6.16699 -89.499 -18.5s-48.833 -29.166 -67.5 -50.499
s-33 -46.166 -43 -74.499s-15 -58.5 -15 -90.5c0 -31.333 5 -61.333 15 -90s24.333 -53.834 43 -75.501s41.167 -38.834 67.5 -51.501s56.166 -19 89.499 -19c28.667 0 55.667 5 81 15z" />
    <glyph glyph-name="R" unicode="R" horiz-adv-x="586" 
d="M70 667l221 -0.000976562c42 0 77.667 -6.33301 107 -19s53 -28.834 71 -48.501s31.167 -41.167 39.5 -64.5s12.5 -45.666 12.5 -66.999c0 -42 -9.16699 -79.167 -27.5 -111.5s-46.5 -58.166 -84.5 -77.499l154 -279h-142l-135 263h-95v-263h-121v667zM292 366.999
c32 0 56.833 9.33203 74.5 27.999s26.5 41.334 26.5 68.001c0 28.667 -9.33301 52 -28 70s-43 27 -73 27h-101v-193h101z" />
    <glyph glyph-name="S" unicode="S" horiz-adv-x="593" 
d="M119 188c8 -9.33301 17.502 -19.168 28.502 -29.501s23.333 -20 37 -29s29 -16.5 46 -22.5s36.167 -9 57.5 -9c39.333 0 68.5 9 87.5 27s28.5 39.667 28.5 65c0 14 -2.66699 26.5 -8 37.5s-14.333 20.667 -27 29s-29.167 15.833 -49.5 22.5s-45.5 13 -75.5 19
c-30.667 6 -57.167 15.333 -79.5 28s-40.833 27.667 -55.5 45s-25.667 36.5 -33 57.5s-11 42.5 -11 64.5c0 25.333 4.66699 49.5 14 72.5s23.666 43.333 42.999 61s43.5 31.834 72.5 42.501s63.167 16 102.5 16c35.333 0 65.666 -4 90.999 -12s46.5 -17.333 63.5 -28
s30.167 -21.167 39.5 -31.5l20 -22.5l-83 -78c-3.33301 2.66699 -8.66602 7.5 -15.999 14.5s-16.5 13.833 -27.5 20.5s-24.167 12.667 -39.5 18s-32.666 8 -51.999 8c-17.333 0 -32.333 -2.33301 -45 -7s-23.167 -10.667 -31.5 -18s-14.5 -15.5 -18.5 -24.5
s-6 -17.5 -6 -25.5c0 -12 2.16699 -22.667 6.5 -32s11.666 -18 21.999 -26s24.5 -15.167 42.5 -21.5s40.667 -12.166 68 -17.499c26 -5.33301 51 -13.333 75 -24s45.167 -24.5 63.5 -41.5s33 -37.667 44 -62s16.5 -53.5 16.5 -87.5c0 -29.333 -6 -56.333 -18 -81
s-28.667 -46.334 -50 -65.001s-46.666 -33.167 -75.999 -43.5s-61.333 -15.5 -96 -15.5c-33.333 0 -63.5 4 -90.5 12s-51.333 18.167 -73 30.5s-40.334 25.833 -56.001 40.5s-28.834 28.667 -39.501 42z" />
    <glyph glyph-name="T" unicode="T" horiz-adv-x="624" 
d="M249 556h-226v111h578v-111h-226v-556h-126v556z" />
    <glyph glyph-name="U" unicode="U" horiz-adv-x="674" 
d="M65 667h126v-399c0 -25.333 2.5 -48.166 7.5 -68.499s13.167 -37.666 24.5 -51.999s26.333 -25.333 45 -33s41.667 -11.5 69 -11.5s50.333 3.83301 69 11.5s33.667 18.667 45 33s19.5 31.666 24.5 51.999s7.5 43.166 7.5 68.499v399h126v-421c0 -37.333 -6 -72 -18 -104
s-29.667 -59.833 -53 -83.5s-51.833 -42.334 -85.5 -56.001s-72.167 -20.5 -115.5 -20.5s-81.833 6.83301 -115.5 20.5s-62.167 32.334 -85.5 56.001s-41 51.5 -53 83.5s-18 66.667 -18 104v421z" />
    <glyph glyph-name="V" unicode="V" horiz-adv-x="636" 
d="M5 667h140l177 -509l177 509h132l-248 -667h-130z" />
    <glyph glyph-name="W" unicode="W" horiz-adv-x="880" 
d="M10 667h138l109 -499l129 480h114l130 -480l108 499h132l-175 -667h-132l-124 441l-126 -441h-130z" />
    <glyph glyph-name="X" unicode="X" horiz-adv-x="605" 
d="M227 345l-213 322h152l139 -218l134 218h137l-205 -319l229 -348h-152l-154 243l-152 -243h-137z" />
    <glyph glyph-name="Y" unicode="Y" horiz-adv-x="600" 
d="M236 293l-231 374h138l160 -266l160 266h132l-231 -374v-293h-128v293z" />
    <glyph glyph-name="Z" unicode="Z" horiz-adv-x="658" 
d="M53 110l393 446h-375v111h526v-111l-385 -446h393v-110h-552v110z" />
    <glyph glyph-name="bracketleft" unicode="[" horiz-adv-x="330" 
d="M73 706h234v-105h-116v-587h116v-107h-234v799z" />
    <glyph glyph-name="backslash" unicode="\" horiz-adv-x="426" 
d="M23 685h114l266 -701h-117z" />
    <glyph glyph-name="bracketright" unicode="]" horiz-adv-x="330" 
d="M23 14h116v587h-116v105h234v-799h-234v107z" />
    <glyph glyph-name="asciicircum" unicode="^" horiz-adv-x="562" 
d="M226 667h110l173 -359h-117l-111 245l-111 -245h-117z" />
    <glyph glyph-name="underscore" unicode="_" horiz-adv-x="500" 
d="M0 -65h500v-55h-500v55z" />
    <glyph glyph-name="grave" unicode="`" horiz-adv-x="502" 
d="M144 682h126l48 -142h-95z" />
    <glyph glyph-name="a" unicode="a" horiz-adv-x="504" 
d="M335 44c-12.667 -15.333 -31.9961 -28.998 -57.9961 -40.998s-55 -18 -87 -18c-19.333 0 -38.5 3 -57.5 9s-36.333 15.167 -52 27.5s-28.334 28.166 -38.001 47.499s-14.5 42 -14.5 68c0 26.667 5 50.5 15 71.5s24 38.667 42 53s39.667 25.166 65 32.499s53.333 11 84 11
c9.33301 0 19.666 -0.166992 30.999 -0.5s22.333 -0.833008 33 -1.5l37 -2v11c0 23.333 -9.33301 41.666 -28 54.999s-43 20 -73 20c-33.333 0 -60 -4.33301 -80 -13s-37.667 -18 -53 -28l-54 80c9.33301 6.66699 20 13.5 32 20.5s26 13.333 42 19s34.5 10.334 55.5 14.001
s45.5 5.5 73.5 5.5c30 0 57.167 -4.16699 81.5 -12.5s45.166 -20 62.499 -35s30.666 -33 39.999 -54s14 -43.833 14 -68.5v-315h-110zM335.004 212.002l-35.002 2c-9.33301 0.666992 -19.166 1.16699 -29.499 1.5s-19.166 0.5 -26.499 0.5c-38 0 -64.667 -7.5 -80 -22.5
s-23 -32.167 -23 -51.5c0 -20 7.16699 -35.667 21.5 -47s35.5 -17 63.5 -17c14 0 27.5 2.33301 40.5 7s24.5 11 34.5 19s18.167 17.333 24.5 28s9.5 22 9.5 34v46z" />
    <glyph glyph-name="b" unicode="b" horiz-adv-x="555" 
d="M58 667l117.999 -0.000976562v-230c8 8 23.333 17 46 27s50 15 82 15c34 0 64.167 -6.33301 90.5 -19s48.833 -29.667 67.5 -51s32.834 -46.666 42.501 -75.999s14.5 -60.333 14.5 -93c0 -35.333 -6.16699 -68.5 -18.5 -99.5s-30 -58 -53 -81s-50.833 -41.333 -83.5 -55
s-69.334 -20.5 -110.001 -20.5s-78.167 3.33301 -112.5 10s-62.166 13.667 -83.499 21v652zM175.999 95.999c9.33301 -3.33301 18.998 -5.83203 28.998 -7.49902s25.667 -2.5 47 -2.5c24 0 45 4.16699 63 12.5s33.333 19.5 46 33.5s22.167 30.167 28.5 48.5
s9.5 37.166 9.5 56.499c0 18 -2.16699 35.333 -6.5 52s-11.166 31.5 -20.499 44.5s-21.166 23.333 -35.499 31s-31.5 11.5 -51.5 11.5c-36 0 -63.167 -9.16699 -81.5 -27.5s-27.5 -43.5 -27.5 -75.5v-177z" />
    <glyph glyph-name="c" unicode="c" horiz-adv-x="492" 
d="M471 62c-22 -23.333 -48 -42.001 -78 -56.001s-65 -21 -105 -21s-75.667 6 -107 18s-57.666 29 -78.999 51s-37.666 48.333 -48.999 79s-17 64.667 -17 102c0 34 6.16699 66.167 18.5 96.5s29.5 56.833 51.5 79.5s48.5 40.667 79.5 54s65.167 20 102.5 20
c38 0 72.667 -6.83301 104 -20.5s58 -32.167 80 -55.5l-75 -76c-13.333 15.333 -29 27.333 -47 36s-38.667 13 -62 13c-22.667 0 -42.334 -4.16699 -59.001 -12.5s-30.5 -19.166 -41.5 -32.499s-19.167 -29 -24.5 -47s-8 -36.333 -8 -55c0 -18 2.66699 -35.667 8 -53
s13.5 -33 24.5 -47s24.833 -25.333 41.5 -34s36.334 -13 59.001 -13c23.333 0 44.666 4.5 63.999 13.5s35.666 21.167 48.999 36.5z" />
    <glyph glyph-name="d" unicode="d" horiz-adv-x="557" 
d="M382 46c-6 -6.66699 -13.3301 -13.668 -21.9971 -21.001s-18.834 -14 -30.501 -20s-24.667 -11 -39 -15s-30.5 -6 -48.5 -6c-25.333 0 -50.333 5.33301 -75 16s-46.667 26.334 -66 47.001s-35 46 -47 76s-18 64.333 -18 103c0 36.667 5.33301 68.834 16 96.501
s24 51.167 40 70.5c13.333 16 28 29.333 44 40s32.167 19.5 48.5 26.5s32.166 12 47.499 15s28.666 4.5 39.999 4.5c15.333 0 28 -0.5 38 -1.5s19 -2.33301 27 -4s15.333 -3.83398 22 -6.50098l23 -9v209h117v-667h-114zM382.003 351.999
c-11.333 9.33301 -24.502 15.834 -39.502 19.501s-34.167 5.5 -57.5 5.5s-42.666 -4.5 -57.999 -13.5s-28.666 -20.833 -39.999 -35.5c-10 -13.333 -17.833 -28.833 -23.5 -46.5s-8.5 -36.167 -8.5 -55.5c0 -40 10 -73.333 30 -100s49 -40 87 -40c20 0 37 3.83301 51 11.5
s25.333 17.5 34 29.5s15 25.167 19 39.5s6 28.166 6 41.499v144z" />
    <glyph glyph-name="e" unicode="e" horiz-adv-x="538" 
d="M499 68l-16.499 -16.5c-9 -9 -22 -18.5 -39 -28.5s-38.667 -19 -65 -27s-57.833 -12 -94.5 -12c-37.333 0 -71.333 6.33301 -102 19s-56.834 30.167 -78.501 52.5s-38.334 49.166 -50.001 80.499s-17.5 66 -17.5 104c0 34.667 5.83301 66.834 17.5 96.501
s28 55.5 49 77.5s46 39.333 75 52s61.167 19 96.5 19c42.667 0 78.834 -7.83301 108.501 -23.5s53.5 -36.167 71.5 -61.5s31 -54 39 -86s12 -64.667 12 -98v-17h-350c0 -17.333 3.83301 -33 11.5 -47s17.667 -26 30 -36s26.333 -17.667 42 -23s31.167 -8 46.5 -8
c22.667 0 42.5 2.16699 59.5 6.5s31.5 9.33301 43.5 15s21.833 11.667 29.5 18s13.5 11.5 17.5 15.5zM384.001 284c0 12 -2.33301 24 -7 36s-11.5 22.833 -20.5 32.5s-20.5 17.667 -34.5 24s-30 9.5 -48 9.5c-19.333 0 -36.5 -3.16699 -51.5 -9.5s-27.5 -14.333 -37.5 -24
s-17.667 -20.5 -23 -32.5s-8 -24 -8 -36h230z" />
    <glyph glyph-name="f" unicode="f" horiz-adv-x="340" 
d="M93 373h-80.002v96h80v29c0 34 5.33301 62.833 16 86.5s24.334 43 41.001 58s35.334 25.833 56.001 32.5s41 10 61 10c21.333 0 45 -3 71 -9s51 -19.333 75 -40l-55 -78c-10.667 7.33301 -22.167 13.333 -34.5 18s-24.833 7 -37.5 7c-23.333 0 -41.833 -7.5 -55.5 -22.5
s-20.5 -36.5 -20.5 -64.5v-27h121v-96h-120v-373h-118v373z" />
    <glyph glyph-name="g" unicode="g" horiz-adv-x="555" 
d="M134 -76c18.667 -12.667 38.833 -21.8359 60.5 -27.5029s47.167 -8.5 76.5 -8.5c30.667 0 56.334 9.33301 77.001 28s31 44.667 31 78v51c-16 -13.333 -33.5 -24.166 -52.5 -32.499s-44.167 -12.5 -75.5 -12.5c-34 0 -64.167 5.66699 -90.5 17
s-48.833 27.166 -67.5 47.499s-32.834 44.333 -42.501 72s-14.5 58.167 -14.5 91.5c0 34.667 6.16699 67.334 18.5 98.001s30 57.334 53 80.001s50.833 40.5 83.5 53.5s69.334 19.5 110.001 19.5s78.167 -3.33301 112.5 -10s62.166 -13.667 83.499 -21v-456
c0 -32.667 -5.66699 -61.667 -17 -87s-27 -46.666 -47 -63.999s-43.667 -30.5 -71 -39.5s-57 -13.5 -89 -13.5c-24.667 0 -46.5 1.16699 -65.5 3.5s-36 5.5 -51 9.5s-28.667 9 -41 15s-23.833 13 -34.5 21zM378.999 366.998c-9.33301 3.33301 -19 5.83398 -29 7.50098
s-25.667 2.5 -47 2.5c-24 0 -45 -4 -63 -12s-33.333 -18.667 -46 -32s-22.167 -28.833 -28.5 -46.5s-9.5 -36.167 -9.5 -55.5c0 -36 9 -66.333 27 -91s47 -37 87 -37c36 0 63.167 7.66699 81.5 23s27.5 39.666 27.5 72.999v168z" />
    <glyph glyph-name="h" unicode="h" horiz-adv-x="551" 
d="M58 667l115.999 -0.000976562v-246c12 13.333 29.5 26.333 52.5 39s52.5 19 88.5 19c28.667 0 54.334 -4.66699 77.001 -14s41.5 -22.5 56.5 -39.5s26.5 -37.5 34.5 -61.5s12 -50.333 12 -79v-285h-118v284c0 30 -8.16699 53.167 -24.5 69.5s-37.5 24.5 -63.5 24.5
c-16 0 -31 -3.16699 -45 -9.5s-26 -15.166 -36 -26.499s-17.833 -24.5 -23.5 -39.5s-8.5 -31.167 -8.5 -48.5v-254h-118v667z" />
    <glyph glyph-name="i" unicode="i" horiz-adv-x="244" 
d="M59 667h126v-124h-126v124zM63 469h118v-469h-118v469z" />
    <glyph glyph-name="j" unicode="j" horiz-adv-x="244" 
d="M58 667h126v-124h-126v124zM-43 -83c6 -3.33301 13.3311 -6.83594 21.998 -10.5029s19.334 -5.5 32.001 -5.5c15.333 0 27.833 6.33301 37.5 19s14.5 31.334 14.5 56.001v493h118v-470c0 -23.333 -1.83301 -46.666 -5.5 -69.999s-11 -44.666 -22 -63.999
s-26.5 -35 -46.5 -47s-46.667 -18 -80 -18c-28 0 -51.167 4.16699 -69.5 12.5s-33.166 16.5 -44.499 24.5z" />
    <glyph glyph-name="k" unicode="k" horiz-adv-x="512" 
d="M58 667h118v-364l169 166h139l-176 -173l196 -296h-141l-136 216l-51 -50v-166h-118v667z" />
    <glyph glyph-name="l" unicode="l" horiz-adv-x="234" 
d="M58 667h118v-667h-118v667z" />
    <glyph glyph-name="m" unicode="m" horiz-adv-x="852" 
d="M58 469l113 -0.00292969l3 -53c6 6.66699 12.833 13.834 20.5 21.501s17 14.5 28 20.5s23.667 11 38 15s30.833 6 49.5 6c62 0 109 -22.667 141 -68c24 24.667 48.5 42.167 73.5 52.5s54.167 15.5 87.5 15.5c59.333 0 104.833 -17.5 136.5 -52.5
s47.5 -82.167 47.5 -141.5v-285h-118v284c0 30 -7.5 53.167 -22.5 69.5s-35.5 24.5 -61.5 24.5c-16 0 -30.667 -3.16699 -44 -9.5s-24.833 -15.166 -34.5 -26.499s-17 -24.5 -22 -39.5s-7.5 -31.167 -7.5 -48.5v-254h-118v284c0 30 -7.5 53.167 -22.5 69.5
s-35.5 24.5 -61.5 24.5c-16 0 -30.667 -3.16699 -44 -9.5s-24.833 -15.166 -34.5 -26.499s-17 -24.5 -22 -39.5s-7.5 -31.167 -7.5 -48.5v-254h-118v469z" />
    <glyph glyph-name="n" unicode="n" horiz-adv-x="551" 
d="M58 469h112.997l3 -53c6 6.66699 13.167 13.667 21.5 21s18.333 14.166 30 20.499s24.834 11.5 39.501 15.5s31.334 6 50.001 6c58.667 0 103.334 -17.5 134.001 -52.5s46 -82.167 46 -141.5v-285h-118v284c0 30 -8.16699 53.167 -24.5 69.5s-37.5 24.5 -63.5 24.5
c-16 0 -31 -3.16699 -45 -9.5s-26 -15.166 -36 -26.499s-17.833 -24.5 -23.5 -39.5s-8.5 -31.167 -8.5 -48.5v-254h-118v469z" />
    <glyph glyph-name="o" unicode="o" horiz-adv-x="576" 
d="M36 235c0 34 6.16699 66.167 18.5 96.5s29.5 56.833 51.5 79.5s48.5 40.667 79.5 54s65.167 20 102.5 20s71.5 -6.66699 102.5 -20s57.5 -31.333 79.5 -54s39.167 -49.167 51.5 -79.5s18.5 -62.5 18.5 -96.5s-6.16699 -66.167 -18.5 -96.5s-29.5 -57 -51.5 -80
s-48.5 -41.167 -79.5 -54.5s-65.167 -20 -102.5 -20s-71.5 6.66699 -102.5 20s-57.5 31.5 -79.5 54.5s-39.167 49.667 -51.5 80s-18.5 62.5 -18.5 96.5zM288 86c22.667 0 42.334 4.5 59.001 13.5s30.5 20.833 41.5 35.5s19.167 30.667 24.5 48s8 34.666 8 51.999
c0 16.667 -2.66699 33.834 -8 51.501s-13.5 33.667 -24.5 48s-24.833 26 -41.5 35s-36.334 13.5 -59.001 13.5s-42.334 -4.5 -59.001 -13.5s-30.5 -20.667 -41.5 -35s-19.167 -30.333 -24.5 -48s-8 -34.834 -8 -51.501c0 -17.333 2.66699 -34.666 8 -51.999
s13.5 -33.333 24.5 -48s24.833 -26.5 41.5 -35.5s36.334 -13.5 59.001 -13.5z" />
    <glyph glyph-name="p" unicode="p" horiz-adv-x="571" 
d="M58 469h114.002l3 -53c6 6.66699 13.5 13.667 22.5 21s19.667 14 32 20s26.333 11 42 15s33.167 6 52.5 6c36 0 67.167 -7 93.5 -21s48.166 -32.5 65.499 -55.5s30.333 -49.167 39 -78.5s13 -59.666 13 -90.999c0 -36.667 -5.33301 -68 -16 -94s-24 -48.667 -40 -68
c-26.667 -32 -55.834 -54.333 -87.501 -67s-64.167 -19 -97.5 -19c-15.333 0 -28.5 0.666992 -39.5 2s-21 3.16602 -30 5.49902s-17.333 5 -25 8l-24.5 9.5v-209h-117v669zM175.002 115c23.333 -19.333 58.666 -29.001 105.999 -29.001c21.333 0 40.333 4.16699 57 12.5
s30.834 19.333 42.501 33s20.5 29.167 26.5 46.5s9 35.333 9 54c0 20 -2.16699 38.667 -6.5 56s-11.333 32.5 -21 45.5s-22.167 23.333 -37.5 31s-34.333 11.5 -57 11.5c-18 0 -34.333 -3.83301 -49 -11.5s-27.167 -17.5 -37.5 -29.5s-18.333 -25.167 -24 -39.5
s-8.5 -28.166 -8.5 -41.499v-139z" />
    <glyph glyph-name="q" unicode="q" horiz-adv-x="555" 
d="M379 27c-9.33301 -9.33301 -23.833 -18.833 -43.5 -28.5s-44.167 -14.5 -73.5 -14.5c-36.667 0 -69 6.5 -97 19.5s-51.5 30.667 -70.5 53s-33.5 48.166 -43.5 77.499s-15 60.666 -15 93.999c0 34.667 6.16699 67.334 18.5 98.001s30 57.334 53 80.001
s50.833 40.5 83.5 53.5s69.334 19.5 110.001 19.5s78.167 -3.33301 112.5 -10s62.166 -13.667 83.499 -21v-648h-118v227zM379 367c-9.33301 3.33301 -18.9961 5.83105 -28.9961 7.49805s-25.667 2.5 -47 2.5c-26 0 -48.333 -3.83301 -67 -11.5s-33.834 -18 -45.501 -31
s-20.334 -28.5 -26.001 -46.5s-8.5 -37 -8.5 -57c0 -18 2.16699 -35.667 6.5 -53s11.166 -32.666 20.499 -45.999s21.166 -24.166 35.499 -32.499s31.5 -12.5 51.5 -12.5c36 0 63.167 8 81.5 24s27.5 44 27.5 84v172z" />
    <glyph glyph-name="r" unicode="r" horiz-adv-x="382" 
d="M58 469l113.002 -0.000976562l3 -59c5.33301 6.66699 12.166 14 20.499 22s18.166 15.333 29.499 22s24.5 12.334 39.5 17.001s32.167 7 51.5 7c11.333 0 21.5 -0.666992 30.5 -2s18.167 -3.66602 27.5 -6.99902l-24 -111c-8 3.33301 -16.167 5.66602 -24.5 6.99902
s-18.166 2 -29.499 2c-16 0 -31.333 -2.66699 -46 -8s-27.334 -13 -38.001 -23s-19.167 -22 -25.5 -36s-9.5 -29.667 -9.5 -47v-253h-118v469z" />
    <glyph glyph-name="s" unicode="s" horiz-adv-x="478" 
d="M106 134c14.667 -14.667 33.168 -26.833 55.501 -36.5s47.833 -14.5 76.5 -14.5c25.333 0 45.666 3.33301 60.999 10s23 17.667 23 33c0 6.66699 -1.33301 12.834 -4 18.501s-8.33398 11.167 -17.001 16.5s-20.667 10.666 -36 15.999s-36 11 -62 17
c-16 4 -32.667 9.33301 -50 16s-33.5 15.834 -48.5 27.501s-27.333 25.667 -37 42s-14.5 35.833 -14.5 58.5c0 23.333 5.66699 44.166 17 62.499s26.166 33.666 44.499 45.999s39 21.833 62 28.5s46.167 10 69.5 10c41.333 0 76.5 -4.33301 105.5 -13
s55.167 -21.667 78.5 -39l-61 -83c-12.667 9.33301 -29.334 17.833 -50.001 25.5s-45 11.5 -73 11.5s-47.5 -4.16699 -58.5 -12.5s-16.5 -18.5 -16.5 -30.5c0 -14.667 9.16699 -26.167 27.5 -34.5s46.833 -17.166 85.5 -26.499c24 -5.33301 45.5 -12 64.5 -20
s35.333 -18 49 -30s24.167 -26.167 31.5 -42.5s11 -35.833 11 -58.5s-5.33301 -43.167 -16 -61.5s-25.167 -33.833 -43.5 -46.5s-39.666 -22.5 -63.999 -29.5s-50.166 -10.5 -77.499 -10.5c-44 0 -83.667 6.16699 -119 18.5s-63.666 30.5 -84.999 54.5z" />
    <glyph glyph-name="t" unicode="t" horiz-adv-x="402" 
d="M98 373l-80.001 0.000976562v96h80v152h118v-152h126v-96h-126v-205c0 -26.667 4.5 -47.167 13.5 -61.5s23.5 -21.5 43.5 -21.5c18.667 0 33.5 2.66699 44.5 8s21.5 11.666 31.5 18.999l50 -73c-23.333 -19.333 -46.333 -33.166 -69 -41.499s-48 -12.5 -76 -12.5
c-28.667 0 -53 4.16699 -73 12.5s-36.167 20.166 -48.5 35.499s-21.166 33.833 -26.499 55.5s-8 45.5 -8 71.5v213z" />
    <glyph glyph-name="u" unicode="u" horiz-adv-x="551" 
d="M56 469h118.002v-284c0 -30 8.16699 -53.167 24.5 -69.5s37.5 -24.5 63.5 -24.5c16 0 31 3.16699 45 9.5s26 15.166 36 26.499s17.833 24.5 23.5 39.5s8.5 31.167 8.5 48.5v254h118v-469h-113l-3 53c-6 -6.66699 -13.333 -13.667 -22 -21s-18.667 -14.166 -30 -20.499
s-24.333 -11.5 -39 -15.5s-31.334 -6 -50.001 -6c-58.667 0 -103.334 17.5 -134.001 52.5s-46 82.167 -46 141.5v285z" />
    <glyph glyph-name="v" unicode="v" horiz-adv-x="527" 
d="M5 469h136l126 -336l126 336h129l-198 -469h-120z" />
    <glyph glyph-name="w" unicode="w" horiz-adv-x="749" 
d="M9 469h130l90 -326l99 326h99l100 -326l89 326h124l-159 -469h-114l-96 283l-93 -283h-110z" />
    <glyph glyph-name="x" unicode="x" horiz-adv-x="507" 
d="M183 237l-170 232h149l94 -136l95 136h133l-165 -220l183 -249h-149l-107 153l-108 -153h-133z" />
    <glyph glyph-name="y" unicode="y" horiz-adv-x="527" 
d="M77 -93c6.66699 -5.33301 14.002 -10.499 22.002 -15.499s18 -7.5 30 -7.5c16 0 29.167 6.66699 39.5 20s21.166 34 32.499 62l15 38l-211 465h136l134 -321l118 321h129l-196 -469l-28 -72c-9.33301 -24.667 -20.833 -47.5 -34.5 -68.5s-30.5 -38.167 -50.5 -51.5
s-45.333 -20 -76 -20c-26.667 0 -48.834 3.16699 -66.501 9.5s-33.167 15.166 -46.5 26.499z" />
    <glyph glyph-name="z" unicode="z" horiz-adv-x="472" 
d="M46 90l239 280h-232v99h379v-92l-247 -281h247v-96h-386v90z" />
    <glyph glyph-name="braceleft" unicode="{" horiz-adv-x="304" 
d="M104 199c-1.33301 20.667 -7.5 37.999 -18.5 51.999s-29.167 21 -54.5 21v70c25.333 0 43.5 7 54.5 21s17.167 31.333 18.5 52l14 170c2.66699 29.333 7.66699 53.666 15 72.999s18.666 35.333 33.999 48h124c-12 -12 -22.667 -28.5 -32 -49.5
s-14.666 -41.167 -15.999 -60.5l-16 -195c-2 -24 -9.5 -44.333 -22.5 -61s-28.833 -27.667 -47.5 -33c18.667 -5.33301 34.5 -16.333 47.5 -33s20.5 -37 22.5 -61l16 -195c1.33301 -19.333 6.66602 -39.666 15.999 -60.999s20 -38 32 -50h-124
c-15.333 12.667 -26.666 28.834 -33.999 48.501s-12.333 44.167 -15 73.5z" />
    <glyph glyph-name="bar" unicode="|" horiz-adv-x="245" 
d="M68 833h109v-997h-109v997z" />
    <glyph glyph-name="braceright" unicode="}" horiz-adv-x="304" 
d="M13 -93c12 12 22.667 28.668 32 50.001s14.666 41.666 15.999 60.999l16 195c2 24 9.5 44.333 22.5 61s28.833 27.667 47.5 33c-18.667 5.33301 -34.5 16.333 -47.5 33s-20.5 37 -22.5 61l-16 195c-1.33301 19.333 -6.66602 39.5 -15.999 60.5s-20 37.5 -32 49.5h124
c15.333 -12.667 26.666 -28.667 33.999 -48s12.333 -43.666 15 -72.999l14 -170c1.33301 -20.667 7.5 -38 18.5 -52s29.167 -21 54.5 -21v-70c-25.333 0 -43.5 -7 -54.5 -21s-17.167 -31.333 -18.5 -52l-14 -170c-2.66699 -29.333 -7.66699 -53.833 -15 -73.5
s-18.666 -35.834 -33.999 -48.501h-124z" />
    <glyph glyph-name="asciitilde" unicode="~" horiz-adv-x="499" 
d="M38 314c6 6.66699 13.6689 13.834 23.002 21.501s19.666 14.667 30.999 21s23.666 11.666 36.999 15.999s27.333 6.5 42 6.5c15.333 0 28.666 -2.33301 39.999 -7s22.166 -10 32.499 -16s21 -11.333 32 -16s23.833 -7 38.5 -7c12 0 23 1.5 33 4.5s18.833 6.5 26.5 10.5
s14.5 8.33301 20.5 13s11.667 8.66699 17 12l50 -76c-6 -6.66699 -13.5 -14 -22.5 -22s-19.167 -15.333 -30.5 -22s-23.666 -12.167 -36.999 -16.5s-27.333 -6.5 -42 -6.5c-15.333 0 -28.666 2.5 -39.999 7.5s-22.333 10.5 -33 16.5s-21.5 11.5 -32.5 16.5
s-23.833 7.5 -38.5 7.5c-24.667 0 -44.5 -4.83301 -59.5 -14.5s-27.5 -18.167 -37.5 -25.5z" />
    <glyph glyph-name="uni00A0" unicode="&#xa0;" horiz-adv-x="200" 
 />
    <glyph glyph-name="exclamdown" unicode="&#xa1;" horiz-adv-x="279" 
d="M76 260h127l2 -458h-131zM68 469h143v-138h-143v138z" />
    <glyph glyph-name="cent" unicode="&#xa2;" horiz-adv-x="545" 
d="M277 67c-32.667 4.66699 -61.665 14.168 -86.998 28.501s-46.833 32.333 -64.5 54s-31 46.5 -40 74.5s-13.5 58 -13.5 90c0 30 4.83301 58.833 14.5 86.5s23.5 52.334 41.5 74.001s39.5 40 64.5 55s53.167 25.167 84.5 30.5v89h75v-87
c32 -3.33301 61.167 -11.333 87.5 -24s49.166 -29.334 68.499 -50.001l-75 -76c-10.667 12 -22.667 22.167 -36 30.5s-28.333 14.166 -45 17.499v-291c34.667 6 63 22 85 48l70 -76c-19.333 -21.333 -41.833 -38.5 -67.5 -51.5s-54.834 -21.167 -87.501 -24.5v-84h-75v86z
M277.002 453.001c-29.333 -11.333 -51.001 -30.3301 -65.001 -56.9971s-21 -54 -21 -82c0 -12.667 1.83301 -25.834 5.5 -39.501s9 -26.834 16 -39.501s15.833 -24.334 26.5 -35.001s23.334 -19 38.001 -25v278z" />
    <glyph glyph-name="sterling" unicode="&#xa3;" horiz-adv-x="545" 
d="M117 269l-75.9951 -0.00195312v96h76v77c0 18 3 39 9 63s16.833 46.5 32.5 67.5s37.167 38.833 64.5 53.5s62.666 22 105.999 22c26 0 48.667 -2.66699 68 -8s36.166 -11.666 50.499 -18.999s26.666 -15.5 36.999 -24.5l26.5 -23.5l-77 -83
c-7.33301 7.33301 -14.5 13.833 -21.5 19.5s-14.333 10.5 -22 14.5s-16.334 7.16699 -26.001 9.5s-20.834 3.5 -33.501 3.5c-16 0 -29.667 -3.33301 -41 -10s-20.5 -15.667 -27.5 -27s-12 -24.166 -15 -38.499s-4.5 -28.833 -4.5 -43.5v-53h194v-96h-194v-157h274v-112h-400
v269z" />
    <glyph glyph-name="currency" unicode="&#xa4;" horiz-adv-x="545" 
d="M95 226c-18.667 31.333 -27.998 65.666 -27.998 102.999c0 36.667 9.33301 71 28 103l-63 64l69 69l63 -63c15.333 10 32.166 17.833 50.499 23.5s37.5 8.5 57.5 8.5c19.333 0 38.166 -2.83301 56.499 -8.5s35.5 -13.5 51.5 -23.5l63 63l69 -69l-64 -64
c9.33301 -15.333 16.5 -31.666 21.5 -48.999s7.5 -35.333 7.5 -54c0 -19.333 -2.5 -37.5 -7.5 -54.5s-12.167 -33.167 -21.5 -48.5l64 -64l-69 -69l-63 62c-33.333 -20.667 -69.333 -31 -108 -31c-40 0 -76 10.333 -108 31l-63 -62l-69 69zM163.002 329
c0 -15.333 2.83301 -29.5 8.5 -42.5s13.5 -24.5 23.5 -34.5s21.5 -17.833 34.5 -23.5s27.167 -8.5 42.5 -8.5c14.667 0 28.667 2.83301 42 8.5s25 13.5 35 23.5s17.833 21.5 23.5 34.5s8.5 27.167 8.5 42.5c0 14.667 -2.83301 28.667 -8.5 42s-13.5 25 -23.5 35
s-21.667 17.833 -35 23.5s-27.333 8.5 -42 8.5c-15.333 0 -29.5 -2.83301 -42.5 -8.5s-24.5 -13.5 -34.5 -23.5s-17.833 -21.667 -23.5 -35s-8.5 -27.333 -8.5 -42z" />
    <glyph glyph-name="yen" unicode="&#xa5;" horiz-adv-x="545" 
d="M74 190h139v77h-139v74h97l-165 290h138l132 -266l131 266h132l-165 -290h108v-74h-149v-77h149v-74h-149v-116h-120v116h-139v74z" />
    <glyph glyph-name="brokenbar" unicode="&#xa6;" horiz-adv-x="245" 
d="M68 215h109v-379h-109v379zM68 833h109v-379h-109v379z" />
    <glyph glyph-name="section" unicode="&#xa7;" horiz-adv-x="452" 
d="M141 327c-33.333 21.333 -57.8281 46.833 -73.4951 76.5s-23.167 60.167 -22.5 91.5c0 24 4.16699 47.5 12.5 70.5s20.666 43.333 36.999 61s36.666 31.834 60.999 42.501s52.166 16 83.499 16c18 0 34.667 -2.16699 50 -6.5s29.166 -9.5 41.499 -15.5
s23.166 -12.167 32.499 -18.5s16.666 -11.5 21.999 -15.5l-57 -86c-17.333 12 -32.666 20.833 -45.999 26.5s-28.333 8.5 -45 8.5c-12 0 -22.833 -2.16699 -32.5 -6.5s-17.667 -9.83301 -24 -16.5s-11.333 -14.334 -15 -23.001s-5.5 -17 -5.5 -25
c0 -7.33301 0.5 -14.5 1.5 -21.5s3.33301 -14 7 -21s9 -14 16 -21s16.5 -14.5 28.5 -22.5l193 -131l-64 -95zM114.005 -70c17.333 -12 32.6611 -20.833 45.9941 -26.5s28.333 -8.5 45 -8.5c12 0 22.833 2.16699 32.5 6.5s17.667 9.83301 24 16.5s11.333 14.334 15 23.001
s5.5 17 5.5 25c0 14.667 -2.83301 28.667 -8.5 42s-20.5 28 -44.5 44l-193 131l64 95l201 -132c33.333 -21.333 57.833 -46.833 73.5 -76.5s23.167 -60.167 22.5 -91.5c0 -24 -4.16699 -47.5 -12.5 -70.5s-20.666 -43.333 -36.999 -61s-36.666 -31.834 -60.999 -42.501
s-52.166 -16 -83.499 -16c-18 0 -34.667 2.16699 -50 6.5s-29.166 9.5 -41.499 15.5s-23.166 12.167 -32.499 18.5s-16.666 11.5 -21.999 15.5z" />
    <glyph glyph-name="dieresis" unicode="&#xa8;" horiz-adv-x="346" 
d="M207 666h115v-109h-115v109zM22 666h115v-109h-115v109z" />
    <glyph glyph-name="copyright" unicode="&#xa9;" horiz-adv-x="809" 
d="M404 -14c-48.667 0 -94 9 -136 27s-78.5 42.833 -109.5 74.5s-55.5 68.667 -73.5 111s-27 87.833 -27 136.5s9 94.167 27 136.5s42.5 79.166 73.5 110.499s67.667 56.166 110 74.499s87.833 27.5 136.5 27.5s94 -9.16699 136 -27.5s78.5 -43.166 109.5 -74.499
s55.5 -68.166 73.5 -110.499s27 -87.833 27 -136.5s-9 -94.167 -27 -136.5s-42.667 -79.333 -74 -111s-68 -56.5 -110 -74.5s-87.333 -27 -136 -27zM404 69c36.667 0 70.667 6.83301 102 20.5s58.5 32.334 81.5 56.001s41 51.667 54 84s19.5 67.5 19.5 105.5
c0 37.333 -6.5 72.166 -19.5 104.499s-31 60.5 -54 84.5s-50.167 42.833 -81.5 56.5s-65 20.5 -101 20.5c-36.667 0 -70.667 -6.83301 -102 -20.5s-58.5 -32.5 -81.5 -56.5s-41.167 -52.167 -54.5 -84.5s-20 -67.166 -20 -104.499c0 -38 6.5 -73.167 19.5 -105.5
s31 -60.333 54 -84s50.167 -42.334 81.5 -56.001s65.333 -20.5 102 -20.5zM562 227c-15.333 -22 -36 -40.8301 -62 -56.4971s-56 -23.5 -90 -23.5c-28.667 0 -54.667 4.83301 -78 14.5s-43.333 23 -60 40s-29.5 37.167 -38.5 60.5s-13.5 48.666 -13.5 75.999
c0 26 4.66699 50.5 14 73.5s22.5 43 39.5 60s37 30.5 60 40.5s48.5 15 76.5 15c34 0 64 -7.83301 90 -23.5s46.667 -34.5 62 -56.5l-65 -50c-8 11.333 -18.833 22 -32.5 32s-30.167 15 -49.5 15c-31.333 0 -56.166 -10.333 -74.499 -31s-27.5 -46 -27.5 -76
c0 -14 2.5 -27.333 7.5 -40s12 -23.834 21 -33.501s19.667 -17.334 32 -23.001s26.166 -8.5 41.499 -8.5c19.333 0 35.833 5 49.5 15s24.5 20.667 32.5 32z" />
    <glyph glyph-name="ordfeminine" unicode="&#xaa;" horiz-adv-x="379" 
d="M48 606c16.667 12.667 34.999 22.8311 54.999 30.498s47.667 11.5 83 11.5c42 0 75.5 -11 100.5 -33s37.5 -50.333 37.5 -85v-208h-81c-0.666992 3.33301 -1 6.33301 -1 9s-0.166992 5.33398 -0.5 8.00098s-0.5 5.33398 -0.5 8.00098c-8 -8 -20.167 -15.5 -36.5 -22.5
s-32.166 -10.5 -47.499 -10.5c-14.667 0 -29 1.83301 -43 5.5s-26.5 9.66699 -37.5 18s-20 19 -27 32s-10.5 28.5 -10.5 46.5c0 37.333 13 64.5 39 81.5s60 25.5 102 25.5c17.333 0 37.666 -1 60.999 -3v8c0 13.333 -4.5 24.5 -13.5 33.5s-23.833 13.5 -44.5 13.5
c-23.333 0 -41.666 -3 -54.999 -9s-26 -12.667 -38 -20zM240.999 453.997c-6.66699 1.33301 -15.6699 2.16699 -27.0029 2.5s-20.666 0.5 -27.999 0.5c-23.333 0 -40.166 -3.5 -50.499 -10.5s-15.5 -16.167 -15.5 -27.5c0 -13.333 4.33301 -22.5 13 -27.5
s22.334 -7.5 41.001 -7.5c18 0 33.667 5.33301 47 16s20 22.667 20 36v18z" />
    <glyph glyph-name="guillemotleft" unicode="&#xab;" horiz-adv-x="536" 
d="M58 241l104 194h115l-99 -194l99 -194h-115zM254 241l104 194h115l-99 -194l99 -194h-115z" />
    <glyph glyph-name="logicalnot" unicode="&#xac;" horiz-adv-x="545" 
d="M74 371h398v-245h-100v146h-298v99z" />
    <glyph glyph-name="uni00AD" unicode="&#xad;" horiz-adv-x="441" 
d="M68 335h305v-112h-305v112z" />
    <glyph glyph-name="registered" unicode="&#xae;" horiz-adv-x="809" 
d="M274 511l145.001 -0.000976562c23.333 0 43.166 -3.33301 59.499 -10s29.666 -15.167 39.999 -25.5s17.833 -21.666 22.5 -33.999s7 -23.833 7 -34.5c0 -20 -5.16699 -38.833 -15.5 -56.5s-26.166 -31.5 -47.499 -41.5l83 -143h-92l-75 131h-44v-131h-83v345z
M416.001 360.999c18 0 30.499 3.83398 37.499 11.501s10.5 17.167 10.5 28.5c0 13.333 -3.66699 23.666 -11 30.999s-19.666 11 -36.999 11h-59v-82h59zM404 -14c-48.667 0 -94 9 -136 27s-78.5 42.833 -109.5 74.5s-55.5 68.667 -73.5 111s-27 87.833 -27 136.5
s9 94.167 27 136.5s42.5 79.166 73.5 110.499s67.667 56.166 110 74.499s87.833 27.5 136.5 27.5s94 -9.16699 136 -27.5s78.5 -43.166 109.5 -74.499s55.5 -68.166 73.5 -110.499s27 -87.833 27 -136.5s-9 -94.167 -27 -136.5s-42.667 -79.333 -74 -111
s-68 -56.5 -110 -74.5s-87.333 -27 -136 -27zM404 69c36.667 0 70.667 6.83301 102 20.5s58.5 32.334 81.5 56.001s41 51.667 54 84s19.5 67.5 19.5 105.5c0 37.333 -6.5 72.166 -19.5 104.499s-31 60.5 -54 84.5s-50.167 42.833 -81.5 56.5s-65 20.5 -101 20.5
c-36.667 0 -70.667 -6.83301 -102 -20.5s-58.5 -32.5 -81.5 -56.5s-41.167 -52.167 -54.5 -84.5s-20 -67.166 -20 -104.499c0 -38 6.5 -73.167 19.5 -105.5s31 -60.333 54 -84s50.167 -42.334 81.5 -56.001s65.333 -20.5 102 -20.5z" />
    <glyph glyph-name="macron" unicode="&#xaf;" horiz-adv-x="347" 
d="M43 649h261v-92h-261v92z" />
    <glyph glyph-name="degree" unicode="&#xb0;" horiz-adv-x="337" 
d="M28 530c0 20 3.66699 38.333 11 55s17.333 31 30 43s27.5 21.5 44.5 28.5s35.167 10.5 54.5 10.5c20 0 38.5 -3.5 55.5 -10.5s31.833 -16.5 44.5 -28.5s22.667 -26.333 30 -43s11 -34.667 11 -54c0 -20 -3.66699 -38.333 -11 -55s-17.333 -31 -30 -43
s-27.5 -21.5 -44.5 -28.5s-35.167 -10.5 -54.5 -10.5c-20 0 -38.5 3.5 -55.5 10.5s-31.833 16.5 -44.5 28.5s-22.667 26.333 -30 43s-11 34.667 -11 54zM169 467c18 0 32.833 6 44.5 18s17.5 27.333 17.5 46c0 18 -5.83301 33 -17.5 45s-26.834 18 -45.501 18
c-18 0 -32.833 -6 -44.5 -18s-17.5 -27.333 -17.5 -46c0 -18 5.83301 -33 17.5 -45s26.834 -18 45.501 -18z" />
    <glyph glyph-name="plusminus" unicode="&#xb1;" horiz-adv-x="545" 
d="M74 99h398v-99h-398v99zM74 371h149v147h100v-147h149v-99h-149v-136h-100v136h-149v99z" />
    <glyph glyph-name="twosuperior" unicode="&#xb2;" 
d="M49 340c0 17.333 4.16699 32.835 12.5 46.502s18.5 26.167 30.5 37.5s25.333 21.666 40 30.999l40 26.5c12 8.33301 22.167 16.5 30.5 24.5s12.5 16.333 12.5 25c0 12 -3.66699 20.5 -11 25.5s-16.666 7.5 -27.999 7.5c-15.333 0 -32 -3.66699 -50 -11
s-33.667 -15.333 -47 -24l-36 70c16.667 11.333 37.667 22.166 63 32.499s52.666 15.5 81.999 15.5c44 0 76.333 -10.167 97 -30.5s31 -45.5 31 -75.5c0 -24 -5.66699 -43.5 -17 -58.5s-25 -28.167 -41 -39.5s-33 -22 -51 -32s-33.667 -22 -47 -36h157v-80h-268v45z" />
    <glyph glyph-name="threesuperior" unicode="&#xb3;" 
d="M74 395c12 -9.33301 25.5029 -17.001 40.5029 -23.001s30.833 -9 47.5 -9c16 0 29 3.33301 39 10s15 17 15 31c0 17.333 -6.33301 28.666 -19 33.999s-28.334 8 -47.001 8c-8.66699 0 -17.334 -0.666992 -26.001 -2s-16.334 -3 -23.001 -5l-16 35l106 84h-133v79h240v-76
l-77 -61c34.667 -6.66699 58.5 -19.667 71.5 -39s19.5 -41.666 19.5 -66.999c0 -32 -13.5 -58.167 -40.5 -78.5s-63.167 -30.5 -108.5 -30.5c-28 0 -53.167 3.83301 -75.5 11.5s-41.5 17.834 -57.5 30.501z" />
    <glyph glyph-name="acute" unicode="&#xb4;" horiz-adv-x="502" 
d="M259 682h126l-79 -142h-95z" />
    <glyph glyph-name="mu" unicode="&#xb5;" horiz-adv-x="551" 
d="M59 469l118 0.000976562v-284c0 -30 8.16699 -53.167 24.5 -69.5s37.5 -24.5 63.5 -24.5c32.667 0 59.667 11.167 81 33.5s32 50.833 32 85.5v259h118v-469h-113l-3 48c-12 -13.333 -28.667 -26.333 -50 -39s-47 -19 -77 -19c-13.333 0 -25.5 1.66699 -36.5 5
s-24.167 9.66602 -39.5 18.999v-214h-118v669z" />
    <glyph glyph-name="paragraph" unicode="&#xb6;" horiz-adv-x="557" 
d="M362 667h122v-789h-122v789zM273 299c-33.333 0 -64.333 3.00098 -93 9.00098s-53.5 16.167 -74.5 30.5s-37.5 33.166 -49.5 56.499s-18 52.666 -18 87.999c0 34.667 6 63.834 18 87.501s28.5 42.667 49.5 57s45.833 24.5 74.5 30.5s59.667 9 93 9h30v-368h-30z
M183 255.001c13.333 -4 28.167 -6.66699 44.5 -8s31.5 -2 45.5 -2h30v-367h-120v377z" />
    <glyph glyph-name="periodcentered" unicode="&#xb7;" horiz-adv-x="279" 
d="M68 392h143v-138h-143v138z" />
    <glyph glyph-name="cedilla" unicode="&#xb8;" horiz-adv-x="705" 
d="M105 -131c12.667 -4.66699 24.666 -7.83398 35.999 -9.50098s22.333 -2.5 33 -2.5c38.667 0 58 10.667 58 32c0 8 -4.16699 15 -12.5 21s-22.166 9 -41.499 9c-11.333 0 -22.5 -1 -33.5 -3s-20.833 -4.66699 -29.5 -8l11 67c12 3.33301 24.167 6.16602 36.5 8.49902
s28.166 3.5 47.499 3.5c36 0 64.167 -8.66699 84.5 -26s30.5 -39.666 30.5 -66.999c0 -17.333 -3.66699 -32.666 -11 -45.999s-17.166 -24.5 -29.499 -33.5s-26.333 -15.667 -42 -20s-31.834 -6.5 -48.501 -6.5c-16 0 -30.167 0.666992 -42.5 2s-23.166 3 -32.499 5
c-10.667 2 -19.667 4.33301 -27 7z" />
    <glyph glyph-name="onesuperior" unicode="&#xb9;" 
d="M173 533l-78 -39l-36 72l126 71h86v-342h-98v238z" />
    <glyph glyph-name="ordmasculine" unicode="&#xba;" horiz-adv-x="423" 
d="M43 481c0 24 4.16699 46.167 12.5 66.5s20 38 35 53s32.833 26.667 53.5 35s43.334 12.5 68.001 12.5c24 0 46.333 -4.16699 67 -12.5s38.5 -20 53.5 -35s26.667 -32.667 35 -53s12.5 -42.5 12.5 -66.5s-4.16699 -46.167 -12.5 -66.5s-20 -38 -35 -53
s-32.833 -26.667 -53.5 -35s-43 -12.5 -67 -12.5c-24.667 0 -47.334 4.16699 -68.001 12.5s-38.5 20 -53.5 35s-26.667 32.667 -35 53s-12.5 42.5 -12.5 66.5zM212 394c25.333 0 44.333 8.66699 57 26s19 37.666 19 60.999s-6.33301 43.666 -19 60.999s-31.667 26 -57 26
s-44.5 -8.66699 -57.5 -26s-19.5 -37.666 -19.5 -60.999s6.5 -43.666 19.5 -60.999s32.167 -26 57.5 -26z" />
    <glyph glyph-name="guillemotright" unicode="&#xbb;" horiz-adv-x="536" 
d="M162 241l-99 194h115l104 -194l-104 -194h-115zM358 241l-99 194h115l104 -194l-104 -194h-115z" />
    <glyph glyph-name="onequarter" unicode="&#xbc;" horiz-adv-x="925" 
d="M200 533l-78 -39l-36 72l126 71h86v-342h-98v238zM616 630h107l-406 -630h-107zM535 132l172 211h96v-211h41v-71h-41v-60h-87v60h-181v71zM716 132v122l-103 -122h103z" />
    <glyph glyph-name="onehalf" unicode="&#xbd;" horiz-adv-x="925" 
d="M180 533l-78 -39l-36 72l126 71h86v-342h-98v238zM596 630h107l-406 -630h-107zM591 46c0 17.333 4.16699 32.835 12.5 46.502s18.5 26.167 30.5 37.5s25.333 21.666 40 30.999l40 26.5c12 8.33301 22.167 16.5 30.5 24.5s12.5 16.333 12.5 25
c0 12 -3.66699 20.5 -11 25.5s-16.666 7.5 -27.999 7.5c-15.333 0 -32 -3.66699 -50 -11s-33.667 -15.333 -47 -24l-36 70c16.667 11.333 37.667 22.166 63 32.499s52.666 15.5 81.999 15.5c44 0 76.333 -10.167 97 -30.5s31 -45.5 31 -75.5c0 -24 -5.66699 -43.5 -17 -58.5
s-25 -28.167 -41 -39.5s-33 -22 -51 -32s-33.667 -22 -47 -36h157v-80h-268v45z" />
    <glyph glyph-name="threequarters" unicode="&#xbe;" horiz-adv-x="925" 
d="M114 395c12 -9.33301 25.5029 -17.001 40.5029 -23.001s30.833 -9 47.5 -9c16 0 29 3.33301 39 10s15 17 15 31c0 17.333 -6.33301 28.666 -19 33.999s-28.334 8 -47.001 8c-8.66699 0 -17.334 -0.666992 -26.001 -2s-16.334 -3 -23.001 -5l-16 35l106 84h-133v79h240
v-76l-77 -61c34.667 -6.66699 58.5 -19.667 71.5 -39s19.5 -41.666 19.5 -66.999c0 -32 -13.5 -58.167 -40.5 -78.5s-63.167 -30.5 -108.5 -30.5c-28 0 -53.167 3.83301 -75.5 11.5s-41.5 17.834 -57.5 30.501zM634.003 629.999h107l-406 -630h-107zM553.003 131.999
l172 211h96v-211h41v-71h-41v-60h-87v60h-181v71zM734.003 131.999v122l-103 -122h103z" />
    <glyph glyph-name="questiondown" unicode="&#xbf;" horiz-adv-x="512" 
d="M229 469h143v-138h-143v138zM489 -117c-3.33301 -4.66699 -10 -12.3301 -20 -22.9971s-23.667 -21.5 -41 -32.5s-38.833 -20.833 -64.5 -29.5s-55.5 -13 -89.5 -13c-32.667 0 -61.667 4.66699 -87 14s-46.833 22 -64.5 38s-31.167 34.5 -40.5 55.5s-14 42.833 -14 65.5
c0 37.333 7.33301 67.666 22 90.999s36.667 45.666 66 66.999l38 28c10.667 8 19.5 16.5 26.5 25.5s12.167 18.833 15.5 29.5s5 23.667 5 39v22h120v-22c0 -12.667 -0.833008 -26.167 -2.5 -40.5s-5.16699 -29 -10.5 -44s-13.666 -29.833 -24.999 -44.5
s-26.333 -28.667 -45 -42l-32 -23c-10.667 -8 -20.334 -16.333 -29.001 -25s-15.667 -17.834 -21 -27.501s-8 -19.834 -8 -30.501c0 -20 7.66699 -36.5 23 -49.5s36.666 -19.5 63.999 -19.5c18 0 34.667 2.66699 50 8s28.833 11.333 40.5 18s21.334 13.334 29.001 20.001
s13.167 11.667 16.5 15z" />
    <glyph glyph-name="Agrave" unicode="&#xc0;" horiz-adv-x="646" 
d="M258 667h130l253 -667h-140l-58 169h-248l-58 -169h-132zM407 273l-88 259l-89 -259h177zM179 873h146l73 -156h-105z" />
    <glyph glyph-name="Aacute" unicode="&#xc1;" horiz-adv-x="646" 
d="M258 667h130l253 -667h-140l-58 169h-248l-58 -169h-132zM407 273l-88 259l-89 -259h177zM338 873h146l-114 -156h-105z" />
    <glyph glyph-name="Acircumflex" unicode="&#xc2;" horiz-adv-x="646" 
d="M258 667h130l253 -667h-140l-58 169h-248l-58 -169h-132zM407 273l-88 259l-89 -259h177zM267 873h111l110 -156h-104l-62 82l-61 -82h-104z" />
    <glyph glyph-name="Atilde" unicode="&#xc3;" horiz-adv-x="646" 
d="M258 667h130l253 -667h-140l-58 169h-248l-58 -169h-132zM407 273l-88 259l-89 -259h177zM121 804c6 6 13.334 12.6631 22.001 19.9961s18.5 14 29.5 20s22.833 11 35.5 15s26.334 6 41.001 6s27.334 -2.16699 38.001 -6.5s20.834 -9.16602 30.501 -14.499
s19.667 -10.166 30 -14.499s22.5 -6.5 36.5 -6.5c23.333 0 42.166 4.33301 56.499 13s26.166 16.667 35.499 24l49 -75c-6 -6 -13.333 -12.667 -22 -20s-18.334 -14.166 -29.001 -20.499s-22.334 -11.666 -35.001 -15.999s-26.334 -6.5 -41.001 -6.5
s-27.334 2.33301 -38.001 7s-21 9.66699 -31 15s-20.167 10.333 -30.5 15s-22.5 7 -36.5 7c-23.333 0 -42.166 -4.33301 -56.499 -13s-26.166 -16.667 -35.499 -24z" />
    <glyph glyph-name="Adieresis" unicode="&#xc4;" horiz-adv-x="646" 
d="M258 667h130l253 -667h-140l-58 169h-248l-58 -169h-132zM407 273l-88 259l-89 -259h177zM367 854h123v-117h-123v117zM154 854h123v-117h-123v117z" />
    <glyph glyph-name="Aring" unicode="&#xc5;" horiz-adv-x="646" 
d="M251 649c-17.333 11.333 -31.333 26.167 -42 44.5s-16 39.166 -16 62.499c0 18.667 3.33301 35.834 10 51.501s16 29.167 28 40.5s26 20.166 42 26.499s33 9.5 51 9.5c18.667 0 36 -3.16699 52 -9.5s30 -15.166 42 -26.499s21.333 -24.833 28 -40.5s10 -32.5 10 -50.5
c0 -24 -5.5 -45.333 -16.5 -64s-25.833 -33.667 -44.5 -45l246 -648h-140l-58 169h-248l-58 -169h-132zM407 273.001l-88 259l-89 -259h177zM325 704.001c15.333 0 27.5 4.83301 36.5 14.5s13.5 22.5 13.5 38.5c0 15.333 -4.5 27.833 -13.5 37.5s-21.5 14.5 -37.5 14.5
c-15.333 0 -27.5 -4.83301 -36.5 -14.5s-13.5 -22.5 -13.5 -38.5c0 -15.333 4.5 -27.833 13.5 -37.5s21.5 -14.5 37.5 -14.5z" />
    <glyph glyph-name="AE" unicode="&#xc6;" horiz-adv-x="954" 
d="M383 667h505v-111h-308v-157h227v-112h-227v-174h331v-113h-455v169h-230l-97 -169h-129zM456 272v298l-171 -298h171z" />
    <glyph glyph-name="Ccedilla" unicode="&#xc7;" horiz-adv-x="680" 
d="M657 122c-10 -15.333 -23.8301 -31.001 -41.4971 -47.001s-38.5 -30.833 -62.5 -44.5s-50.333 -24.834 -79 -33.501s-59 -13 -91 -13c-50 0 -95.667 8.66699 -137 26s-77 41.5 -107 72.5s-53.333 67.5 -70 109.5s-25 88 -25 138c0 48.667 8.33301 94.334 25 137.001
s40.167 80 70.5 112s66.5 57.333 108.5 76s88.333 28 139 28c32.667 0 62.667 -3.5 90 -10.5s52.166 -16.5 74.499 -28.5s42.166 -26.167 59.499 -42.5s32.666 -33.833 45.999 -52.5l-89 -79c-21.333 30.667 -46.166 55.334 -74.499 74.001s-63.833 28 -106.5 28
c-32.667 0 -62 -6.5 -88 -19.5s-48.167 -30.333 -66.5 -52s-32.333 -47 -42 -76s-14.5 -59.5 -14.5 -91.5s4.83301 -62 14.5 -90s23.5 -52.333 41.5 -73s39.5 -37 64.5 -49s53.167 -18 84.5 -18c28.667 0 53.167 3.33301 73.5 10s37.666 15 51.999 25s26.333 20.5 36 31.5
s18.5 20.5 26.5 28.5zM264.003 -148.001c12.667 -4.66699 24.8301 -7.83398 36.4971 -9.50098s22.834 -2.5 33.501 -2.5c17.333 0 31 2.5 41 7.5s15 12.5 15 22.5c0 8 -4.16699 14.833 -12.5 20.5s-21.5 8.5 -39.5 8.5c-11.333 0 -22.666 -1 -33.999 -3
s-21.333 -4.66699 -30 -8l11 68c12 3.33301 24.333 6.16602 37 8.49902s28.667 3.5 48 3.5c36 0 64.5 -8.66699 85.5 -26s31.5 -39.666 31.5 -66.999c0 -17.333 -3.83301 -32.666 -11.5 -45.999s-17.667 -24.5 -30 -33.5s-26.5 -15.667 -42.5 -20s-32.333 -6.5 -49 -6.5
c-16 0 -30.167 0.666992 -42.5 2s-23.166 3 -32.499 5c-10.667 2 -20 4.33301 -28 7z" />
    <glyph glyph-name="Egrave" unicode="&#xc8;" horiz-adv-x="568" 
d="M70 667h432v-111h-306v-157h225v-112h-225v-174h329v-113h-455v667zM150 873h146l73 -156h-105z" />
    <glyph glyph-name="Eacute" unicode="&#xc9;" horiz-adv-x="568" 
d="M70 667h432v-111h-306v-157h225v-112h-225v-174h329v-113h-455v667zM303 873h146l-114 -156h-105z" />
    <glyph glyph-name="Ecircumflex" unicode="&#xca;" horiz-adv-x="568" 
d="M70 667h432v-111h-306v-157h225v-112h-225v-174h329v-113h-455v667zM230 873h111l110 -156h-104l-62 82l-61 -82h-104z" />
    <glyph glyph-name="Edieresis" unicode="&#xcb;" horiz-adv-x="568" 
d="M70 667h432v-111h-306v-157h225v-112h-225v-174h329v-113h-455v667zM330 854h123v-117h-123v117zM117 854h123v-117h-123v117z" />
    <glyph glyph-name="Igrave" unicode="&#xcc;" horiz-adv-x="266" 
d="M70 667h126v-667h-126v667zM-22 873h146l73 -156h-105z" />
    <glyph glyph-name="Iacute" unicode="&#xcd;" horiz-adv-x="266" 
d="M70 667h126v-667h-126v667zM143 873h146l-114 -156h-105z" />
    <glyph glyph-name="Icircumflex" unicode="&#xce;" horiz-adv-x="266" 
d="M70 667h126v-667h-126v667zM78 873h111l110 -156h-104l-62 82l-61 -82h-104z" />
    <glyph glyph-name="Idieresis" unicode="&#xcf;" horiz-adv-x="266" 
d="M70 667h126v-667h-126v667zM178 854h123v-117h-123v117zM-35 854h123v-117h-123v117z" />
    <glyph glyph-name="Eth" unicode="&#xd0;" horiz-adv-x="726" 
d="M70 287h-66.998v102h67v278h249c52 0 99.667 -6.66699 143 -20s80.666 -33.666 111.999 -60.999s55.666 -62.333 72.999 -105s26 -93 26 -151c0 -55.333 -8.83301 -103.5 -26.5 -144.5s-42.334 -75.333 -74.001 -103s-69.167 -48.334 -112.5 -62.001
s-90.666 -20.5 -141.999 -20.5h-248v287zM310.002 113c76 0 134 18.332 174 54.999s60 90.334 60 161.001c0 70 -18.5 125.333 -55.5 166s-96.5 61 -178.5 61h-114v-167h155v-102h-155v-174h114z" />
    <glyph glyph-name="Ntilde" unicode="&#xd1;" horiz-adv-x="713" 
d="M70 667h127l323 -474v474h123v-667h-124l-326 480v-480h-123v667zM134 804c6 6 13.334 12.6631 22.001 19.9961s18.5 14 29.5 20s22.833 11 35.5 15s26.334 6 41.001 6s27.334 -2.16699 38.001 -6.5s20.834 -9.16602 30.501 -14.499s19.667 -10.166 30 -14.499
s22.5 -6.5 36.5 -6.5c23.333 0 42.166 4.33301 56.499 13s26.166 16.667 35.499 24l49 -75c-6 -6 -13.333 -12.667 -22 -20s-18.334 -14.166 -29.001 -20.499s-22.334 -11.666 -35.001 -15.999s-26.334 -6.5 -41.001 -6.5s-27.334 2.33301 -38.001 7s-21 9.66699 -31 15
s-20.167 10.333 -30.5 15s-22.5 7 -36.5 7c-23.333 0 -42.166 -4.33301 -56.499 -13s-26.166 -16.667 -35.499 -24z" />
    <glyph glyph-name="Ograve" unicode="&#xd2;" horiz-adv-x="782" 
d="M391 -18c-48.667 0 -94 9.16699 -136 27.5s-78.667 43.5 -110 75.5s-56 69.333 -74 112s-27 88.334 -27 137.001s9 94.334 27 137.001s42.5 79.834 73.5 111.501s67.667 56.667 110 75s87.833 27.5 136.5 27.5s94 -9.16699 136 -27.5s78.667 -43.333 110 -75
s56 -68.834 74 -111.501s27 -88.334 27 -137.001s-9 -94.334 -27 -137.001s-42.667 -80 -74 -112s-68 -57.167 -110 -75.5s-87.333 -27.5 -136 -27.5zM391 101c32.667 0 62.334 6.33301 89.001 19s49.334 29.834 68.001 51.501s33 46.834 43 75.501s15 58.667 15 90
c0 32 -5 62.167 -15 90.5s-24.333 53.166 -43 74.499s-41.334 38.166 -68.001 50.499s-56.334 18.5 -89.001 18.5c-33.333 0 -63.166 -6.16699 -89.499 -18.5s-48.833 -29.166 -67.5 -50.499s-33 -46.166 -43 -74.499s-15 -58.5 -15 -90.5c0 -31.333 5 -61.333 15 -90
s24.333 -53.834 43 -75.501s41.167 -38.834 67.5 -51.501s56.166 -19 89.499 -19zM246 873h146l73 -156h-105z" />
    <glyph glyph-name="Oacute" unicode="&#xd3;" horiz-adv-x="782" 
d="M391 -18c-48.667 0 -94 9.16699 -136 27.5s-78.667 43.5 -110 75.5s-56 69.333 -74 112s-27 88.334 -27 137.001s9 94.334 27 137.001s42.5 79.834 73.5 111.501s67.667 56.667 110 75s87.833 27.5 136.5 27.5s94 -9.16699 136 -27.5s78.667 -43.333 110 -75
s56 -68.834 74 -111.501s27 -88.334 27 -137.001s-9 -94.334 -27 -137.001s-42.667 -80 -74 -112s-68 -57.167 -110 -75.5s-87.333 -27.5 -136 -27.5zM391 101c32.667 0 62.334 6.33301 89.001 19s49.334 29.834 68.001 51.501s33 46.834 43 75.501s15 58.667 15 90
c0 32 -5 62.167 -15 90.5s-24.333 53.166 -43 74.499s-41.334 38.166 -68.001 50.499s-56.334 18.5 -89.001 18.5c-33.333 0 -63.166 -6.16699 -89.499 -18.5s-48.833 -29.166 -67.5 -50.499s-33 -46.166 -43 -74.499s-15 -58.5 -15 -90.5c0 -31.333 5 -61.333 15 -90
s24.333 -53.834 43 -75.501s41.167 -38.834 67.5 -51.501s56.166 -19 89.499 -19zM401 873h146l-114 -156h-105z" />
    <glyph glyph-name="Ocircumflex" unicode="&#xd4;" horiz-adv-x="782" 
d="M391 -18c-48.667 0 -94 9.16699 -136 27.5s-78.667 43.5 -110 75.5s-56 69.333 -74 112s-27 88.334 -27 137.001s9 94.334 27 137.001s42.5 79.834 73.5 111.501s67.667 56.667 110 75s87.833 27.5 136.5 27.5s94 -9.16699 136 -27.5s78.667 -43.333 110 -75
s56 -68.834 74 -111.501s27 -88.334 27 -137.001s-9 -94.334 -27 -137.001s-42.667 -80 -74 -112s-68 -57.167 -110 -75.5s-87.333 -27.5 -136 -27.5zM391 101c32.667 0 62.334 6.33301 89.001 19s49.334 29.834 68.001 51.501s33 46.834 43 75.501s15 58.667 15 90
c0 32 -5 62.167 -15 90.5s-24.333 53.166 -43 74.499s-41.334 38.166 -68.001 50.499s-56.334 18.5 -89.001 18.5c-33.333 0 -63.166 -6.16699 -89.499 -18.5s-48.833 -29.166 -67.5 -50.499s-33 -46.166 -43 -74.499s-15 -58.5 -15 -90.5c0 -31.333 5 -61.333 15 -90
s24.333 -53.834 43 -75.501s41.167 -38.834 67.5 -51.501s56.166 -19 89.499 -19zM336 873h111l110 -156h-104l-62 82l-61 -82h-104z" />
    <glyph glyph-name="Otilde" unicode="&#xd5;" horiz-adv-x="782" 
d="M391 -18c-48.667 0 -94 9.16699 -136 27.5s-78.667 43.5 -110 75.5s-56 69.333 -74 112s-27 88.334 -27 137.001s9 94.334 27 137.001s42.5 79.834 73.5 111.501s67.667 56.667 110 75s87.833 27.5 136.5 27.5s94 -9.16699 136 -27.5s78.667 -43.333 110 -75
s56 -68.834 74 -111.501s27 -88.334 27 -137.001s-9 -94.334 -27 -137.001s-42.667 -80 -74 -112s-68 -57.167 -110 -75.5s-87.333 -27.5 -136 -27.5zM391 101c32.667 0 62.334 6.33301 89.001 19s49.334 29.834 68.001 51.501s33 46.834 43 75.501s15 58.667 15 90
c0 32 -5 62.167 -15 90.5s-24.333 53.166 -43 74.499s-41.334 38.166 -68.001 50.499s-56.334 18.5 -89.001 18.5c-33.333 0 -63.166 -6.16699 -89.499 -18.5s-48.833 -29.166 -67.5 -50.499s-33 -46.166 -43 -74.499s-15 -58.5 -15 -90.5c0 -31.333 5 -61.333 15 -90
s24.333 -53.834 43 -75.501s41.167 -38.834 67.5 -51.501s56.166 -19 89.499 -19zM190 804c6 6 13.334 12.6631 22.001 19.9961s18.5 14 29.5 20s22.833 11 35.5 15s26.334 6 41.001 6s27.334 -2.16699 38.001 -6.5s20.834 -9.16602 30.501 -14.499
s19.667 -10.166 30 -14.499s22.5 -6.5 36.5 -6.5c23.333 0 42.166 4.33301 56.499 13s26.166 16.667 35.499 24l49 -75c-6 -6 -13.333 -12.667 -22 -20s-18.334 -14.166 -29.001 -20.499s-22.334 -11.666 -35.001 -15.999s-26.334 -6.5 -41.001 -6.5
s-27.334 2.33301 -38.001 7s-21 9.66699 -31 15s-20.167 10.333 -30.5 15s-22.5 7 -36.5 7c-23.333 0 -42.166 -4.33301 -56.499 -13s-26.166 -16.667 -35.499 -24z" />
    <glyph glyph-name="Odieresis" unicode="&#xd6;" horiz-adv-x="782" 
d="M391 -18c-48.667 0 -94 9.16699 -136 27.5s-78.667 43.5 -110 75.5s-56 69.333 -74 112s-27 88.334 -27 137.001s9 94.334 27 137.001s42.5 79.834 73.5 111.501s67.667 56.667 110 75s87.833 27.5 136.5 27.5s94 -9.16699 136 -27.5s78.667 -43.333 110 -75
s56 -68.834 74 -111.501s27 -88.334 27 -137.001s-9 -94.334 -27 -137.001s-42.667 -80 -74 -112s-68 -57.167 -110 -75.5s-87.333 -27.5 -136 -27.5zM391 101c32.667 0 62.334 6.33301 89.001 19s49.334 29.834 68.001 51.501s33 46.834 43 75.501s15 58.667 15 90
c0 32 -5 62.167 -15 90.5s-24.333 53.166 -43 74.499s-41.334 38.166 -68.001 50.499s-56.334 18.5 -89.001 18.5c-33.333 0 -63.166 -6.16699 -89.499 -18.5s-48.833 -29.166 -67.5 -50.499s-33 -46.166 -43 -74.499s-15 -58.5 -15 -90.5c0 -31.333 5 -61.333 15 -90
s24.333 -53.834 43 -75.501s41.167 -38.834 67.5 -51.501s56.166 -19 89.499 -19zM436 854h123v-117h-123v117zM223 854h123v-117h-123v117z" />
    <glyph glyph-name="multiply" unicode="&#xd7;" horiz-adv-x="545" 
d="M204 321l-111 112l69 69l112 -111l113 113l68 -69l-113 -113l111 -111l-69 -69l-111 111l-113 -113l-69 68z" />
    <glyph glyph-name="Oslash" unicode="&#xd8;" horiz-adv-x="782" 
d="M146 84c-32 32 -57 69.332 -75 111.999s-27 88.667 -27 138c0 48.667 9 94.334 27 137.001s42.5 79.834 73.5 111.501s67.667 56.667 110 75s87.833 27.5 136.5 27.5c53.333 0 103.333 -11.333 150 -34l58 82l89 -56l-60 -86c34 -32 60.833 -70.167 80.5 -114.5
s29.5 -91.833 29.5 -142.5c0 -48.667 -9 -94.334 -27 -137.001s-42.667 -80 -74 -112s-68 -57.167 -110 -75.5s-87.333 -27.5 -136 -27.5c-29.333 0 -57.5 3.5 -84.5 10.5s-52.5 16.5 -76.5 28.5l-61 -88l-89 56zM300 120.999c26.667 -13.333 56.998 -20.002 90.998 -20.002
c32.667 0 62.334 6.33301 89.001 19s49.334 29.834 68.001 51.501s33 46.834 43 75.501s15 58.667 15 90c0 29.333 -4.33301 56.833 -13 82.5s-20.667 49.167 -36 70.5zM473.998 554.997c-26.667 10.667 -54.334 15.998 -83.001 15.998
c-33.333 0 -63.166 -6.16699 -89.499 -18.5s-48.833 -29.166 -67.5 -50.499s-33 -46.166 -43 -74.499s-15 -58.5 -15 -90.5c0 -28 3.66699 -54.5 11 -79.5s18.333 -47.833 33 -68.5z" />
    <glyph glyph-name="Ugrave" unicode="&#xd9;" horiz-adv-x="674" 
d="M65 667h126v-399c0 -25.333 2.5 -48.166 7.5 -68.499s13.167 -37.666 24.5 -51.999s26.333 -25.333 45 -33s41.667 -11.5 69 -11.5s50.333 3.83301 69 11.5s33.667 18.667 45 33s19.5 31.666 24.5 51.999s7.5 43.166 7.5 68.499v399h126v-421c0 -37.333 -6 -72 -18 -104
s-29.667 -59.833 -53 -83.5s-51.833 -42.334 -85.5 -56.001s-72.167 -20.5 -115.5 -20.5s-81.833 6.83301 -115.5 20.5s-62.167 32.334 -85.5 56.001s-41 51.5 -53 83.5s-18 66.667 -18 104v421zM199 873h146l73 -156h-105z" />
    <glyph glyph-name="Uacute" unicode="&#xda;" horiz-adv-x="674" 
d="M65 667h126v-399c0 -25.333 2.5 -48.166 7.5 -68.499s13.167 -37.666 24.5 -51.999s26.333 -25.333 45 -33s41.667 -11.5 69 -11.5s50.333 3.83301 69 11.5s33.667 18.667 45 33s19.5 31.666 24.5 51.999s7.5 43.166 7.5 68.499v399h126v-421c0 -37.333 -6 -72 -18 -104
s-29.667 -59.833 -53 -83.5s-51.833 -42.334 -85.5 -56.001s-72.167 -20.5 -115.5 -20.5s-81.833 6.83301 -115.5 20.5s-62.167 32.334 -85.5 56.001s-41 51.5 -53 83.5s-18 66.667 -18 104v421zM351 873h146l-114 -156h-105z" />
    <glyph glyph-name="Ucircumflex" unicode="&#xdb;" horiz-adv-x="674" 
d="M65 667h126v-399c0 -25.333 2.5 -48.166 7.5 -68.499s13.167 -37.666 24.5 -51.999s26.333 -25.333 45 -33s41.667 -11.5 69 -11.5s50.333 3.83301 69 11.5s33.667 18.667 45 33s19.5 31.666 24.5 51.999s7.5 43.166 7.5 68.499v399h126v-421c0 -37.333 -6 -72 -18 -104
s-29.667 -59.833 -53 -83.5s-51.833 -42.334 -85.5 -56.001s-72.167 -20.5 -115.5 -20.5s-81.833 6.83301 -115.5 20.5s-62.167 32.334 -85.5 56.001s-41 51.5 -53 83.5s-18 66.667 -18 104v421zM283 873h111l110 -156h-104l-62 82l-61 -82h-104z" />
    <glyph glyph-name="Udieresis" unicode="&#xdc;" horiz-adv-x="674" 
d="M65 667h126v-399c0 -25.333 2.5 -48.166 7.5 -68.499s13.167 -37.666 24.5 -51.999s26.333 -25.333 45 -33s41.667 -11.5 69 -11.5s50.333 3.83301 69 11.5s33.667 18.667 45 33s19.5 31.666 24.5 51.999s7.5 43.166 7.5 68.499v399h126v-421c0 -37.333 -6 -72 -18 -104
s-29.667 -59.833 -53 -83.5s-51.833 -42.334 -85.5 -56.001s-72.167 -20.5 -115.5 -20.5s-81.833 6.83301 -115.5 20.5s-62.167 32.334 -85.5 56.001s-41 51.5 -53 83.5s-18 66.667 -18 104v421zM382 854h123v-117h-123v117zM169 854h123v-117h-123v117z" />
    <glyph glyph-name="Yacute" unicode="&#xdd;" horiz-adv-x="600" 
d="M236 293l-231 374h138l160 -266l160 266h132l-231 -374v-293h-128v293zM321 873h146l-114 -156h-105z" />
    <glyph glyph-name="Thorn" unicode="&#xde;" horiz-adv-x="558" 
d="M70 667h120.998v-114h93c46.667 0 84.834 -7.16699 114.501 -21.5s53.167 -32 70.5 -53s29.333 -43.5 36 -67.5s10 -46 10 -66c0 -37.333 -6.66699 -69.333 -20 -96s-30.666 -48.5 -51.999 -65.5s-45.333 -29.5 -72 -37.5s-53 -12 -79 -12h-101v-134h-121v667z
M281.998 240c32 0 57.5 9.33301 76.5 28s28.5 43 28.5 73c0 31.333 -10 56.833 -30 76.5s-45 29.5 -75 29.5h-91v-207h91z" />
    <glyph glyph-name="germandbls" unicode="&#xdf;" horiz-adv-x="604" 
d="M58 474c0 40 5.49512 73.3389 16.4951 100.006s26.667 48.167 47 64.5s44.5 28 72.5 35s59 10.5 93 10.5c24.667 0 48.5 -3.5 71.5 -10.5s43.333 -17.167 61 -30.5s31.667 -29.333 42 -48s15.5 -39.667 15.5 -63c0 -25.333 -5.83301 -47.5 -17.5 -66.5
s-24.5 -36.167 -38.5 -51.5l-38.5 -42.5c-11.667 -13 -17.5 -25.833 -17.5 -38.5c0 -12 7 -21.833 21 -29.5s32.667 -14.167 56 -19.5c40.667 -9.33301 71.834 -25 93.501 -47s32.5 -55.333 32.5 -100c0 -46 -16.167 -82.167 -48.5 -108.5s-77.833 -39.5 -136.5 -39.5
c-67.333 0 -122.666 19 -165.999 57l71 82c14 -12.667 29.167 -22.334 45.5 -29.001s31.5 -10 45.5 -10c26.667 0 45.834 3.16699 57.501 9.5s17.5 17.166 17.5 32.499c0 6.66699 -0.833008 13.167 -2.5 19.5s-5.5 12.166 -11.5 17.499s-14.667 10.666 -26 15.999
s-26.666 11 -45.999 17c-15.333 4.66699 -30.166 9.83398 -44.499 15.501s-27 13.5 -38 23.5s-19.833 22.5 -26.5 37.5s-10 33.833 -10 56.5c0 20.667 5.5 39.5 16.5 56.5s23.167 32.833 36.5 47.5l36.5 40.5c11 12.333 16.5 24.166 16.5 35.499
c0 19.333 -6.33301 35.666 -19 48.999s-33 20 -61 20c-36 0 -61.5 -10.333 -76.5 -31s-22.5 -48.334 -22.5 -83.001v-469h-118v474z" />
    <glyph glyph-name="agrave" unicode="&#xe0;" horiz-adv-x="504" 
d="M335 44c-12.667 -15.333 -31.9961 -28.998 -57.9961 -40.998s-55 -18 -87 -18c-19.333 0 -38.5 3 -57.5 9s-36.333 15.167 -52 27.5s-28.334 28.166 -38.001 47.499s-14.5 42 -14.5 68c0 26.667 5 50.5 15 71.5s24 38.667 42 53s39.667 25.166 65 32.499s53.333 11 84 11
c9.33301 0 19.666 -0.166992 30.999 -0.5s22.333 -0.833008 33 -1.5l37 -2v11c0 23.333 -9.33301 41.666 -28 54.999s-43 20 -73 20c-33.333 0 -60 -4.33301 -80 -13s-37.667 -18 -53 -28l-54 80c9.33301 6.66699 20 13.5 32 20.5s26 13.333 42 19s34.5 10.334 55.5 14.001
s45.5 5.5 73.5 5.5c30 0 57.167 -4.16699 81.5 -12.5s45.166 -20 62.499 -35s30.666 -33 39.999 -54s14 -43.833 14 -68.5v-315h-110zM335.004 212.002l-35.002 2c-9.33301 0.666992 -19.166 1.16699 -29.499 1.5s-19.166 0.5 -26.499 0.5c-38 0 -64.667 -7.5 -80 -22.5
s-23 -32.167 -23 -51.5c0 -20 7.16699 -35.667 21.5 -47s35.5 -17 63.5 -17c14 0 27.5 2.33301 40.5 7s24.5 11 34.5 19s18.167 17.333 24.5 28s9.5 22 9.5 34v46zM134.002 682.002h126l48 -142h-95z" />
    <glyph glyph-name="aacute" unicode="&#xe1;" horiz-adv-x="504" 
d="M247 682h126l-79 -142h-95zM335 44c-12.667 -15.333 -31.9961 -28.998 -57.9961 -40.998s-55 -18 -87 -18c-19.333 0 -38.5 3 -57.5 9s-36.333 15.167 -52 27.5s-28.334 28.166 -38.001 47.499s-14.5 42 -14.5 68c0 26.667 5 50.5 15 71.5s24 38.667 42 53
s39.667 25.166 65 32.499s53.333 11 84 11c9.33301 0 19.666 -0.166992 30.999 -0.5s22.333 -0.833008 33 -1.5l37 -2v11c0 23.333 -9.33301 41.666 -28 54.999s-43 20 -73 20c-33.333 0 -60 -4.33301 -80 -13s-37.667 -18 -53 -28l-54 80c9.33301 6.66699 20 13.5 32 20.5
s26 13.333 42 19s34.5 10.334 55.5 14.001s45.5 5.5 73.5 5.5c30 0 57.167 -4.16699 81.5 -12.5s45.166 -20 62.499 -35s30.666 -33 39.999 -54s14 -43.833 14 -68.5v-315h-110zM335.004 212.002l-35.002 2c-9.33301 0.666992 -19.166 1.16699 -29.499 1.5
s-19.166 0.5 -26.499 0.5c-38 0 -64.667 -7.5 -80 -22.5s-23 -32.167 -23 -51.5c0 -20 7.16699 -35.667 21.5 -47s35.5 -17 63.5 -17c14 0 27.5 2.33301 40.5 7s24.5 11 34.5 19s18.167 17.333 24.5 28s9.5 22 9.5 34v46z" />
    <glyph glyph-name="acircumflex" unicode="&#xe2;" horiz-adv-x="504" 
d="M188 682h111l104 -142h-104l-56 76l-55 -76h-104zM335 44c-12.667 -15.333 -31.9961 -28.998 -57.9961 -40.998s-55 -18 -87 -18c-19.333 0 -38.5 3 -57.5 9s-36.333 15.167 -52 27.5s-28.334 28.166 -38.001 47.499s-14.5 42 -14.5 68c0 26.667 5 50.5 15 71.5
s24 38.667 42 53s39.667 25.166 65 32.499s53.333 11 84 11c9.33301 0 19.666 -0.166992 30.999 -0.5s22.333 -0.833008 33 -1.5l37 -2v11c0 23.333 -9.33301 41.666 -28 54.999s-43 20 -73 20c-33.333 0 -60 -4.33301 -80 -13s-37.667 -18 -53 -28l-54 80
c9.33301 6.66699 20 13.5 32 20.5s26 13.333 42 19s34.5 10.334 55.5 14.001s45.5 5.5 73.5 5.5c30 0 57.167 -4.16699 81.5 -12.5s45.166 -20 62.499 -35s30.666 -33 39.999 -54s14 -43.833 14 -68.5v-315h-110zM335.004 212.002l-35.002 2
c-9.33301 0.666992 -19.166 1.16699 -29.499 1.5s-19.166 0.5 -26.499 0.5c-38 0 -64.667 -7.5 -80 -22.5s-23 -32.167 -23 -51.5c0 -20 7.16699 -35.667 21.5 -47s35.5 -17 63.5 -17c14 0 27.5 2.33301 40.5 7s24.5 11 34.5 19s18.167 17.333 24.5 28s9.5 22 9.5 34v46z
" />
    <glyph glyph-name="atilde" unicode="&#xe3;" horiz-adv-x="504" 
d="M335 44c-12.667 -15.333 -31.9961 -28.998 -57.9961 -40.998s-55 -18 -87 -18c-19.333 0 -38.5 3 -57.5 9s-36.333 15.167 -52 27.5s-28.334 28.166 -38.001 47.499s-14.5 42 -14.5 68c0 26.667 5 50.5 15 71.5s24 38.667 42 53s39.667 25.166 65 32.499s53.333 11 84 11
c9.33301 0 19.666 -0.166992 30.999 -0.5s22.333 -0.833008 33 -1.5l37 -2v11c0 23.333 -9.33301 41.666 -28 54.999s-43 20 -73 20c-33.333 0 -60 -4.33301 -80 -13s-37.667 -18 -53 -28l-54 80c9.33301 6.66699 20 13.5 32 20.5s26 13.333 42 19s34.5 10.334 55.5 14.001
s45.5 5.5 73.5 5.5c30 0 57.167 -4.16699 81.5 -12.5s45.166 -20 62.499 -35s30.666 -33 39.999 -54s14 -43.833 14 -68.5v-315h-110zM335.004 212.002l-35.002 2c-9.33301 0.666992 -19.166 1.16699 -29.499 1.5s-19.166 0.5 -26.499 0.5c-38 0 -64.667 -7.5 -80 -22.5
s-23 -32.167 -23 -51.5c0 -20 7.16699 -35.667 21.5 -47s35.5 -17 63.5 -17c14 0 27.5 2.33301 40.5 7s24.5 11 34.5 19s18.167 17.333 24.5 28s9.5 22 9.5 34v46zM49.002 615.002c5.33301 6 12.167 12.332 20.5 18.999s17.666 12.834 27.999 18.501
s21.666 10.5 33.999 14.5s25.166 6 38.499 6c14 0 26 -2.16699 36 -6.5s19.667 -9 29 -14s19 -9.66699 29 -14s21.667 -6.5 35 -6.5c22.667 0 40.667 4.33301 54 13s24.666 16.334 33.999 23.001l45 -70c-5.33301 -6 -12.166 -12.5 -20.499 -19.5s-17.5 -13.5 -27.5 -19.5
s-21.167 -11 -33.5 -15s-25.166 -6 -38.499 -6c-14 0 -26.167 2.16699 -36.5 6.5s-20.166 9.33301 -29.499 15s-19 10.667 -29 15s-21.667 6.5 -35 6.5c-22.667 0 -40.667 -4.33301 -54 -13s-24.666 -16.334 -33.999 -23.001z" />
    <glyph glyph-name="adieresis" unicode="&#xe4;" horiz-adv-x="504" 
d="M290 666h115v-109h-115v109zM105 666h115v-109h-115v109zM335 44c-12.667 -15.333 -31.9961 -28.998 -57.9961 -40.998s-55 -18 -87 -18c-19.333 0 -38.5 3 -57.5 9s-36.333 15.167 -52 27.5s-28.334 28.166 -38.001 47.499s-14.5 42 -14.5 68c0 26.667 5 50.5 15 71.5
s24 38.667 42 53s39.667 25.166 65 32.499s53.333 11 84 11c9.33301 0 19.666 -0.166992 30.999 -0.5s22.333 -0.833008 33 -1.5l37 -2v11c0 23.333 -9.33301 41.666 -28 54.999s-43 20 -73 20c-33.333 0 -60 -4.33301 -80 -13s-37.667 -18 -53 -28l-54 80
c9.33301 6.66699 20 13.5 32 20.5s26 13.333 42 19s34.5 10.334 55.5 14.001s45.5 5.5 73.5 5.5c30 0 57.167 -4.16699 81.5 -12.5s45.166 -20 62.499 -35s30.666 -33 39.999 -54s14 -43.833 14 -68.5v-315h-110zM335.004 212.002l-35.002 2
c-9.33301 0.666992 -19.166 1.16699 -29.499 1.5s-19.166 0.5 -26.499 0.5c-38 0 -64.667 -7.5 -80 -22.5s-23 -32.167 -23 -51.5c0 -20 7.16699 -35.667 21.5 -47s35.5 -17 63.5 -17c14 0 27.5 2.33301 40.5 7s24.5 11 34.5 19s18.167 17.333 24.5 28s9.5 22 9.5 34v46z
" />
    <glyph glyph-name="aring" unicode="&#xe5;" horiz-adv-x="504" 
d="M137 644c0 16 3.16699 31 9.5 45s14.666 26 24.999 36s22.666 17.833 36.999 23.5s29.5 8.5 45.5 8.5s31.167 -2.83301 45.5 -8.5s26.833 -13.5 37.5 -23.5s19.167 -21.833 25.5 -35.5s9.5 -28.5 9.5 -44.5s-3.16699 -31 -9.5 -45s-14.666 -26 -24.999 -36
s-22.666 -17.833 -36.999 -23.5s-29.5 -8.5 -45.5 -8.5s-31.167 2.83301 -45.5 8.5s-26.833 13.5 -37.5 23.5s-19.167 21.833 -25.5 35.5s-9.5 28.5 -9.5 44.5zM254 600c12.667 0 23.167 4.16699 31.5 12.5s12.5 18.833 12.5 31.5c0 12 -4.16699 22.167 -12.5 30.5
s-18.5 12.5 -30.5 12.5c-12.667 0 -23.167 -4.16699 -31.5 -12.5s-12.5 -18.5 -12.5 -30.5c0 -12.667 4.16699 -23.167 12.5 -31.5s18.5 -12.5 30.5 -12.5zM335 44c-12.667 -15.333 -31.9961 -28.998 -57.9961 -40.998s-55 -18 -87 -18c-19.333 0 -38.5 3 -57.5 9
s-36.333 15.167 -52 27.5s-28.334 28.166 -38.001 47.499s-14.5 42 -14.5 68c0 26.667 5 50.5 15 71.5s24 38.667 42 53s39.667 25.166 65 32.499s53.333 11 84 11c9.33301 0 19.666 -0.166992 30.999 -0.5s22.333 -0.833008 33 -1.5l37 -2v11
c0 23.333 -9.33301 41.666 -28 54.999s-43 20 -73 20c-33.333 0 -60 -4.33301 -80 -13s-37.667 -18 -53 -28l-54 80c9.33301 6.66699 20 13.5 32 20.5s26 13.333 42 19s34.5 10.334 55.5 14.001s45.5 5.5 73.5 5.5c30 0 57.167 -4.16699 81.5 -12.5s45.166 -20 62.499 -35
s30.666 -33 39.999 -54s14 -43.833 14 -68.5v-315h-110zM335.004 212.002l-35.002 2c-9.33301 0.666992 -19.166 1.16699 -29.499 1.5s-19.166 0.5 -26.499 0.5c-38 0 -64.667 -7.5 -80 -22.5s-23 -32.167 -23 -51.5c0 -20 7.16699 -35.667 21.5 -47s35.5 -17 63.5 -17
c14 0 27.5 2.33301 40.5 7s24.5 11 34.5 19s18.167 17.333 24.5 28s9.5 22 9.5 34v46z" />
    <glyph glyph-name="ae" unicode="&#xe6;" horiz-adv-x="831" 
d="M47 426c8.66699 6.66699 18.833 13.499 30.5 20.499s25.334 13.333 41.001 19s33.667 10.334 54 14.001s43.5 5.5 69.5 5.5c39.333 0 72.166 -5.5 98.499 -16.5s48.833 -27.5 67.5 -49.5c18 20.667 41 36.834 69 48.501s58 17.5 90 17.5
c42.667 0 78.834 -7.83301 108.501 -23.5s53.5 -36.167 71.5 -61.5s31 -54 39 -86s12 -64.667 12 -98v-17h-350c0 -17.333 3.83301 -33 11.5 -47s17.667 -26 30 -36s26.333 -17.667 42 -23s31.167 -8 46.5 -8c22.667 0 42.5 2.16699 59.5 6.5s31.5 9.33301 43.5 15
s21.833 11.667 29.5 18s13.5 11.5 17.5 15.5l64 -72l-16.5 -16.5c-9 -9 -22 -18.5 -39 -28.5s-38.667 -19 -65 -27s-57.833 -12 -94.5 -12c-40 0 -75.667 7.33301 -107 22s-58 34.667 -80 60c-12 -14.667 -24.5 -27.167 -37.5 -37.5s-27 -18.666 -42 -24.999
s-31.167 -11 -48.5 -14s-37 -4.5 -59 -4.5c-22.667 0 -44.5 3 -65.5 9s-39.667 15.167 -56 27.5s-29.333 28.166 -39 47.499s-14.5 42 -14.5 68c0 26.667 5 50 15 70s24 36.5 42 49.5s39.667 22.833 65 29.5s53.333 10 84 10c8.66699 0 18.667 -0.166992 30 -0.5
s22 -0.833008 32 -1.5s18.667 -1.16699 26 -1.5s11.666 -0.5 12.999 -0.5v20c0 23.333 -8.83301 41.666 -26.5 54.999s-40.5 20 -68.5 20c-36 0 -64.333 -4.33301 -85 -13s-38.667 -18 -54 -28zM334.999 202.999c-2.66699 0 -7.66699 0.333008 -15 1
s-15.5 1.16699 -24.5 1.5l-27.5 1c-9.33301 0.333008 -17.333 0.5 -24 0.5c-35.333 0 -61.833 -6 -79.5 -18s-26.5 -27.667 -26.5 -47c0 -20 7.66699 -35.667 23 -47s37 -17 65 -17c32.667 0 59 8.66699 79 26s30 38 30 62v37zM676.999 283.999c0 12 -2.33301 24 -7 36
s-11.5 22.833 -20.5 32.5s-20.5 17.667 -34.5 24s-30 9.5 -48 9.5c-19.333 0 -36.5 -3.16699 -51.5 -9.5s-27.5 -14.333 -37.5 -24s-17.667 -20.5 -23 -32.5s-8 -24 -8 -36h230z" />
    <glyph glyph-name="ccedilla" unicode="&#xe7;" horiz-adv-x="492" 
d="M471 62c-22 -23.333 -48 -42.001 -78 -56.001s-65 -21 -105 -21s-75.667 6 -107 18s-57.666 29 -78.999 51s-37.666 48.333 -48.999 79s-17 64.667 -17 102c0 34 6.16699 66.167 18.5 96.5s29.5 56.833 51.5 79.5s48.5 40.667 79.5 54s65.167 20 102.5 20
c38 0 72.667 -6.83301 104 -20.5s58 -32.167 80 -55.5l-75 -76c-13.333 15.333 -29 27.333 -47 36s-38.667 13 -62 13c-22.667 0 -42.334 -4.16699 -59.001 -12.5s-30.5 -19.166 -41.5 -32.499s-19.167 -29 -24.5 -47s-8 -36.333 -8 -55c0 -18 2.66699 -35.667 8 -53
s13.5 -33 24.5 -47s24.833 -25.333 41.5 -34s36.334 -13 59.001 -13c23.333 0 44.666 4.5 63.999 13.5s35.666 21.167 48.999 36.5zM163 -150.001c12.667 -4.66699 24.666 -7.83398 35.999 -9.50098s22.333 -2.5 33 -2.5c38.667 0 58 10.667 58 32c0 8 -4.16699 15 -12.5 21
s-22.166 9 -41.499 9c-11.333 0 -22.5 -1 -33.5 -3s-20.833 -4.66699 -29.5 -8l11 67c12 3.33301 24.167 6.16602 36.5 8.49902s28.166 3.5 47.499 3.5c36 0 64.167 -8.66699 84.5 -26s30.5 -39.666 30.5 -66.999c0 -17.333 -3.66699 -32.666 -11 -45.999
s-17.166 -24.5 -29.499 -33.5s-26.333 -15.667 -42 -20s-31.834 -6.5 -48.501 -6.5c-16 0 -30.167 0.666992 -42.5 2s-23.166 3 -32.499 5c-10.667 2 -19.667 4.33301 -27 7z" />
    <glyph glyph-name="egrave" unicode="&#xe8;" horiz-adv-x="538" 
d="M499 68l-16.499 -16.5c-9 -9 -22 -18.5 -39 -28.5s-38.667 -19 -65 -27s-57.833 -12 -94.5 -12c-37.333 0 -71.333 6.33301 -102 19s-56.834 30.167 -78.501 52.5s-38.334 49.166 -50.001 80.499s-17.5 66 -17.5 104c0 34.667 5.83301 66.834 17.5 96.501
s28 55.5 49 77.5s46 39.333 75 52s61.167 19 96.5 19c42.667 0 78.834 -7.83301 108.501 -23.5s53.5 -36.167 71.5 -61.5s31 -54 39 -86s12 -64.667 12 -98v-17h-350c0 -17.333 3.83301 -33 11.5 -47s17.667 -26 30 -36s26.333 -17.667 42 -23s31.167 -8 46.5 -8
c22.667 0 42.5 2.16699 59.5 6.5s31.5 9.33301 43.5 15s21.833 11.667 29.5 18s13.5 11.5 17.5 15.5zM384.001 284c0 12 -2.33301 24 -7 36s-11.5 22.833 -20.5 32.5s-20.5 17.667 -34.5 24s-30 9.5 -48 9.5c-19.333 0 -36.5 -3.16699 -51.5 -9.5s-27.5 -14.333 -37.5 -24
s-17.667 -20.5 -23 -32.5s-8 -24 -8 -36h230zM159.001 682h126l48 -142h-95z" />
    <glyph glyph-name="eacute" unicode="&#xe9;" horiz-adv-x="538" 
d="M499 68l-16.499 -16.5c-9 -9 -22 -18.5 -39 -28.5s-38.667 -19 -65 -27s-57.833 -12 -94.5 -12c-37.333 0 -71.333 6.33301 -102 19s-56.834 30.167 -78.501 52.5s-38.334 49.166 -50.001 80.499s-17.5 66 -17.5 104c0 34.667 5.83301 66.834 17.5 96.501
s28 55.5 49 77.5s46 39.333 75 52s61.167 19 96.5 19c42.667 0 78.834 -7.83301 108.501 -23.5s53.5 -36.167 71.5 -61.5s31 -54 39 -86s12 -64.667 12 -98v-17h-350c0 -17.333 3.83301 -33 11.5 -47s17.667 -26 30 -36s26.333 -17.667 42 -23s31.167 -8 46.5 -8
c22.667 0 42.5 2.16699 59.5 6.5s31.5 9.33301 43.5 15s21.833 11.667 29.5 18s13.5 11.5 17.5 15.5zM384.001 284c0 12 -2.33301 24 -7 36s-11.5 22.833 -20.5 32.5s-20.5 17.667 -34.5 24s-30 9.5 -48 9.5c-19.333 0 -36.5 -3.16699 -51.5 -9.5s-27.5 -14.333 -37.5 -24
s-17.667 -20.5 -23 -32.5s-8 -24 -8 -36h230zM274.001 682h126l-79 -142h-95z" />
    <glyph glyph-name="ecircumflex" unicode="&#xea;" horiz-adv-x="538" 
d="M499 68l-16.499 -16.5c-9 -9 -22 -18.5 -39 -28.5s-38.667 -19 -65 -27s-57.833 -12 -94.5 -12c-37.333 0 -71.333 6.33301 -102 19s-56.834 30.167 -78.501 52.5s-38.334 49.166 -50.001 80.499s-17.5 66 -17.5 104c0 34.667 5.83301 66.834 17.5 96.501
s28 55.5 49 77.5s46 39.333 75 52s61.167 19 96.5 19c42.667 0 78.834 -7.83301 108.501 -23.5s53.5 -36.167 71.5 -61.5s31 -54 39 -86s12 -64.667 12 -98v-17h-350c0 -17.333 3.83301 -33 11.5 -47s17.667 -26 30 -36s26.333 -17.667 42 -23s31.167 -8 46.5 -8
c22.667 0 42.5 2.16699 59.5 6.5s31.5 9.33301 43.5 15s21.833 11.667 29.5 18s13.5 11.5 17.5 15.5zM384.001 284c0 12 -2.33301 24 -7 36s-11.5 22.833 -20.5 32.5s-20.5 17.667 -34.5 24s-30 9.5 -48 9.5c-19.333 0 -36.5 -3.16699 -51.5 -9.5s-27.5 -14.333 -37.5 -24
s-17.667 -20.5 -23 -32.5s-8 -24 -8 -36h230zM215.001 682h111l104 -142h-104l-56 76l-55 -76h-104z" />
    <glyph glyph-name="edieresis" unicode="&#xeb;" horiz-adv-x="538" 
d="M499 68l-16.499 -16.5c-9 -9 -22 -18.5 -39 -28.5s-38.667 -19 -65 -27s-57.833 -12 -94.5 -12c-37.333 0 -71.333 6.33301 -102 19s-56.834 30.167 -78.501 52.5s-38.334 49.166 -50.001 80.499s-17.5 66 -17.5 104c0 34.667 5.83301 66.834 17.5 96.501
s28 55.5 49 77.5s46 39.333 75 52s61.167 19 96.5 19c42.667 0 78.834 -7.83301 108.501 -23.5s53.5 -36.167 71.5 -61.5s31 -54 39 -86s12 -64.667 12 -98v-17h-350c0 -17.333 3.83301 -33 11.5 -47s17.667 -26 30 -36s26.333 -17.667 42 -23s31.167 -8 46.5 -8
c22.667 0 42.5 2.16699 59.5 6.5s31.5 9.33301 43.5 15s21.833 11.667 29.5 18s13.5 11.5 17.5 15.5zM384.001 284c0 12 -2.33301 24 -7 36s-11.5 22.833 -20.5 32.5s-20.5 17.667 -34.5 24s-30 9.5 -48 9.5c-19.333 0 -36.5 -3.16699 -51.5 -9.5s-27.5 -14.333 -37.5 -24
s-17.667 -20.5 -23 -32.5s-8 -24 -8 -36h230zM305.001 666h115v-109h-115v109zM120.001 666h115v-109h-115v109z" />
    <glyph glyph-name="igrave" unicode="&#xec;" horiz-adv-x="244" 
d="M-4 682h126l48 -142h-95zM63 469h118v-469h-118v469z" />
    <glyph glyph-name="iacute" unicode="&#xed;" horiz-adv-x="244" 
d="M122 682h126l-79 -142h-95zM63 469h118v-469h-118v469z" />
    <glyph glyph-name="icircumflex" unicode="&#xee;" horiz-adv-x="244" 
d="M68 682h111l104 -142h-104l-56 76l-55 -76h-104zM63 469h118v-469h-118v469z" />
    <glyph glyph-name="idieresis" unicode="&#xef;" horiz-adv-x="244" 
d="M158 666h115v-109h-115v109zM-27 666h115v-109h-115v109zM63 469h118v-469h-118v469z" />
    <glyph glyph-name="eth" unicode="&#xf0;" horiz-adv-x="555" 
d="M197 577c-24 6 -50.6689 10.001 -80.002 12.001l14 88c44.667 -3.33301 85 -9.33301 121 -18l43 64l64 -38l-35 -53c68 -32.667 117.5 -80.334 148.5 -143.001s46.5 -135.667 46.5 -219c0 -49.333 -6.66699 -91.833 -20 -127.5s-31.333 -65.334 -54 -89.001
s-49.167 -41.167 -79.5 -52.5s-62.5 -17 -96.5 -17c-30 0 -59.167 5 -87.5 15s-53.166 25 -74.499 45s-38.5 44.667 -51.5 74s-19.5 63.333 -19.5 102c0 32 5.83301 62.167 17.5 90.5s27.834 53.333 48.501 75s45.5 38.834 74.5 51.501s60.5 19 94.5 19
c28 0 50.167 -2.16699 66.5 -6.5s28.833 -8.16602 37.5 -11.499c-10 22.667 -23.833 43.667 -41.5 63s-39.167 35.666 -64.5 48.999l-47 -70l-64 38zM392.998 328.001c-9.33301 5.33301 -22.5 11.332 -39.5 17.999s-36.833 10 -59.5 10c-40.667 0 -74 -12.167 -100 -36.5
s-39 -57.5 -39 -99.5c0 -20 3 -38.167 9 -54.5s14.333 -30.5 25 -42.5s23.5 -21.167 38.5 -27.5s31.167 -9.5 48.5 -9.5c15.333 0 30.5 3.5 45.5 10.5s28.5 17.833 40.5 32.5s21.667 33.5 29 56.5s11 50.5 11 82.5c0 8.66699 -0.5 17.834 -1.5 27.501s-3.5 20.5 -7.5 32.5z
" />
    <glyph glyph-name="ntilde" unicode="&#xf1;" horiz-adv-x="551" 
d="M58 469h112.997l3 -53c6 6.66699 13.167 13.667 21.5 21s18.333 14.166 30 20.499s24.834 11.5 39.501 15.5s31.334 6 50.001 6c58.667 0 103.334 -17.5 134.001 -52.5s46 -82.167 46 -141.5v-285h-118v284c0 30 -8.16699 53.167 -24.5 69.5s-37.5 24.5 -63.5 24.5
c-16 0 -31 -3.16699 -45 -9.5s-26 -15.166 -36 -26.499s-17.833 -24.5 -23.5 -39.5s-8.5 -31.167 -8.5 -48.5v-254h-118v469zM86.9971 615c5.33301 6 12.167 12.332 20.5 18.999s17.666 12.834 27.999 18.501s21.666 10.5 33.999 14.5s25.166 6 38.499 6
c14 0 26 -2.16699 36 -6.5s19.667 -9 29 -14s19 -9.66699 29 -14s21.667 -6.5 35 -6.5c22.667 0 40.667 4.33301 54 13s24.666 16.334 33.999 23.001l45 -70c-5.33301 -6 -12.166 -12.5 -20.499 -19.5s-17.5 -13.5 -27.5 -19.5s-21.167 -11 -33.5 -15s-25.166 -6 -38.499 -6
c-14 0 -26.167 2.16699 -36.5 6.5s-20.166 9.33301 -29.499 15s-19 10.667 -29 15s-21.667 6.5 -35 6.5c-22.667 0 -40.667 -4.33301 -54 -13s-24.666 -16.334 -33.999 -23.001z" />
    <glyph glyph-name="ograve" unicode="&#xf2;" horiz-adv-x="576" 
d="M36 235c0 34 6.16699 66.167 18.5 96.5s29.5 56.833 51.5 79.5s48.5 40.667 79.5 54s65.167 20 102.5 20s71.5 -6.66699 102.5 -20s57.5 -31.333 79.5 -54s39.167 -49.167 51.5 -79.5s18.5 -62.5 18.5 -96.5s-6.16699 -66.167 -18.5 -96.5s-29.5 -57 -51.5 -80
s-48.5 -41.167 -79.5 -54.5s-65.167 -20 -102.5 -20s-71.5 6.66699 -102.5 20s-57.5 31.5 -79.5 54.5s-39.167 49.667 -51.5 80s-18.5 62.5 -18.5 96.5zM288 86c22.667 0 42.334 4.5 59.001 13.5s30.5 20.833 41.5 35.5s19.167 30.667 24.5 48s8 34.666 8 51.999
c0 16.667 -2.66699 33.834 -8 51.501s-13.5 33.667 -24.5 48s-24.833 26 -41.5 35s-36.334 13.5 -59.001 13.5s-42.334 -4.5 -59.001 -13.5s-30.5 -20.667 -41.5 -35s-19.167 -30.333 -24.5 -48s-8 -34.834 -8 -51.501c0 -17.333 2.66699 -34.666 8 -51.999
s13.5 -33.333 24.5 -48s24.833 -26.5 41.5 -35.5s36.334 -13.5 59.001 -13.5zM174 682h126l48 -142h-95z" />
    <glyph glyph-name="oacute" unicode="&#xf3;" horiz-adv-x="576" 
d="M36 235c0 34 6.16699 66.167 18.5 96.5s29.5 56.833 51.5 79.5s48.5 40.667 79.5 54s65.167 20 102.5 20s71.5 -6.66699 102.5 -20s57.5 -31.333 79.5 -54s39.167 -49.167 51.5 -79.5s18.5 -62.5 18.5 -96.5s-6.16699 -66.167 -18.5 -96.5s-29.5 -57 -51.5 -80
s-48.5 -41.167 -79.5 -54.5s-65.167 -20 -102.5 -20s-71.5 6.66699 -102.5 20s-57.5 31.5 -79.5 54.5s-39.167 49.667 -51.5 80s-18.5 62.5 -18.5 96.5zM288 86c22.667 0 42.334 4.5 59.001 13.5s30.5 20.833 41.5 35.5s19.167 30.667 24.5 48s8 34.666 8 51.999
c0 16.667 -2.66699 33.834 -8 51.501s-13.5 33.667 -24.5 48s-24.833 26 -41.5 35s-36.334 13.5 -59.001 13.5s-42.334 -4.5 -59.001 -13.5s-30.5 -20.667 -41.5 -35s-19.167 -30.333 -24.5 -48s-8 -34.834 -8 -51.501c0 -17.333 2.66699 -34.666 8 -51.999
s13.5 -33.333 24.5 -48s24.833 -26.5 41.5 -35.5s36.334 -13.5 59.001 -13.5zM284 682h126l-79 -142h-95z" />
    <glyph glyph-name="ocircumflex" unicode="&#xf4;" horiz-adv-x="576" 
d="M36 235c0 34 6.16699 66.167 18.5 96.5s29.5 56.833 51.5 79.5s48.5 40.667 79.5 54s65.167 20 102.5 20s71.5 -6.66699 102.5 -20s57.5 -31.333 79.5 -54s39.167 -49.167 51.5 -79.5s18.5 -62.5 18.5 -96.5s-6.16699 -66.167 -18.5 -96.5s-29.5 -57 -51.5 -80
s-48.5 -41.167 -79.5 -54.5s-65.167 -20 -102.5 -20s-71.5 6.66699 -102.5 20s-57.5 31.5 -79.5 54.5s-39.167 49.667 -51.5 80s-18.5 62.5 -18.5 96.5zM288 86c22.667 0 42.334 4.5 59.001 13.5s30.5 20.833 41.5 35.5s19.167 30.667 24.5 48s8 34.666 8 51.999
c0 16.667 -2.66699 33.834 -8 51.501s-13.5 33.667 -24.5 48s-24.833 26 -41.5 35s-36.334 13.5 -59.001 13.5s-42.334 -4.5 -59.001 -13.5s-30.5 -20.667 -41.5 -35s-19.167 -30.333 -24.5 -48s-8 -34.834 -8 -51.501c0 -17.333 2.66699 -34.666 8 -51.999
s13.5 -33.333 24.5 -48s24.833 -26.5 41.5 -35.5s36.334 -13.5 59.001 -13.5zM233 682h111l104 -142h-104l-56 76l-55 -76h-104z" />
    <glyph glyph-name="otilde" unicode="&#xf5;" horiz-adv-x="576" 
d="M36 235c0 34 6.16699 66.167 18.5 96.5s29.5 56.833 51.5 79.5s48.5 40.667 79.5 54s65.167 20 102.5 20s71.5 -6.66699 102.5 -20s57.5 -31.333 79.5 -54s39.167 -49.167 51.5 -79.5s18.5 -62.5 18.5 -96.5s-6.16699 -66.167 -18.5 -96.5s-29.5 -57 -51.5 -80
s-48.5 -41.167 -79.5 -54.5s-65.167 -20 -102.5 -20s-71.5 6.66699 -102.5 20s-57.5 31.5 -79.5 54.5s-39.167 49.667 -51.5 80s-18.5 62.5 -18.5 96.5zM288 86c22.667 0 42.334 4.5 59.001 13.5s30.5 20.833 41.5 35.5s19.167 30.667 24.5 48s8 34.666 8 51.999
c0 16.667 -2.66699 33.834 -8 51.501s-13.5 33.667 -24.5 48s-24.833 26 -41.5 35s-36.334 13.5 -59.001 13.5s-42.334 -4.5 -59.001 -13.5s-30.5 -20.667 -41.5 -35s-19.167 -30.333 -24.5 -48s-8 -34.834 -8 -51.501c0 -17.333 2.66699 -34.666 8 -51.999
s13.5 -33.333 24.5 -48s24.833 -26.5 41.5 -35.5s36.334 -13.5 59.001 -13.5zM99 615c5.33301 6 12.167 12.332 20.5 18.999s17.666 12.834 27.999 18.501s21.666 10.5 33.999 14.5s25.166 6 38.499 6c14 0 26 -2.16699 36 -6.5s19.667 -9 29 -14s19 -9.66699 29 -14
s21.667 -6.5 35 -6.5c22.667 0 40.667 4.33301 54 13s24.666 16.334 33.999 23.001l45 -70c-5.33301 -6 -12.166 -12.5 -20.499 -19.5s-17.5 -13.5 -27.5 -19.5s-21.167 -11 -33.5 -15s-25.166 -6 -38.499 -6c-14 0 -26.167 2.16699 -36.5 6.5s-20.166 9.33301 -29.499 15
s-19 10.667 -29 15s-21.667 6.5 -35 6.5c-22.667 0 -40.667 -4.33301 -54 -13s-24.666 -16.334 -33.999 -23.001z" />
    <glyph glyph-name="odieresis" unicode="&#xf6;" horiz-adv-x="576" 
d="M36 235c0 34 6.16699 66.167 18.5 96.5s29.5 56.833 51.5 79.5s48.5 40.667 79.5 54s65.167 20 102.5 20s71.5 -6.66699 102.5 -20s57.5 -31.333 79.5 -54s39.167 -49.167 51.5 -79.5s18.5 -62.5 18.5 -96.5s-6.16699 -66.167 -18.5 -96.5s-29.5 -57 -51.5 -80
s-48.5 -41.167 -79.5 -54.5s-65.167 -20 -102.5 -20s-71.5 6.66699 -102.5 20s-57.5 31.5 -79.5 54.5s-39.167 49.667 -51.5 80s-18.5 62.5 -18.5 96.5zM288 86c22.667 0 42.334 4.5 59.001 13.5s30.5 20.833 41.5 35.5s19.167 30.667 24.5 48s8 34.666 8 51.999
c0 16.667 -2.66699 33.834 -8 51.501s-13.5 33.667 -24.5 48s-24.833 26 -41.5 35s-36.334 13.5 -59.001 13.5s-42.334 -4.5 -59.001 -13.5s-30.5 -20.667 -41.5 -35s-19.167 -30.333 -24.5 -48s-8 -34.834 -8 -51.501c0 -17.333 2.66699 -34.666 8 -51.999
s13.5 -33.333 24.5 -48s24.833 -26.5 41.5 -35.5s36.334 -13.5 59.001 -13.5zM324 666h115v-109h-115v109zM139 666h115v-109h-115v109z" />
    <glyph glyph-name="divide" unicode="&#xf7;" horiz-adv-x="543" 
d="M72 371h398v-99h-398v99zM218 214h106v-100h-106v100zM218 530h106v-100h-106v100z" />
    <glyph glyph-name="oslash" unicode="&#xf8;" horiz-adv-x="576" 
d="M111 53c-24 23.333 -42.501 50.4971 -55.501 81.4971s-19.5 64.5 -19.5 100.5c0 34 6.16699 66.167 18.5 96.5s29.5 56.833 51.5 79.5s48.5 40.667 79.5 54s65.167 20 102.5 20c38.667 0 74.334 -7.66699 107.001 -23l47 68l73 -45l-49 -71
c23.333 -23.333 41.5 -50.166 54.5 -80.499s19.5 -63.166 19.5 -98.499c0 -34 -6.16699 -66.167 -18.5 -96.5s-29.5 -57 -51.5 -80s-48.5 -41.167 -79.5 -54.5s-65.167 -20 -102.5 -20c-19.333 0 -38 1.83301 -56 5.5s-34.667 8.83398 -50 15.501l-44 -63l-72 45z
M333.999 374.997c-14.667 5.33301 -29.999 8.00195 -45.999 8.00195c-22.667 0 -42.334 -4.5 -59.001 -13.5s-30.5 -20.667 -41.5 -35s-19.167 -30.333 -24.5 -48s-8 -34.834 -8 -51.501c0 -14.667 1.83301 -29.334 5.5 -44.001s9.5 -28.667 17.5 -42zM243 92.999
c12 -4.66699 26.999 -6.99902 44.999 -6.99902c22.667 0 42.334 4.5 59.001 13.5s30.5 20.833 41.5 35.5s19.167 30.667 24.5 48s8 34.666 8 51.999c0 28 -7.33301 55.667 -22 83z" />
    <glyph glyph-name="ugrave" unicode="&#xf9;" horiz-adv-x="551" 
d="M56 469h118.002v-284c0 -30 8.16699 -53.167 24.5 -69.5s37.5 -24.5 63.5 -24.5c16 0 31 3.16699 45 9.5s26 15.166 36 26.499s17.833 24.5 23.5 39.5s8.5 31.167 8.5 48.5v254h118v-469h-113l-3 53c-6 -6.66699 -13.333 -13.667 -22 -21s-18.667 -14.166 -30 -20.499
s-24.333 -11.5 -39 -15.5s-31.334 -6 -50.001 -6c-58.667 0 -103.334 17.5 -134.001 52.5s-46 82.167 -46 141.5v285zM159.002 682h126l48 -142h-95z" />
    <glyph glyph-name="uacute" unicode="&#xfa;" horiz-adv-x="551" 
d="M56 469h118.002v-284c0 -30 8.16699 -53.167 24.5 -69.5s37.5 -24.5 63.5 -24.5c16 0 31 3.16699 45 9.5s26 15.166 36 26.499s17.833 24.5 23.5 39.5s8.5 31.167 8.5 48.5v254h118v-469h-113l-3 53c-6 -6.66699 -13.333 -13.667 -22 -21s-18.667 -14.166 -30 -20.499
s-24.333 -11.5 -39 -15.5s-31.334 -6 -50.001 -6c-58.667 0 -103.334 17.5 -134.001 52.5s-46 82.167 -46 141.5v285zM270.002 682h126l-79 -142h-95z" />
    <glyph glyph-name="ucircumflex" unicode="&#xfb;" horiz-adv-x="551" 
d="M56 469h118.002v-284c0 -30 8.16699 -53.167 24.5 -69.5s37.5 -24.5 63.5 -24.5c16 0 31 3.16699 45 9.5s26 15.166 36 26.499s17.833 24.5 23.5 39.5s8.5 31.167 8.5 48.5v254h118v-469h-113l-3 53c-6 -6.66699 -13.333 -13.667 -22 -21s-18.667 -14.166 -30 -20.499
s-24.333 -11.5 -39 -15.5s-31.334 -6 -50.001 -6c-58.667 0 -103.334 17.5 -134.001 52.5s-46 82.167 -46 141.5v285zM221.002 682h111l104 -142h-104l-56 76l-55 -76h-104z" />
    <glyph glyph-name="udieresis" unicode="&#xfc;" horiz-adv-x="551" 
d="M56 469h118.002v-284c0 -30 8.16699 -53.167 24.5 -69.5s37.5 -24.5 63.5 -24.5c16 0 31 3.16699 45 9.5s26 15.166 36 26.499s17.833 24.5 23.5 39.5s8.5 31.167 8.5 48.5v254h118v-469h-113l-3 53c-6 -6.66699 -13.333 -13.667 -22 -21s-18.667 -14.166 -30 -20.499
s-24.333 -11.5 -39 -15.5s-31.334 -6 -50.001 -6c-58.667 0 -103.334 17.5 -134.001 52.5s-46 82.167 -46 141.5v285zM315.002 666h115v-109h-115v109zM130.002 666h115v-109h-115v109z" />
    <glyph glyph-name="yacute" unicode="&#xfd;" horiz-adv-x="527" 
d="M77 -93c6.66699 -5.33301 14.002 -10.499 22.002 -15.499s18 -7.5 30 -7.5c16 0 29.167 6.66699 39.5 20s21.166 34 32.499 62l15 38l-211 465h136l134 -321l118 321h129l-196 -469l-28 -72c-9.33301 -24.667 -20.833 -47.5 -34.5 -68.5s-30.5 -38.167 -50.5 -51.5
s-45.333 -20 -76 -20c-26.667 0 -48.834 3.16699 -66.501 9.5s-33.167 15.166 -46.5 26.499zM270.002 682.001h126l-79 -142h-95z" />
    <glyph glyph-name="thorn" unicode="&#xfe;" horiz-adv-x="571" 
d="M58 667l117.002 0.00292969v-246c12 13.333 30.833 26.166 56.5 38.499s56.5 18.5 92.5 18.5s67.167 -6.66699 93.5 -20s48.166 -31.333 65.499 -54s30.333 -48.5 39 -77.5s13 -59.167 13 -90.5c0 -36.667 -5.33301 -68.834 -16 -96.501s-24 -51.167 -40 -70.5
c-26.667 -32 -55.834 -54.167 -87.501 -66.5s-64.167 -18.5 -97.5 -18.5c-15.333 0 -28.5 0.666992 -39.5 2s-21 3.16602 -30 5.49902s-17.333 5 -25 8l-24.5 9.5v-211h-117v869zM175.002 115.003c23.333 -19.333 58.666 -29.001 105.999 -29.001c21.333 0 40.333 4 57 12
s30.834 19 42.501 33s20.5 30 26.5 48s9 37 9 57s-2.16699 38.5 -6.5 55.5s-11.333 31.833 -21 44.5s-22.167 22.5 -37.5 29.5s-34.333 10.5 -57 10.5c-18 0 -34.333 -3.83301 -49 -11.5s-27.167 -17.5 -37.5 -29.5s-18.333 -25.167 -24 -39.5s-8.5 -28.166 -8.5 -41.499
v-139z" />
    <glyph glyph-name="ydieresis" unicode="&#xff;" horiz-adv-x="527" 
d="M77 -93c6.66699 -5.33301 14.002 -10.499 22.002 -15.499s18 -7.5 30 -7.5c16 0 29.167 6.66699 39.5 20s21.166 34 32.499 62l15 38l-211 465h136l134 -321l118 321h129l-196 -469l-28 -72c-9.33301 -24.667 -20.833 -47.5 -34.5 -68.5s-30.5 -38.167 -50.5 -51.5
s-45.333 -20 -76 -20c-26.667 0 -48.834 3.16699 -66.501 9.5s-33.167 15.166 -46.5 26.499zM304.002 666.001h115v-109h-115v109zM119.002 666.001h115v-109h-115v109z" />
    <glyph glyph-name="Amacron" unicode="&#x100;" horiz-adv-x="646" 
d="M258 667h130l253 -667h-140l-58 169h-248l-58 -169h-132zM407 273l-88 259l-89 -259h177zM166 844h315v-97h-315v97z" />
    <glyph glyph-name="amacron" unicode="&#x101;" horiz-adv-x="504" 
d="M128 650h261v-92h-261v92zM335 44c-12.667 -15.333 -31.9961 -28.998 -57.9961 -40.998s-55 -18 -87 -18c-19.333 0 -38.5 3 -57.5 9s-36.333 15.167 -52 27.5s-28.334 28.166 -38.001 47.499s-14.5 42 -14.5 68c0 26.667 5 50.5 15 71.5s24 38.667 42 53
s39.667 25.166 65 32.499s53.333 11 84 11c9.33301 0 19.666 -0.166992 30.999 -0.5s22.333 -0.833008 33 -1.5l37 -2v11c0 23.333 -9.33301 41.666 -28 54.999s-43 20 -73 20c-33.333 0 -60 -4.33301 -80 -13s-37.667 -18 -53 -28l-54 80c9.33301 6.66699 20 13.5 32 20.5
s26 13.333 42 19s34.5 10.334 55.5 14.001s45.5 5.5 73.5 5.5c30 0 57.167 -4.16699 81.5 -12.5s45.166 -20 62.499 -35s30.666 -33 39.999 -54s14 -43.833 14 -68.5v-315h-110zM335.004 212.002l-35.002 2c-9.33301 0.666992 -19.166 1.16699 -29.499 1.5
s-19.166 0.5 -26.499 0.5c-38 0 -64.667 -7.5 -80 -22.5s-23 -32.167 -23 -51.5c0 -20 7.16699 -35.667 21.5 -47s35.5 -17 63.5 -17c14 0 27.5 2.33301 40.5 7s24.5 11 34.5 19s18.167 17.333 24.5 28s9.5 22 9.5 34v46z" />
    <glyph glyph-name="Abreve" unicode="&#x102;" horiz-adv-x="646" 
d="M258 667h130l253 -667h-140l-58 169h-248l-58 -169h-132zM407 273l-88 259l-89 -259h177zM255 863c0 -17.333 5.83301 -32.833 17.5 -46.5s28.167 -20.5 49.5 -20.5s37.833 6.83301 49.5 20.5s17.5 29.167 17.5 46.5h93c0 -19.333 -3.33301 -37.833 -10 -55.5
s-16.5 -33.5 -29.5 -47.5s-29.667 -25.167 -50 -33.5s-43.833 -12.5 -70.5 -12.5c-27.333 0 -51 4.16699 -71 12.5s-36.5 19.5 -49.5 33.5s-22.833 29.833 -29.5 47.5s-10 36.167 -10 55.5h93z" />
    <glyph glyph-name="abreve" unicode="&#x103;" horiz-adv-x="504" 
d="M181 682c0 -16 4.49805 -30.833 13.498 -44.5s25.167 -20.5 48.5 -20.5s39.5 6.83301 48.5 20.5s13.5 28.5 13.5 44.5h92c0 -18 -3.16699 -35.5 -9.5 -52.5s-16 -32.167 -29 -45.5s-29.167 -24 -48.5 -32s-41.666 -12 -66.999 -12s-47.666 4 -66.999 12
s-35.5 18.667 -48.5 32s-22.667 28.5 -29 45.5s-9.5 34.5 -9.5 52.5h92zM334.998 44c-12.667 -15.333 -31.9961 -28.998 -57.9961 -40.998s-55 -18 -87 -18c-19.333 0 -38.5 3 -57.5 9s-36.333 15.167 -52 27.5s-28.334 28.166 -38.001 47.499s-14.5 42 -14.5 68
c0 26.667 5 50.5 15 71.5s24 38.667 42 53s39.667 25.166 65 32.499s53.333 11 84 11c9.33301 0 19.666 -0.166992 30.999 -0.5s22.333 -0.833008 33 -1.5l37 -2v11c0 23.333 -9.33301 41.666 -28 54.999s-43 20 -73 20c-33.333 0 -60 -4.33301 -80 -13s-37.667 -18 -53 -28
l-54 80c9.33301 6.66699 20 13.5 32 20.5s26 13.333 42 19s34.5 10.334 55.5 14.001s45.5 5.5 73.5 5.5c30 0 57.167 -4.16699 81.5 -12.5s45.166 -20 62.499 -35s30.666 -33 39.999 -54s14 -43.833 14 -68.5v-315h-110zM335.002 212.002l-35.002 2
c-9.33301 0.666992 -19.166 1.16699 -29.499 1.5s-19.166 0.5 -26.499 0.5c-38 0 -64.667 -7.5 -80 -22.5s-23 -32.167 -23 -51.5c0 -20 7.16699 -35.667 21.5 -47s35.5 -17 63.5 -17c14 0 27.5 2.33301 40.5 7s24.5 11 34.5 19s18.167 17.333 24.5 28s9.5 22 9.5 34v46z
" />
    <glyph glyph-name="Aogonek" unicode="&#x104;" horiz-adv-x="646" 
d="M258 667l129.999 -0.000976562l253 -667c-12.667 -12.667 -23.667 -26.667 -33 -42s-14 -28.666 -14 -39.999c0 -14 8.66699 -21 26 -21c9.33301 0 18 1.5 26 4.5s16 7.16699 24 12.5l29 -75c-17.333 -11.333 -36.166 -20.333 -56.499 -27s-39.166 -10 -56.499 -10
c-34.667 0 -60.167 7.33301 -76.5 22s-24.5 34 -24.5 58c0 20 6.16699 40.167 18.5 60.5s27.166 39.5 44.499 57.5h-47l-58 169h-248l-58 -169h-132zM406.999 272.999l-88 259l-89 -259h177z" />
    <glyph glyph-name="aogonek" unicode="&#x105;" horiz-adv-x="504" 
d="M335 44c-12.667 -15.333 -31.9971 -28.998 -57.9971 -40.998s-55 -18 -87 -18c-19.333 0 -38.5 3 -57.5 9s-36.333 15.167 -52 27.5s-28.334 28.166 -38.001 47.499s-14.5 42 -14.5 68c0 26.667 5 50.5 15 71.5s24 38.667 42 53s39.667 25.166 65 32.499s53.333 11 84 11
c9.33301 0 19.666 -0.166992 30.999 -0.5s22.333 -0.833008 33 -1.5l37 -2v11c0 23.333 -9.33301 41.666 -28 54.999s-43 20 -73 20c-33.333 0 -60 -4.33301 -80 -13s-37.667 -18 -53 -28l-54 80c9.33301 6.66699 20 13.5 32 20.5s26 13.333 42 19s34.5 10.334 55.5 14.001
s45.5 5.5 73.5 5.5c30 0 57.167 -4.16699 81.5 -12.5s45.166 -20 62.499 -35s30.666 -33 39.999 -54s14 -43.833 14 -68.5v-315c-12.667 -12 -24.5 -25.5 -35.5 -40.5s-16.5 -28.167 -16.5 -39.5c0 -14 8.33301 -21 25 -21c10.667 0 20.334 1.83301 29.001 5.5
s17.334 8.16699 26.001 13.5l28 -74c-16.667 -11.333 -34.834 -20.166 -54.501 -26.499s-38.167 -9.5 -55.5 -9.5c-34 0 -58.833 7.16699 -74.5 21.5s-23.5 33.166 -23.5 56.499c0 19.333 6 38.833 18 58.5s26.333 38.167 43 55.5h-19zM335.003 212.002l-35.002 2
c-9.33301 0.666992 -19.166 1.16699 -29.499 1.5s-19.166 0.5 -26.499 0.5c-38 0 -64.667 -7.5 -80 -22.5s-23 -32.167 -23 -51.5c0 -20 7.16699 -35.667 21.5 -47s35.5 -17 63.5 -17c14 0 27.5 2.33301 40.5 7s24.5 11 34.5 19s18.167 17.333 24.5 28s9.5 22 9.5 34v46z
" />
    <glyph glyph-name="Cacute" unicode="&#x106;" horiz-adv-x="680" 
d="M657 122c-10 -15.333 -23.8301 -31.001 -41.4971 -47.001s-38.5 -30.833 -62.5 -44.5s-50.333 -24.834 -79 -33.501s-59 -13 -91 -13c-50 0 -95.667 8.66699 -137 26s-77 41.5 -107 72.5s-53.333 67.5 -70 109.5s-25 88 -25 138c0 48.667 8.33301 94.334 25 137.001
s40.167 80 70.5 112s66.5 57.333 108.5 76s88.333 28 139 28c32.667 0 62.667 -3.5 90 -10.5s52.166 -16.5 74.499 -28.5s42.166 -26.167 59.499 -42.5s32.666 -33.833 45.999 -52.5l-89 -79c-21.333 30.667 -46.166 55.334 -74.499 74.001s-63.833 28 -106.5 28
c-32.667 0 -62 -6.5 -88 -19.5s-48.167 -30.333 -66.5 -52s-32.333 -47 -42 -76s-14.5 -59.5 -14.5 -91.5s4.83301 -62 14.5 -90s23.5 -52.333 41.5 -73s39.5 -37 64.5 -49s53.167 -18 84.5 -18c28.667 0 53.167 3.33301 73.5 10s37.666 15 51.999 25s26.333 20.5 36 31.5
s18.5 20.5 26.5 28.5zM392.003 872.999h146l-114 -156h-105z" />
    <glyph glyph-name="cacute" unicode="&#x107;" horiz-adv-x="492" 
d="M471 62c-22 -23.333 -48 -42.001 -78 -56.001s-65 -21 -105 -21s-75.667 6 -107 18s-57.666 29 -78.999 51s-37.666 48.333 -48.999 79s-17 64.667 -17 102c0 34 6.16699 66.167 18.5 96.5s29.5 56.833 51.5 79.5s48.5 40.667 79.5 54s65.167 20 102.5 20
c38 0 72.667 -6.83301 104 -20.5s58 -32.167 80 -55.5l-75 -76c-13.333 15.333 -29 27.333 -47 36s-38.667 13 -62 13c-22.667 0 -42.334 -4.16699 -59.001 -12.5s-30.5 -19.166 -41.5 -32.499s-19.167 -29 -24.5 -47s-8 -36.333 -8 -55c0 -18 2.66699 -35.667 8 -53
s13.5 -33 24.5 -47s24.833 -25.333 41.5 -34s36.334 -13 59.001 -13c23.333 0 44.666 4.5 63.999 13.5s35.666 21.167 48.999 36.5zM274 681.999h126l-79 -142h-95z" />
    <glyph glyph-name="Ccircumflex" unicode="&#x108;" horiz-adv-x="680" 
d="M657 122c-10 -15.333 -23.8301 -31.001 -41.4971 -47.001s-38.5 -30.833 -62.5 -44.5s-50.333 -24.834 -79 -33.501s-59 -13 -91 -13c-50 0 -95.667 8.66699 -137 26s-77 41.5 -107 72.5s-53.333 67.5 -70 109.5s-25 88 -25 138c0 48.667 8.33301 94.334 25 137.001
s40.167 80 70.5 112s66.5 57.333 108.5 76s88.333 28 139 28c32.667 0 62.667 -3.5 90 -10.5s52.166 -16.5 74.499 -28.5s42.166 -26.167 59.499 -42.5s32.666 -33.833 45.999 -52.5l-89 -79c-21.333 30.667 -46.166 55.334 -74.499 74.001s-63.833 28 -106.5 28
c-32.667 0 -62 -6.5 -88 -19.5s-48.167 -30.333 -66.5 -52s-32.333 -47 -42 -76s-14.5 -59.5 -14.5 -91.5s4.83301 -62 14.5 -90s23.5 -52.333 41.5 -73s39.5 -37 64.5 -49s53.167 -18 84.5 -18c28.667 0 53.167 3.33301 73.5 10s37.666 15 51.999 25s26.333 20.5 36 31.5
s18.5 20.5 26.5 28.5zM332.003 872.999h111l110 -156h-104l-62 82l-61 -82h-104z" />
    <glyph glyph-name="ccircumflex" unicode="&#x109;" horiz-adv-x="492" 
d="M471 62c-22 -23.333 -48 -42.001 -78 -56.001s-65 -21 -105 -21s-75.667 6 -107 18s-57.666 29 -78.999 51s-37.666 48.333 -48.999 79s-17 64.667 -17 102c0 34 6.16699 66.167 18.5 96.5s29.5 56.833 51.5 79.5s48.5 40.667 79.5 54s65.167 20 102.5 20
c38 0 72.667 -6.83301 104 -20.5s58 -32.167 80 -55.5l-75 -76c-13.333 15.333 -29 27.333 -47 36s-38.667 13 -62 13c-22.667 0 -42.334 -4.16699 -59.001 -12.5s-30.5 -19.166 -41.5 -32.499s-19.167 -29 -24.5 -47s-8 -36.333 -8 -55c0 -18 2.66699 -35.667 8 -53
s13.5 -33 24.5 -47s24.833 -25.333 41.5 -34s36.334 -13 59.001 -13c23.333 0 44.666 4.5 63.999 13.5s35.666 21.167 48.999 36.5zM231 681.999h111l104 -142h-104l-56 76l-55 -76h-104z" />
    <glyph glyph-name="Cdotaccent" unicode="&#x10a;" horiz-adv-x="680" 
d="M657 122c-10 -15.333 -23.8301 -31.001 -41.4971 -47.001s-38.5 -30.833 -62.5 -44.5s-50.333 -24.834 -79 -33.501s-59 -13 -91 -13c-50 0 -95.667 8.66699 -137 26s-77 41.5 -107 72.5s-53.333 67.5 -70 109.5s-25 88 -25 138c0 48.667 8.33301 94.334 25 137.001
s40.167 80 70.5 112s66.5 57.333 108.5 76s88.333 28 139 28c32.667 0 62.667 -3.5 90 -10.5s52.166 -16.5 74.499 -28.5s42.166 -26.167 59.499 -42.5s32.666 -33.833 45.999 -52.5l-89 -79c-21.333 30.667 -46.166 55.334 -74.499 74.001s-63.833 28 -106.5 28
c-32.667 0 -62 -6.5 -88 -19.5s-48.167 -30.333 -66.5 -52s-32.333 -47 -42 -76s-14.5 -59.5 -14.5 -91.5s4.83301 -62 14.5 -90s23.5 -52.333 41.5 -73s39.5 -37 64.5 -49s53.167 -18 84.5 -18c28.667 0 53.167 3.33301 73.5 10s37.666 15 51.999 25s26.333 20.5 36 31.5
s18.5 20.5 26.5 28.5zM314.003 856.999h129v-123h-129v123z" />
    <glyph glyph-name="cdotaccent" unicode="&#x10b;" horiz-adv-x="492" 
d="M471 62c-22 -23.333 -48 -42.001 -78 -56.001s-65 -21 -105 -21s-75.667 6 -107 18s-57.666 29 -78.999 51s-37.666 48.333 -48.999 79s-17 64.667 -17 102c0 34 6.16699 66.167 18.5 96.5s29.5 56.833 51.5 79.5s48.5 40.667 79.5 54s65.167 20 102.5 20
c38 0 72.667 -6.83301 104 -20.5s58 -32.167 80 -55.5l-75 -76c-13.333 15.333 -29 27.333 -47 36s-38.667 13 -62 13c-22.667 0 -42.334 -4.16699 -59.001 -12.5s-30.5 -19.166 -41.5 -32.499s-19.167 -29 -24.5 -47s-8 -36.333 -8 -55c0 -18 2.66699 -35.667 8 -53
s13.5 -33 24.5 -47s24.833 -25.333 41.5 -34s36.334 -13 59.001 -13c23.333 0 44.666 4.5 63.999 13.5s35.666 21.167 48.999 36.5zM222 669.999h123v-117h-123v117z" />
    <glyph glyph-name="Ccaron" unicode="&#x10c;" horiz-adv-x="680" 
d="M657 122c-10 -15.333 -23.8301 -31.001 -41.4971 -47.001s-38.5 -30.833 -62.5 -44.5s-50.333 -24.834 -79 -33.501s-59 -13 -91 -13c-50 0 -95.667 8.66699 -137 26s-77 41.5 -107 72.5s-53.333 67.5 -70 109.5s-25 88 -25 138c0 48.667 8.33301 94.334 25 137.001
s40.167 80 70.5 112s66.5 57.333 108.5 76s88.333 28 139 28c32.667 0 62.667 -3.5 90 -10.5s52.166 -16.5 74.499 -28.5s42.166 -26.167 59.499 -42.5s32.666 -33.833 45.999 -52.5l-89 -79c-21.333 30.667 -46.166 55.334 -74.499 74.001s-63.833 28 -106.5 28
c-32.667 0 -62 -6.5 -88 -19.5s-48.167 -30.333 -66.5 -52s-32.333 -47 -42 -76s-14.5 -59.5 -14.5 -91.5s4.83301 -62 14.5 -90s23.5 -52.333 41.5 -73s39.5 -37 64.5 -49s53.167 -18 84.5 -18c28.667 0 53.167 3.33301 73.5 10s37.666 15 51.999 25s26.333 20.5 36 31.5
s18.5 20.5 26.5 28.5zM224.003 872.999h104l62 -82l61 82h104l-110 -156h-111z" />
    <glyph glyph-name="ccaron" unicode="&#x10d;" horiz-adv-x="492" 
d="M471 62c-22 -23.333 -48 -42.001 -78 -56.001s-65 -21 -105 -21s-75.667 6 -107 18s-57.666 29 -78.999 51s-37.666 48.333 -48.999 79s-17 64.667 -17 102c0 34 6.16699 66.167 18.5 96.5s29.5 56.833 51.5 79.5s48.5 40.667 79.5 54s65.167 20 102.5 20
c38 0 72.667 -6.83301 104 -20.5s58 -32.167 80 -55.5l-75 -76c-13.333 15.333 -29 27.333 -47 36s-38.667 13 -62 13c-22.667 0 -42.334 -4.16699 -59.001 -12.5s-30.5 -19.166 -41.5 -32.499s-19.167 -29 -24.5 -47s-8 -36.333 -8 -55c0 -18 2.66699 -35.667 8 -53
s13.5 -33 24.5 -47s24.833 -25.333 41.5 -34s36.334 -13 59.001 -13c23.333 0 44.666 4.5 63.999 13.5s35.666 21.167 48.999 36.5zM124 681.999h104l56 -76l55 76h104l-104 -142h-111z" />
    <glyph glyph-name="Dcaron" unicode="&#x10e;" horiz-adv-x="726" 
d="M70 667h249.002c52 0 99.667 -6.66699 143 -20s80.666 -33.666 111.999 -60.999s55.666 -62.333 72.999 -105s26 -93 26 -151c0 -55.333 -8.83301 -103.5 -26.5 -144.5s-42.334 -75.333 -74.001 -103s-69.167 -48.334 -112.5 -62.001s-90.666 -20.5 -141.999 -20.5h-248
v667zM307.002 112c76 0 134 18.332 174 54.999s60 90.334 60 161.001c0 70 -18.5 125.333 -55.5 166s-96.5 61 -178.5 61h-111v-443h111zM155.002 872.999h104l62 -82l61 82h104l-110 -156h-111z" />
    <glyph glyph-name="dcaron" unicode="&#x10f;" horiz-adv-x="557" 
d="M382 46c-6 -6.66699 -13.3301 -13.668 -21.9971 -21.001s-18.834 -14 -30.501 -20s-24.667 -11 -39 -15s-30.5 -6 -48.5 -6c-25.333 0 -50.333 5.33301 -75 16s-46.667 26.334 -66 47.001s-35 46 -47 76s-18 64.333 -18 103c0 36.667 5.33301 68.834 16 96.501
s24 51.167 40 70.5c13.333 16 28 29.333 44 40s32.167 19.5 48.5 26.5s32.166 12 47.499 15s28.666 4.5 39.999 4.5c15.333 0 28 -0.5 38 -1.5s19 -2.33301 27 -4s15.333 -3.83398 22 -6.50098l23 -9v209h117v-667h-114zM382.003 351.999
c-11.333 9.33301 -24.502 15.834 -39.502 19.501s-34.167 5.5 -57.5 5.5s-42.666 -4.5 -57.999 -13.5s-28.666 -20.833 -39.999 -35.5c-10 -13.333 -17.833 -28.833 -23.5 -46.5s-8.5 -36.167 -8.5 -55.5c0 -40 10 -73.333 30 -100s49 -40 87 -40c20 0 37 3.83301 51 11.5
s25.333 17.5 34 29.5s15 25.167 19 39.5s6 28.166 6 41.499v144zM560.001 667h110l-34 -169h-76v169z" />
    <glyph glyph-name="Dcroat" unicode="&#x110;" horiz-adv-x="726" 
d="M70 287h-66.998v102h67v278h249c52 0 99.667 -6.66699 143 -20s80.666 -33.666 111.999 -60.999s55.666 -62.333 72.999 -105s26 -93 26 -151c0 -55.333 -8.83301 -103.5 -26.5 -144.5s-42.334 -75.333 -74.001 -103s-69.167 -48.334 -112.5 -62.001
s-90.666 -20.5 -141.999 -20.5h-248v287zM310.002 113c76 0 134 18.332 174 54.999s60 90.334 60 161.001c0 70 -18.5 125.333 -55.5 166s-96.5 61 -178.5 61h-114v-167h155v-102h-155v-174h114z" />
    <glyph glyph-name="dcroat" unicode="&#x111;" horiz-adv-x="548" 
d="M373 46c-6 -6.66699 -13.3301 -13.665 -21.9971 -20.998s-18.834 -14 -30.501 -20s-24.667 -11 -39 -15s-30.5 -6 -48.5 -6c-25.333 0 -50.333 5 -75 15s-46.667 24.667 -66 44s-35 43.666 -47 72.999s-18 63.333 -18 102c0 36.667 5.33301 67.5 16 92.5
s24 47.167 40 66.5c13.333 16 28 29.167 44 39.5s32.167 18.5 48.5 24.5s32.166 10.333 47.499 13s28.666 4 39.999 4c15.333 0 28 -0.5 38 -1.5s19 -2.33301 27 -4s15.333 -3.83398 22 -6.50098l23 -9v85h-171v79h171v66h117v-66h56v-79h-56v-522h-117v46zM373.003 331.002
c-11.333 7.33301 -24.835 13.334 -40.502 18.001s-34.5 7 -56.5 7c-23.333 0 -42.666 -3.66699 -57.999 -11s-28.666 -18.333 -39.999 -33c-10 -13.333 -17.833 -27.5 -23.5 -42.5s-8.5 -32.167 -8.5 -51.5c0 -40 10 -72 30 -96s49 -36 87 -36c20 0 37 3.83301 51 11.5
s25.333 17.5 34 29.5s15 25.167 19 39.5s6 28.166 6 41.499v123z" />
    <glyph glyph-name="Emacron" unicode="&#x112;" horiz-adv-x="568" 
d="M70 667h432v-111h-306v-157h225v-112h-225v-174h329v-113h-455v667zM134 844h315v-97h-315v97z" />
    <glyph glyph-name="emacron" unicode="&#x113;" horiz-adv-x="538" 
d="M499 68l-16.499 -16.5c-9 -9 -22 -18.5 -39 -28.5s-38.667 -19 -65 -27s-57.833 -12 -94.5 -12c-37.333 0 -71.333 6.33301 -102 19s-56.834 30.167 -78.501 52.5s-38.334 49.166 -50.001 80.499s-17.5 66 -17.5 104c0 34.667 5.83301 66.834 17.5 96.501
s28 55.5 49 77.5s46 39.333 75 52s61.167 19 96.5 19c42.667 0 78.834 -7.83301 108.501 -23.5s53.5 -36.167 71.5 -61.5s31 -54 39 -86s12 -64.667 12 -98v-17h-350c0 -17.333 3.83301 -33 11.5 -47s17.667 -26 30 -36s26.333 -17.667 42 -23s31.167 -8 46.5 -8
c22.667 0 42.5 2.16699 59.5 6.5s31.5 9.33301 43.5 15s21.833 11.667 29.5 18s13.5 11.5 17.5 15.5zM384.001 284c0 12 -2.33301 24 -7 36s-11.5 22.833 -20.5 32.5s-20.5 17.667 -34.5 24s-30 9.5 -48 9.5c-19.333 0 -36.5 -3.16699 -51.5 -9.5s-27.5 -14.333 -37.5 -24
s-17.667 -20.5 -23 -32.5s-8 -24 -8 -36h230zM142.001 649h261v-92h-261v92z" />
    <glyph glyph-name="Ebreve" unicode="&#x114;" horiz-adv-x="568" 
d="M70 667h432v-111h-306v-157h225v-112h-225v-174h329v-113h-455v667zM223 863c0 -17.333 5.83301 -32.833 17.5 -46.5s28.167 -20.5 49.5 -20.5s37.833 6.83301 49.5 20.5s17.5 29.167 17.5 46.5h93c0 -19.333 -3.33301 -37.833 -10 -55.5s-16.5 -33.5 -29.5 -47.5
s-29.667 -25.167 -50 -33.5s-43.833 -12.5 -70.5 -12.5c-27.333 0 -51 4.16699 -71 12.5s-36.5 19.5 -49.5 33.5s-22.833 29.833 -29.5 47.5s-10 36.167 -10 55.5h93z" />
    <glyph glyph-name="ebreve" unicode="&#x115;" horiz-adv-x="538" 
d="M499 68l-16.499 -16.5c-9 -9 -22 -18.5 -39 -28.5s-38.667 -19 -65 -27s-57.833 -12 -94.5 -12c-37.333 0 -71.333 6.33301 -102 19s-56.834 30.167 -78.501 52.5s-38.334 49.166 -50.001 80.499s-17.5 66 -17.5 104c0 34.667 5.83301 66.834 17.5 96.501
s28 55.5 49 77.5s46 39.333 75 52s61.167 19 96.5 19c42.667 0 78.834 -7.83301 108.501 -23.5s53.5 -36.167 71.5 -61.5s31 -54 39 -86s12 -64.667 12 -98v-17h-350c0 -17.333 3.83301 -33 11.5 -47s17.667 -26 30 -36s26.333 -17.667 42 -23s31.167 -8 46.5 -8
c22.667 0 42.5 2.16699 59.5 6.5s31.5 9.33301 43.5 15s21.833 11.667 29.5 18s13.5 11.5 17.5 15.5zM384.001 284c0 12 -2.33301 24 -7 36s-11.5 22.833 -20.5 32.5s-20.5 17.667 -34.5 24s-30 9.5 -48 9.5c-19.333 0 -36.5 -3.16699 -51.5 -9.5s-27.5 -14.333 -37.5 -24
s-17.667 -20.5 -23 -32.5s-8 -24 -8 -36h230zM216.001 682c0 -16 4.49805 -30.833 13.498 -44.5s25.167 -20.5 48.5 -20.5s39.5 6.83301 48.5 20.5s13.5 28.5 13.5 44.5h92c0 -18 -3.16699 -35.5 -9.5 -52.5s-16 -32.167 -29 -45.5s-29.167 -24 -48.5 -32
s-41.666 -12 -66.999 -12s-47.666 4 -66.999 12s-35.5 18.667 -48.5 32s-22.667 28.5 -29 45.5s-9.5 34.5 -9.5 52.5h92z" />
    <glyph glyph-name="Edotaccent" unicode="&#x116;" horiz-adv-x="568" 
d="M70 667h432v-111h-306v-157h225v-112h-225v-174h329v-113h-455v667zM230 857h129v-123h-129v123z" />
    <glyph glyph-name="edotaccent" unicode="&#x117;" horiz-adv-x="538" 
d="M499 68l-16.499 -16.5c-9 -9 -22 -18.5 -39 -28.5s-38.667 -19 -65 -27s-57.833 -12 -94.5 -12c-37.333 0 -71.333 6.33301 -102 19s-56.834 30.167 -78.501 52.5s-38.334 49.166 -50.001 80.499s-17.5 66 -17.5 104c0 34.667 5.83301 66.834 17.5 96.501
s28 55.5 49 77.5s46 39.333 75 52s61.167 19 96.5 19c42.667 0 78.834 -7.83301 108.501 -23.5s53.5 -36.167 71.5 -61.5s31 -54 39 -86s12 -64.667 12 -98v-17h-350c0 -17.333 3.83301 -33 11.5 -47s17.667 -26 30 -36s26.333 -17.667 42 -23s31.167 -8 46.5 -8
c22.667 0 42.5 2.16699 59.5 6.5s31.5 9.33301 43.5 15s21.833 11.667 29.5 18s13.5 11.5 17.5 15.5zM384.001 284c0 12 -2.33301 24 -7 36s-11.5 22.833 -20.5 32.5s-20.5 17.667 -34.5 24s-30 9.5 -48 9.5c-19.333 0 -36.5 -3.16699 -51.5 -9.5s-27.5 -14.333 -37.5 -24
s-17.667 -20.5 -23 -32.5s-8 -24 -8 -36h230zM215.001 670h123v-117h-123v117z" />
    <glyph glyph-name="Eogonek" unicode="&#x118;" horiz-adv-x="568" 
d="M70 667l431.999 -0.000976562v-111h-306v-157h225v-112h-225v-174h329v-113h-58c-12.667 -12.667 -23.667 -26.667 -33 -42s-14 -28.666 -14 -39.999c0 -14 8.66699 -21 26 -21c9.33301 0 18 1.5 26 4.5s16 7.16699 24 12.5l29 -75
c-17.333 -11.333 -36.166 -20.333 -56.499 -27s-39.166 -10 -56.499 -10c-34.667 0 -60.167 7.33301 -76.5 22s-24.5 34 -24.5 58c0 20 6.16699 40.167 18.5 60.5s27.166 39.5 44.499 57.5h-304v667z" />
    <glyph glyph-name="eogonek" unicode="&#x119;" horiz-adv-x="538" 
d="M473 -156c-16.667 -11.333 -34.8301 -20.166 -54.4971 -26.499s-38.167 -9.5 -55.5 -9.5c-34 0 -58.833 7.16699 -74.5 21.5s-23.5 33.166 -23.5 56.499c0 16.667 4.5 33.5 13.5 50.5s20.167 33.167 33.5 48.5c-4.66699 0 -9.33398 -0.166992 -14.001 -0.5
s-9.33398 -0.5 -14.001 -0.5c-37.333 0 -71.333 6.66699 -102 20s-56.834 31.666 -78.501 54.999s-38.334 50.5 -50.001 81.5s-17.5 64.167 -17.5 99.5c0 34.667 6 66.834 18 96.501s28.5 55.5 49.5 77.5s46.167 39.333 75.5 52s61.666 19 96.999 19
c40 0 74.5 -7.83301 103.5 -23.5s52.833 -36.167 71.5 -61.5s32.334 -54 41.001 -86s13 -64.667 13 -98v-17h-350c0 -17.333 3.83301 -33 11.5 -47s17.667 -26 30 -36s26.333 -17.667 42 -23s31.167 -8 46.5 -8c22.667 0 42.5 2.16699 59.5 6.5s31.5 9.33301 43.5 15
s21.833 11.667 29.5 18s13.5 11.5 17.5 15.5l64 -72c-2.66699 -2.66699 -9 -8.16699 -19 -16.5s-23 -18.5 -39 -30.5c-7.33301 -5.33301 -15.333 -11.833 -24 -19.5s-16.834 -16 -24.501 -25s-14.167 -18.5 -19.5 -28.5s-8 -19.333 -8 -28c0 -14 8.33301 -21 25 -21
c10.667 0 20.334 1.83301 29.001 5.5s17.334 8.16699 26.001 13.5zM387.004 284c0 12 -2.33301 23.833 -7 35.5s-11.5 22.334 -20.5 32.001s-20.5 17.5 -34.5 23.5s-30 9 -48 9s-34.667 -3 -50 -9s-28.333 -13.833 -39 -23.5s-19 -20.334 -25 -32.001s-9 -23.5 -9 -35.5h233
z" />
    <glyph glyph-name="Ecaron" unicode="&#x11a;" horiz-adv-x="568" 
d="M70 667h432v-111h-306v-157h225v-112h-225v-174h329v-113h-455v667zM130 873h104l62 -82l61 82h104l-110 -156h-111z" />
    <glyph glyph-name="ecaron" unicode="&#x11b;" horiz-adv-x="538" 
d="M499 68l-16.499 -16.5c-9 -9 -22 -18.5 -39 -28.5s-38.667 -19 -65 -27s-57.833 -12 -94.5 -12c-37.333 0 -71.333 6.33301 -102 19s-56.834 30.167 -78.501 52.5s-38.334 49.166 -50.001 80.499s-17.5 66 -17.5 104c0 34.667 5.83301 66.834 17.5 96.501
s28 55.5 49 77.5s46 39.333 75 52s61.167 19 96.5 19c42.667 0 78.834 -7.83301 108.501 -23.5s53.5 -36.167 71.5 -61.5s31 -54 39 -86s12 -64.667 12 -98v-17h-350c0 -17.333 3.83301 -33 11.5 -47s17.667 -26 30 -36s26.333 -17.667 42 -23s31.167 -8 46.5 -8
c22.667 0 42.5 2.16699 59.5 6.5s31.5 9.33301 43.5 15s21.833 11.667 29.5 18s13.5 11.5 17.5 15.5zM384.001 284c0 12 -2.33301 24 -7 36s-11.5 22.833 -20.5 32.5s-20.5 17.667 -34.5 24s-30 9.5 -48 9.5c-19.333 0 -36.5 -3.16699 -51.5 -9.5s-27.5 -14.333 -37.5 -24
s-17.667 -20.5 -23 -32.5s-8 -24 -8 -36h230zM115.001 682h104l56 -76l55 76h104l-104 -142h-111z" />
    <glyph glyph-name="Gcircumflex" unicode="&#x11c;" horiz-adv-x="723" 
d="M421 353h239.004v-276c-26 -24.667 -60.333 -46.334 -103 -65.001s-97.334 -28 -164.001 -28c-54.667 0 -103.5 9 -146.5 27s-79.5 42.5 -109.5 73.5s-53 67.5 -69 109.5s-24 87.333 -24 136s8.33301 94.334 25 137.001s40.167 80 70.5 112s66.5 57.333 108.5 76
s88.333 28 139 28c32.667 0 62.667 -3.5 90 -10.5s52.166 -16.5 74.499 -28.5s42.166 -26.167 59.499 -42.5s32.666 -33.833 45.999 -52.5l-89 -79c-21.333 30.667 -46.166 55.334 -74.499 74.001s-63.833 28 -106.5 28c-32.667 0 -62 -6.5 -88 -19.5
s-48.167 -30.333 -66.5 -52s-32.333 -47 -42 -76s-14.5 -59.5 -14.5 -91.5c0 -36 5.83301 -68.333 17.5 -97s27.667 -53.334 48 -74.001s44 -36.5 71 -47.5s55.5 -16.5 85.5 -16.5c61.333 0 108.666 14.667 141.999 44v104h-119v107zM325.004 873h111l110 -156h-104l-62 82
l-61 -82h-104z" />
    <glyph glyph-name="gcircumflex" unicode="&#x11d;" horiz-adv-x="555" 
d="M134 -76c18.667 -12.667 38.833 -21.8359 60.5 -27.5029s47.167 -8.5 76.5 -8.5c30.667 0 56.334 9.33301 77.001 28s31 44.667 31 78v51c-16 -13.333 -33.5 -24.166 -52.5 -32.499s-44.167 -12.5 -75.5 -12.5c-34 0 -64.167 5.66699 -90.5 17
s-48.833 27.166 -67.5 47.499s-32.834 44.333 -42.501 72s-14.5 58.167 -14.5 91.5c0 34.667 6.16699 67.334 18.5 98.001s30 57.334 53 80.001s50.833 40.5 83.5 53.5s69.334 19.5 110.001 19.5s78.167 -3.33301 112.5 -10s62.166 -13.667 83.499 -21v-456
c0 -32.667 -5.66699 -61.667 -17 -87s-27 -46.666 -47 -63.999s-43.667 -30.5 -71 -39.5s-57 -13.5 -89 -13.5c-24.667 0 -46.5 1.16699 -65.5 3.5s-36 5.5 -51 9.5s-28.667 9 -41 15s-23.833 13 -34.5 21zM378.999 366.998c-9.33301 3.33301 -19 5.83398 -29 7.50098
s-25.667 2.5 -47 2.5c-24 0 -45 -4 -63 -12s-33.333 -18.667 -46 -32s-22.167 -28.833 -28.5 -46.5s-9.5 -36.167 -9.5 -55.5c0 -36 9 -66.333 27 -91s47 -37 87 -37c36 0 63.167 7.66699 81.5 23s27.5 39.666 27.5 72.999v168zM231.999 681.999h111l104 -142h-104l-56 76
l-55 -76h-104z" />
    <glyph glyph-name="Gbreve" unicode="&#x11e;" horiz-adv-x="723" 
d="M421 353h239.004v-276c-26 -24.667 -60.333 -46.334 -103 -65.001s-97.334 -28 -164.001 -28c-54.667 0 -103.5 9 -146.5 27s-79.5 42.5 -109.5 73.5s-53 67.5 -69 109.5s-24 87.333 -24 136s8.33301 94.334 25 137.001s40.167 80 70.5 112s66.5 57.333 108.5 76
s88.333 28 139 28c32.667 0 62.667 -3.5 90 -10.5s52.166 -16.5 74.499 -28.5s42.166 -26.167 59.499 -42.5s32.666 -33.833 45.999 -52.5l-89 -79c-21.333 30.667 -46.166 55.334 -74.499 74.001s-63.833 28 -106.5 28c-32.667 0 -62 -6.5 -88 -19.5
s-48.167 -30.333 -66.5 -52s-32.333 -47 -42 -76s-14.5 -59.5 -14.5 -91.5c0 -36 5.83301 -68.333 17.5 -97s27.667 -53.334 48 -74.001s44 -36.5 71 -47.5s55.5 -16.5 85.5 -16.5c61.333 0 108.666 14.667 141.999 44v104h-119v107zM312.004 863
c0 -17.333 5.83301 -32.833 17.5 -46.5s28.167 -20.5 49.5 -20.5s37.833 6.83301 49.5 20.5s17.5 29.167 17.5 46.5h93c0 -19.333 -3.33301 -37.833 -10 -55.5s-16.5 -33.5 -29.5 -47.5s-29.667 -25.167 -50 -33.5s-43.833 -12.5 -70.5 -12.5
c-27.333 0 -51 4.16699 -71 12.5s-36.5 19.5 -49.5 33.5s-22.833 29.833 -29.5 47.5s-10 36.167 -10 55.5h93z" />
    <glyph glyph-name="gbreve" unicode="&#x11f;" horiz-adv-x="555" 
d="M134 -76c18.667 -12.667 38.833 -21.8359 60.5 -27.5029s47.167 -8.5 76.5 -8.5c30.667 0 56.334 9.33301 77.001 28s31 44.667 31 78v51c-16 -13.333 -33.5 -24.166 -52.5 -32.499s-44.167 -12.5 -75.5 -12.5c-34 0 -64.167 5.66699 -90.5 17
s-48.833 27.166 -67.5 47.499s-32.834 44.333 -42.501 72s-14.5 58.167 -14.5 91.5c0 34.667 6.16699 67.334 18.5 98.001s30 57.334 53 80.001s50.833 40.5 83.5 53.5s69.334 19.5 110.001 19.5s78.167 -3.33301 112.5 -10s62.166 -13.667 83.499 -21v-456
c0 -32.667 -5.66699 -61.667 -17 -87s-27 -46.666 -47 -63.999s-43.667 -30.5 -71 -39.5s-57 -13.5 -89 -13.5c-24.667 0 -46.5 1.16699 -65.5 3.5s-36 5.5 -51 9.5s-28.667 9 -41 15s-23.833 13 -34.5 21zM378.999 366.998c-9.33301 3.33301 -19 5.83398 -29 7.50098
s-25.667 2.5 -47 2.5c-24 0 -45 -4 -63 -12s-33.333 -18.667 -46 -32s-22.167 -28.833 -28.5 -46.5s-9.5 -36.167 -9.5 -55.5c0 -36 9 -66.333 27 -91s47 -37 87 -37c36 0 63.167 7.66699 81.5 23s27.5 39.666 27.5 72.999v168zM236.999 681.999
c0 -16 4.49805 -30.833 13.498 -44.5s25.167 -20.5 48.5 -20.5s39.5 6.83301 48.5 20.5s13.5 28.5 13.5 44.5h92c0 -18 -3.16699 -35.5 -9.5 -52.5s-16 -32.167 -29 -45.5s-29.167 -24 -48.5 -32s-41.666 -12 -66.999 -12s-47.666 4 -66.999 12s-35.5 18.667 -48.5 32
s-22.667 28.5 -29 45.5s-9.5 34.5 -9.5 52.5h92z" />
    <glyph glyph-name="Gdotaccent" unicode="&#x120;" horiz-adv-x="723" 
d="M421 353h239.004v-276c-26 -24.667 -60.333 -46.334 -103 -65.001s-97.334 -28 -164.001 -28c-54.667 0 -103.5 9 -146.5 27s-79.5 42.5 -109.5 73.5s-53 67.5 -69 109.5s-24 87.333 -24 136s8.33301 94.334 25 137.001s40.167 80 70.5 112s66.5 57.333 108.5 76
s88.333 28 139 28c32.667 0 62.667 -3.5 90 -10.5s52.166 -16.5 74.499 -28.5s42.166 -26.167 59.499 -42.5s32.666 -33.833 45.999 -52.5l-89 -79c-21.333 30.667 -46.166 55.334 -74.499 74.001s-63.833 28 -106.5 28c-32.667 0 -62 -6.5 -88 -19.5
s-48.167 -30.333 -66.5 -52s-32.333 -47 -42 -76s-14.5 -59.5 -14.5 -91.5c0 -36 5.83301 -68.333 17.5 -97s27.667 -53.334 48 -74.001s44 -36.5 71 -47.5s55.5 -16.5 85.5 -16.5c61.333 0 108.666 14.667 141.999 44v104h-119v107zM318.004 857h129v-123h-129v123z" />
    <glyph glyph-name="gdotaccent" unicode="&#x121;" horiz-adv-x="555" 
d="M134 -76c18.667 -12.667 38.833 -21.8359 60.5 -27.5029s47.167 -8.5 76.5 -8.5c30.667 0 56.334 9.33301 77.001 28s31 44.667 31 78v51c-16 -13.333 -33.5 -24.166 -52.5 -32.499s-44.167 -12.5 -75.5 -12.5c-34 0 -64.167 5.66699 -90.5 17
s-48.833 27.166 -67.5 47.499s-32.834 44.333 -42.501 72s-14.5 58.167 -14.5 91.5c0 34.667 6.16699 67.334 18.5 98.001s30 57.334 53 80.001s50.833 40.5 83.5 53.5s69.334 19.5 110.001 19.5s78.167 -3.33301 112.5 -10s62.166 -13.667 83.499 -21v-456
c0 -32.667 -5.66699 -61.667 -17 -87s-27 -46.666 -47 -63.999s-43.667 -30.5 -71 -39.5s-57 -13.5 -89 -13.5c-24.667 0 -46.5 1.16699 -65.5 3.5s-36 5.5 -51 9.5s-28.667 9 -41 15s-23.833 13 -34.5 21zM378.999 366.998c-9.33301 3.33301 -19 5.83398 -29 7.50098
s-25.667 2.5 -47 2.5c-24 0 -45 -4 -63 -12s-33.333 -18.667 -46 -32s-22.167 -28.833 -28.5 -46.5s-9.5 -36.167 -9.5 -55.5c0 -36 9 -66.333 27 -91s47 -37 87 -37c36 0 63.167 7.66699 81.5 23s27.5 39.666 27.5 72.999v168zM237.999 669.999h123v-117h-123v117z" />
    <glyph glyph-name="Gcommaaccent" unicode="&#x122;" horiz-adv-x="723" 
d="M421 353h239.004v-276c-26 -24.667 -60.333 -46.334 -103 -65.001s-97.334 -28 -164.001 -28c-54.667 0 -103.5 9 -146.5 27s-79.5 42.5 -109.5 73.5s-53 67.5 -69 109.5s-24 87.333 -24 136s8.33301 94.334 25 137.001s40.167 80 70.5 112s66.5 57.333 108.5 76
s88.333 28 139 28c32.667 0 62.667 -3.5 90 -10.5s52.166 -16.5 74.499 -28.5s42.166 -26.167 59.499 -42.5s32.666 -33.833 45.999 -52.5l-89 -79c-21.333 30.667 -46.166 55.334 -74.499 74.001s-63.833 28 -106.5 28c-32.667 0 -62 -6.5 -88 -19.5
s-48.167 -30.333 -66.5 -52s-32.333 -47 -42 -76s-14.5 -59.5 -14.5 -91.5c0 -36 5.83301 -68.333 17.5 -97s27.667 -53.334 48 -74.001s44 -36.5 71 -47.5s55.5 -16.5 85.5 -16.5c61.333 0 108.666 14.667 141.999 44v104h-119v107zM320.004 -51h139l-88 -158h-104z" />
    <glyph glyph-name="gcommaaccent" unicode="&#x123;" horiz-adv-x="555" 
d="M134 -76c18.667 -12.667 38.833 -21.8359 60.5 -27.5029s47.167 -8.5 76.5 -8.5c30.667 0 56.334 9.33301 77.001 28s31 44.667 31 78v51c-16 -13.333 -33.5 -24.166 -52.5 -32.499s-44.167 -12.5 -75.5 -12.5c-34 0 -64.167 5.66699 -90.5 17
s-48.833 27.166 -67.5 47.499s-32.834 44.333 -42.501 72s-14.5 58.167 -14.5 91.5c0 34.667 6.16699 67.334 18.5 98.001s30 57.334 53 80.001s50.833 40.5 83.5 53.5s69.334 19.5 110.001 19.5s78.167 -3.33301 112.5 -10s62.166 -13.667 83.499 -21v-456
c0 -32.667 -5.66699 -61.667 -17 -87s-27 -46.666 -47 -63.999s-43.667 -30.5 -71 -39.5s-57 -13.5 -89 -13.5c-24.667 0 -46.5 1.16699 -65.5 3.5s-36 5.5 -51 9.5s-28.667 9 -41 15s-23.833 13 -34.5 21zM378.999 366.998c-9.33301 3.33301 -19 5.83398 -29 7.50098
s-25.667 2.5 -47 2.5c-24 0 -45 -4 -63 -12s-33.333 -18.667 -46 -32s-22.167 -28.833 -28.5 -46.5s-9.5 -36.167 -9.5 -55.5c0 -36 9 -66.333 27 -91s47 -37 87 -37c36 0 63.167 7.66699 81.5 23s27.5 39.666 27.5 72.999v168zM309.999 681.999h95l-48 -142h-126z" />
    <glyph glyph-name="Hcircumflex" unicode="&#x124;" horiz-adv-x="723" 
d="M70 667h126v-268h331v268h126v-667h-126v287h-331v-287h-126v667zM305 873h111l110 -156h-104l-62 82l-61 -82h-104z" />
    <glyph glyph-name="hcircumflex" unicode="&#x125;" horiz-adv-x="551" 
d="M58 667l115.999 -0.000976562v-246c12 13.333 29.5 26.333 52.5 39s52.5 19 88.5 19c28.667 0 54.334 -4.66699 77.001 -14s41.5 -22.5 56.5 -39.5s26.5 -37.5 34.5 -61.5s12 -50.333 12 -79v-285h-118v284c0 30 -8.16699 53.167 -24.5 69.5s-37.5 24.5 -63.5 24.5
c-16 0 -31 -3.16699 -45 -9.5s-26 -15.166 -36 -26.499s-17.833 -24.5 -23.5 -39.5s-8.5 -31.167 -8.5 -48.5v-254h-118v667zM171.999 872.999h111l110 -156h-104l-62 82l-61 -82h-104z" />
    <glyph glyph-name="Hbar" unicode="&#x126;" horiz-adv-x="723" 
d="M70 487h-70v88h70v92h125v-92h333v92h125v-92h70v-88h-70v-487h-125v287h-333v-287h-125v487zM528 399v88h-333v-88h333z" />
    <glyph glyph-name="hbar" unicode="&#x127;" horiz-adv-x="551" 
d="M58 522l-56.001 -0.000976562v79h56v66h116v-66h172v-79h-172v-121c12 13.333 29.5 26.333 52.5 39s52.5 19 88.5 19c28.667 0 54.334 -4.66699 77.001 -14s41.5 -22.5 56.5 -39.5s26.5 -37.5 34.5 -61.5s12 -50.333 12 -79v-265h-118v264
c0 30 -8.16699 53.167 -24.5 69.5s-37.5 24.5 -63.5 24.5c-16 0 -31 -3.16699 -45 -9.5s-26 -15.166 -36 -26.499s-17.833 -24.5 -23.5 -39.5s-8.5 -31.167 -8.5 -48.5v-234h-118v522z" />
    <glyph glyph-name="Itilde" unicode="&#x128;" horiz-adv-x="266" 
d="M70 667h126v-667h-126v667zM-66 804c6 6 13.334 12.6631 22.001 19.9961s18.5 14 29.5 20s22.833 11 35.5 15s26.334 6 41.001 6s27.334 -2.16699 38.001 -6.5s20.834 -9.16602 30.501 -14.499s19.667 -10.166 30 -14.499s22.5 -6.5 36.5 -6.5
c23.333 0 42.166 4.33301 56.499 13s26.166 16.667 35.499 24l49 -75c-6 -6 -13.333 -12.667 -22 -20s-18.334 -14.166 -29.001 -20.499s-22.334 -11.666 -35.001 -15.999s-26.334 -6.5 -41.001 -6.5s-27.334 2.33301 -38.001 7s-21 9.66699 -31 15s-20.167 10.333 -30.5 15
s-22.5 7 -36.5 7c-23.333 0 -42.166 -4.33301 -56.499 -13s-26.166 -16.667 -35.499 -24z" />
    <glyph glyph-name="itilde" unicode="&#x129;" horiz-adv-x="244" 
d="M63 469h118v-469h-118v469zM-68 615c5.33301 6 12.167 12.332 20.5 18.999s17.666 12.834 27.999 18.501s21.666 10.5 33.999 14.5s25.166 6 38.499 6c14 0 26 -2.16699 36 -6.5s19.667 -9 29 -14s19 -9.66699 29 -14s21.667 -6.5 35 -6.5c22.667 0 40.667 4.33301 54 13
s24.666 16.334 33.999 23.001l45 -70c-5.33301 -6 -12.166 -12.5 -20.499 -19.5s-17.5 -13.5 -27.5 -19.5s-21.167 -11 -33.5 -15s-25.166 -6 -38.499 -6c-14 0 -26.167 2.16699 -36.5 6.5s-20.166 9.33301 -29.499 15s-19 10.667 -29 15s-21.667 6.5 -35 6.5
c-22.667 0 -40.667 -4.33301 -54 -13s-24.666 -16.334 -33.999 -23.001z" />
    <glyph glyph-name="Imacron" unicode="&#x12a;" horiz-adv-x="266" 
d="M70 667h126v-667h-126v667zM-23 844h315v-97h-315v97z" />
    <glyph glyph-name="imacron" unicode="&#x12b;" horiz-adv-x="244" 
d="M63 469h118v-469h-118v469zM-8 649h261v-92h-261v92z" />
    <glyph glyph-name="Ibreve" unicode="&#x12c;" horiz-adv-x="266" 
d="M70 667h126v-667h-126v667zM66 863c0 -17.333 5.83301 -32.833 17.5 -46.5s28.167 -20.5 49.5 -20.5s37.833 6.83301 49.5 20.5s17.5 29.167 17.5 46.5h93c0 -19.333 -3.33301 -37.833 -10 -55.5s-16.5 -33.5 -29.5 -47.5s-29.667 -25.167 -50 -33.5
s-43.833 -12.5 -70.5 -12.5c-27.333 0 -51 4.16699 -71 12.5s-36.5 19.5 -49.5 33.5s-22.833 29.833 -29.5 47.5s-10 36.167 -10 55.5h93z" />
    <glyph glyph-name="ibreve" unicode="&#x12d;" horiz-adv-x="244" 
d="M63 469h118v-469h-118v469zM63 682c0 -16 4.49805 -30.833 13.498 -44.5s25.167 -20.5 48.5 -20.5s39.5 6.83301 48.5 20.5s13.5 28.5 13.5 44.5h92c0 -18 -3.16699 -35.5 -9.5 -52.5s-16 -32.167 -29 -45.5s-29.167 -24 -48.5 -32s-41.666 -12 -66.999 -12
s-47.666 4 -66.999 12s-35.5 18.667 -48.5 32s-22.667 28.5 -29 45.5s-9.5 34.5 -9.5 52.5h92z" />
    <glyph glyph-name="Iogonek" unicode="&#x12e;" horiz-adv-x="266" 
d="M70 667l125.999 -0.000976562v-667c-12.667 -12.667 -23.667 -26.667 -33 -42s-14 -28.666 -14 -39.999c0 -14 8.66699 -21 26 -21c9.33301 0 18 1.5 26 4.5s16 7.16699 24 12.5l29 -75c-17.333 -11.333 -36.166 -20.333 -56.499 -27s-39.166 -10 -56.499 -10
c-34.667 0 -60.167 7.33301 -76.5 22s-24.5 34 -24.5 58c0 20 6.16699 40.167 18.5 60.5s27.166 39.5 44.499 57.5h-33v667z" />
    <glyph glyph-name="iogonek" unicode="&#x12f;" horiz-adv-x="244" 
d="M63 469h117.999v-469c-12.667 -12 -24.5 -25.5 -35.5 -40.5s-16.5 -28.167 -16.5 -39.5c0 -14 8.33301 -21 25 -21c10.667 0 20.334 1.83301 29.001 5.5s17.334 8.16699 26.001 13.5l28 -74c-16.667 -11.333 -34.834 -20.166 -54.501 -26.499s-38.167 -9.5 -55.5 -9.5
c-34 0 -58.833 7.16699 -74.5 21.5s-23.5 33.166 -23.5 56.499c0 19.333 6 38.833 18 58.5s26.333 38.167 43 55.5h-27v469zM58.999 667h126v-124h-126v124z" />
    <glyph glyph-name="Idotaccent" unicode="&#x130;" horiz-adv-x="266" 
d="M70 667h126v-667h-126v667zM68 857h129v-123h-129v123z" />
    <glyph glyph-name="dotlessi" unicode="&#x131;" horiz-adv-x="244" 
d="M63 469h118v-469h-118v469z" />
    <glyph glyph-name="IJ" unicode="&#x132;" horiz-adv-x="791" 
d="M70 667h126v-667h-126v667zM381 157c21.333 -23.333 41 -38.833 59 -46.5s38.667 -11.5 62 -11.5c12 0 23.833 2.16699 35.5 6.5s22.167 10.833 31.5 19.5s16.833 19.5 22.5 32.5s8.5 28.167 8.5 45.5v464h126v-471c0 -40 -6.5 -73.667 -19.5 -101
s-29.833 -49.333 -50.5 -66s-44 -28.667 -70 -36s-52 -11 -78 -11c-52 0 -94.833 8.16699 -128.5 24.5s-62.5 39.833 -86.5 70.5z" />
    <glyph glyph-name="ij" unicode="&#x133;" horiz-adv-x="475" 
d="M59 667h126v-124h-126v124zM63 469h118v-469h-118v469zM289 667h126v-124h-126v124zM188 -83c6 -3.33301 13.3311 -6.83594 21.998 -10.5029s19.334 -5.5 32.001 -5.5c15.333 0 27.833 6.33301 37.5 19s14.5 31.334 14.5 56.001v493h118v-470
c0 -23.333 -1.83301 -46.666 -5.5 -69.999s-11 -44.666 -22 -63.999s-26.5 -35 -46.5 -47s-46.667 -18 -80 -18c-28 0 -51.167 4.16699 -69.5 12.5s-33.166 16.5 -44.499 24.5z" />
    <glyph glyph-name="Jcircumflex" unicode="&#x134;" horiz-adv-x="508" 
d="M98 157c21.333 -23.333 41 -38.833 59 -46.5s38.667 -11.5 62 -11.5c12 0 23.833 2.16699 35.5 6.5s22.167 10.833 31.5 19.5s16.833 19.5 22.5 32.5s8.5 28.167 8.5 45.5v464h126v-471c0 -40 -6.5 -73.667 -19.5 -101s-29.833 -49.333 -50.5 -66s-44 -28.667 -70 -36
s-52 -11 -78 -11c-52 0 -94.833 8.16699 -128.5 24.5s-62.5 39.833 -86.5 70.5zM326 873h111l110 -156h-104l-62 82l-61 -82h-104z" />
    <glyph glyph-name="jcircumflex" unicode="&#x135;" horiz-adv-x="244" 
d="M68 682h111l104 -142h-104l-56 76l-55 -76h-104zM-43 -83c6 -3.33301 13.3311 -6.83594 21.998 -10.5029s19.334 -5.5 32.001 -5.5c15.333 0 27.833 6.33301 37.5 19s14.5 31.334 14.5 56.001v493h118v-470c0 -23.333 -1.83301 -46.666 -5.5 -69.999
s-11 -44.666 -22 -63.999s-26.5 -35 -46.5 -47s-46.667 -18 -80 -18c-28 0 -51.167 4.16699 -69.5 12.5s-33.166 16.5 -44.499 24.5z" />
    <glyph glyph-name="Kcommaaccent" unicode="&#x136;" horiz-adv-x="621" 
d="M70 667h126v-274l247 274h143l-246 -273l273 -394h-152l-203 303l-62 -69v-234h-126v667zM246 -51h139l-88 -158h-104z" />
    <glyph glyph-name="kcommaaccent" unicode="&#x137;" horiz-adv-x="512" 
d="M58 667h118v-364l169 166h139l-176 -173l196 -296h-141l-136 216l-51 -50v-166h-118v667zM203 -51h126l-79 -142h-95z" />
    <glyph glyph-name="kgreenlandic" unicode="&#x138;" horiz-adv-x="512" 
d="M58 469h118v-166l169 166h139l-176 -173l196 -296h-141l-136 216l-51 -50v-166h-118v469z" />
    <glyph glyph-name="Lacute" unicode="&#x139;" horiz-adv-x="553" 
d="M70 667h126v-555h329v-112h-455v667zM153 873h146l-114 -156h-105z" />
    <glyph glyph-name="lacute" unicode="&#x13a;" horiz-adv-x="234" 
d="M58 667h118v-667h-118v667zM131 873h146l-114 -156h-105z" />
    <glyph glyph-name="Lcommaaccent" unicode="&#x13b;" horiz-adv-x="553" 
d="M70 667h126v-555h329v-112h-455v667zM233 -51h139l-88 -158h-104z" />
    <glyph glyph-name="lcommaaccent" unicode="&#x13c;" horiz-adv-x="234" 
d="M58 667h118v-667h-118v667zM53 -51h126l-79 -142h-95z" />
    <glyph glyph-name="Lcaron" unicode="&#x13d;" horiz-adv-x="553" 
d="M288 667h129l-34 -189h-95v189zM70 667h126v-555h329v-112h-455v667z" />
    <glyph glyph-name="lcaron" unicode="&#x13e;" horiz-adv-x="234" 
d="M58 667h118v-667h-118v667zM229 667h110l-34 -169h-76v169z" />
    <glyph glyph-name="Ldot" unicode="&#x13f;" horiz-adv-x="553" 
d="M70 667h126v-555h329v-112h-455v667zM341 440h129v-123h-129v123z" />
    <glyph glyph-name="ldot" unicode="&#x140;" horiz-adv-x="384" 
d="M58 667h118v-667h-118v667zM248 414h123v-117h-123v117z" />
    <glyph glyph-name="Lslash" unicode="&#x141;" horiz-adv-x="553" 
d="M70 252l-67 -42v109l67 42v306h126v-226l143 91v-110l-143 -90v-220h329v-112h-455v252z" />
    <glyph glyph-name="lslash" unicode="&#x142;" horiz-adv-x="234" 
d="M58 262l-55 -35v100l55 35v305h118v-228l55 36v-100l-55 -36v-339h-118v262z" />
    <glyph glyph-name="Nacute" unicode="&#x143;" horiz-adv-x="713" 
d="M70 667h127l323 -474v474h123v-667h-124l-326 480v-480h-123v667zM368 873h146l-114 -156h-105z" />
    <glyph glyph-name="nacute" unicode="&#x144;" horiz-adv-x="551" 
d="M58 469h112.997l3 -53c6 6.66699 13.167 13.667 21.5 21s18.333 14.166 30 20.499s24.834 11.5 39.501 15.5s31.334 6 50.001 6c58.667 0 103.334 -17.5 134.001 -52.5s46 -82.167 46 -141.5v-285h-118v284c0 30 -8.16699 53.167 -24.5 69.5s-37.5 24.5 -63.5 24.5
c-16 0 -31 -3.16699 -45 -9.5s-26 -15.166 -36 -26.499s-17.833 -24.5 -23.5 -39.5s-8.5 -31.167 -8.5 -48.5v-254h-118v469zM278.997 682h126l-79 -142h-95z" />
    <glyph glyph-name="Ncommaaccent" unicode="&#x145;" horiz-adv-x="713" 
d="M70 667h127l323 -474v474h123v-667h-124l-326 480v-480h-123v667zM310 -51h139l-88 -158h-104z" />
    <glyph glyph-name="ncommaaccent" unicode="&#x146;" horiz-adv-x="551" 
d="M58 469h112.997l3 -53c6 6.66699 13.167 13.667 21.5 21s18.333 14.166 30 20.499s24.834 11.5 39.501 15.5s31.334 6 50.001 6c58.667 0 103.334 -17.5 134.001 -52.5s46 -82.167 46 -141.5v-285h-118v284c0 30 -8.16699 53.167 -24.5 69.5s-37.5 24.5 -63.5 24.5
c-16 0 -31 -3.16699 -45 -9.5s-26 -15.166 -36 -26.499s-17.833 -24.5 -23.5 -39.5s-8.5 -31.167 -8.5 -48.5v-254h-118v469zM215.997 -51h126l-79 -142h-95z" />
    <glyph glyph-name="Ncaron" unicode="&#x147;" horiz-adv-x="713" 
d="M70 667h127l323 -474v474h123v-667h-124l-326 480v-480h-123v667zM194 873h104l62 -82l61 82h104l-110 -156h-111z" />
    <glyph glyph-name="ncaron" unicode="&#x148;" horiz-adv-x="551" 
d="M58 469h112.997l3 -53c6 6.66699 13.167 13.667 21.5 21s18.333 14.166 30 20.499s24.834 11.5 39.501 15.5s31.334 6 50.001 6c58.667 0 103.334 -17.5 134.001 -52.5s46 -82.167 46 -141.5v-285h-118v284c0 30 -8.16699 53.167 -24.5 69.5s-37.5 24.5 -63.5 24.5
c-16 0 -31 -3.16699 -45 -9.5s-26 -15.166 -36 -26.499s-17.833 -24.5 -23.5 -39.5s-8.5 -31.167 -8.5 -48.5v-254h-118v469zM121.997 682h104l56 -76l55 76h104l-104 -142h-111z" />
    <glyph glyph-name="napostrophe" unicode="&#x149;" horiz-adv-x="551" 
d="M58 469h112.997l3 -53c6 6.66699 13.167 13.667 21.5 21s18.333 14.166 30 20.499s24.834 11.5 39.501 15.5s31.334 6 50.001 6c58.667 0 103.334 -17.5 134.001 -52.5s46 -82.167 46 -141.5v-285h-118v284c0 30 -8.16699 53.167 -24.5 69.5s-37.5 24.5 -63.5 24.5
c-16 0 -31 -3.16699 -45 -9.5s-26 -15.166 -36 -26.499s-17.833 -24.5 -23.5 -39.5s-8.5 -31.167 -8.5 -48.5v-254h-118v469zM21.9971 682h119l-39 -142h-88z" />
    <glyph glyph-name="Eng" unicode="&#x14a;" horiz-adv-x="713" 
d="M70 667h127.001l323 -474v474h123v-667c0 -23.333 -2.16699 -47 -6.5 -71s-12.333 -45.5 -24 -64.5s-27.834 -34.5 -48.501 -46.5s-47.667 -18 -81 -18c-30 0 -54.333 4.16699 -73 12.5s-34.334 16.5 -47.001 24.5l46 84c6 -3.33301 13.667 -6.83301 23 -10.5
s20.333 -5.5 33 -5.5c16.667 0 29.834 6.5 39.501 19.5s14.5 32.167 14.5 57.5v18l-326 480v-480h-123v667z" />
    <glyph glyph-name="eng" unicode="&#x14b;" horiz-adv-x="551" 
d="M58 469l112.995 -0.00292969l3 -53c6 6.66699 13.167 13.667 21.5 21s18.333 14.166 30 20.499s24.834 11.5 39.501 15.5s31.334 6 50.001 6c28.667 0 54.334 -4.66699 77.001 -14s41.5 -22.5 56.5 -39.5s26.5 -37.5 34.5 -61.5s12 -50.333 12 -79v-285
c0 -23.333 -1.83301 -46.666 -5.5 -69.999s-11 -44.666 -22 -63.999s-26.5 -35 -46.5 -47s-46.667 -18 -80 -18c-28 0 -51.167 4.16699 -69.5 12.5s-33.166 16.5 -44.499 24.5l44 80c6 -3.33301 13.333 -6.83301 22 -10.5s19.334 -5.5 32.001 -5.5
c15.333 0 27.833 6.33301 37.5 19s14.5 31.334 14.5 56.001v307c0 30 -8.16699 53.167 -24.5 69.5s-37.5 24.5 -63.5 24.5c-16 0 -31 -3.16699 -45 -9.5s-26 -15.166 -36 -26.499s-17.833 -24.5 -23.5 -39.5s-8.5 -31.167 -8.5 -48.5v-254h-118v469z" />
    <glyph glyph-name="Omacron" unicode="&#x14c;" horiz-adv-x="782" 
d="M391 -18c-48.667 0 -94 9.16699 -136 27.5s-78.667 43.5 -110 75.5s-56 69.333 -74 112s-27 88.334 -27 137.001s9 94.334 27 137.001s42.5 79.834 73.5 111.501s67.667 56.667 110 75s87.833 27.5 136.5 27.5s94 -9.16699 136 -27.5s78.667 -43.333 110 -75
s56 -68.834 74 -111.501s27 -88.334 27 -137.001s-9 -94.334 -27 -137.001s-42.667 -80 -74 -112s-68 -57.167 -110 -75.5s-87.333 -27.5 -136 -27.5zM391 101c32.667 0 62.334 6.33301 89.001 19s49.334 29.834 68.001 51.501s33 46.834 43 75.501s15 58.667 15 90
c0 32 -5 62.167 -15 90.5s-24.333 53.166 -43 74.499s-41.334 38.166 -68.001 50.499s-56.334 18.5 -89.001 18.5c-33.333 0 -63.166 -6.16699 -89.499 -18.5s-48.833 -29.166 -67.5 -50.499s-33 -46.166 -43 -74.499s-15 -58.5 -15 -90.5c0 -31.333 5 -61.333 15 -90
s24.333 -53.834 43 -75.501s41.167 -38.834 67.5 -51.501s56.166 -19 89.499 -19zM235 844h315v-97h-315v97z" />
    <glyph glyph-name="omacron" unicode="&#x14d;" horiz-adv-x="576" 
d="M36 235c0 34 6.16699 66.167 18.5 96.5s29.5 56.833 51.5 79.5s48.5 40.667 79.5 54s65.167 20 102.5 20s71.5 -6.66699 102.5 -20s57.5 -31.333 79.5 -54s39.167 -49.167 51.5 -79.5s18.5 -62.5 18.5 -96.5s-6.16699 -66.167 -18.5 -96.5s-29.5 -57 -51.5 -80
s-48.5 -41.167 -79.5 -54.5s-65.167 -20 -102.5 -20s-71.5 6.66699 -102.5 20s-57.5 31.5 -79.5 54.5s-39.167 49.667 -51.5 80s-18.5 62.5 -18.5 96.5zM288 86c22.667 0 42.334 4.5 59.001 13.5s30.5 20.833 41.5 35.5s19.167 30.667 24.5 48s8 34.666 8 51.999
c0 16.667 -2.66699 33.834 -8 51.501s-13.5 33.667 -24.5 48s-24.833 26 -41.5 35s-36.334 13.5 -59.001 13.5s-42.334 -4.5 -59.001 -13.5s-30.5 -20.667 -41.5 -35s-19.167 -30.333 -24.5 -48s-8 -34.834 -8 -51.501c0 -17.333 2.66699 -34.666 8 -51.999
s13.5 -33.333 24.5 -48s24.833 -26.5 41.5 -35.5s36.334 -13.5 59.001 -13.5zM159 650h261v-92h-261v92z" />
    <glyph glyph-name="Obreve" unicode="&#x14e;" horiz-adv-x="782" 
d="M391 -18c-48.667 0 -94 9.16699 -136 27.5s-78.667 43.5 -110 75.5s-56 69.333 -74 112s-27 88.334 -27 137.001s9 94.334 27 137.001s42.5 79.834 73.5 111.501s67.667 56.667 110 75s87.833 27.5 136.5 27.5s94 -9.16699 136 -27.5s78.667 -43.333 110 -75
s56 -68.834 74 -111.501s27 -88.334 27 -137.001s-9 -94.334 -27 -137.001s-42.667 -80 -74 -112s-68 -57.167 -110 -75.5s-87.333 -27.5 -136 -27.5zM391 101c32.667 0 62.334 6.33301 89.001 19s49.334 29.834 68.001 51.501s33 46.834 43 75.501s15 58.667 15 90
c0 32 -5 62.167 -15 90.5s-24.333 53.166 -43 74.499s-41.334 38.166 -68.001 50.499s-56.334 18.5 -89.001 18.5c-33.333 0 -63.166 -6.16699 -89.499 -18.5s-48.833 -29.166 -67.5 -50.499s-33 -46.166 -43 -74.499s-15 -58.5 -15 -90.5c0 -31.333 5 -61.333 15 -90
s24.333 -53.834 43 -75.501s41.167 -38.834 67.5 -51.501s56.166 -19 89.499 -19zM324 863c0 -17.333 5.83301 -32.833 17.5 -46.5s28.167 -20.5 49.5 -20.5s37.833 6.83301 49.5 20.5s17.5 29.167 17.5 46.5h93c0 -19.333 -3.33301 -37.833 -10 -55.5
s-16.5 -33.5 -29.5 -47.5s-29.667 -25.167 -50 -33.5s-43.833 -12.5 -70.5 -12.5c-27.333 0 -51 4.16699 -71 12.5s-36.5 19.5 -49.5 33.5s-22.833 29.833 -29.5 47.5s-10 36.167 -10 55.5h93z" />
    <glyph glyph-name="obreve" unicode="&#x14f;" horiz-adv-x="576" 
d="M36 235c0 34 6.16699 66.167 18.5 96.5s29.5 56.833 51.5 79.5s48.5 40.667 79.5 54s65.167 20 102.5 20s71.5 -6.66699 102.5 -20s57.5 -31.333 79.5 -54s39.167 -49.167 51.5 -79.5s18.5 -62.5 18.5 -96.5s-6.16699 -66.167 -18.5 -96.5s-29.5 -57 -51.5 -80
s-48.5 -41.167 -79.5 -54.5s-65.167 -20 -102.5 -20s-71.5 6.66699 -102.5 20s-57.5 31.5 -79.5 54.5s-39.167 49.667 -51.5 80s-18.5 62.5 -18.5 96.5zM288 86c22.667 0 42.334 4.5 59.001 13.5s30.5 20.833 41.5 35.5s19.167 30.667 24.5 48s8 34.666 8 51.999
c0 16.667 -2.66699 33.834 -8 51.501s-13.5 33.667 -24.5 48s-24.833 26 -41.5 35s-36.334 13.5 -59.001 13.5s-42.334 -4.5 -59.001 -13.5s-30.5 -20.667 -41.5 -35s-19.167 -30.333 -24.5 -48s-8 -34.834 -8 -51.501c0 -17.333 2.66699 -34.666 8 -51.999
s13.5 -33.333 24.5 -48s24.833 -26.5 41.5 -35.5s36.334 -13.5 59.001 -13.5zM227 682c0 -16 4.49805 -30.833 13.498 -44.5s25.167 -20.5 48.5 -20.5s39.5 6.83301 48.5 20.5s13.5 28.5 13.5 44.5h92c0 -18 -3.16699 -35.5 -9.5 -52.5s-16 -32.167 -29 -45.5
s-29.167 -24 -48.5 -32s-41.666 -12 -66.999 -12s-47.666 4 -66.999 12s-35.5 18.667 -48.5 32s-22.667 28.5 -29 45.5s-9.5 34.5 -9.5 52.5h92z" />
    <glyph glyph-name="Ohungarumlaut" unicode="&#x150;" horiz-adv-x="782" 
d="M391 -18c-48.667 0 -94 9.16699 -136 27.5s-78.667 43.5 -110 75.5s-56 69.333 -74 112s-27 88.334 -27 137.001s9 94.334 27 137.001s42.5 79.834 73.5 111.501s67.667 56.667 110 75s87.833 27.5 136.5 27.5s94 -9.16699 136 -27.5s78.667 -43.333 110 -75
s56 -68.834 74 -111.501s27 -88.334 27 -137.001s-9 -94.334 -27 -137.001s-42.667 -80 -74 -112s-68 -57.167 -110 -75.5s-87.333 -27.5 -136 -27.5zM391 101c32.667 0 62.334 6.33301 89.001 19s49.334 29.834 68.001 51.501s33 46.834 43 75.501s15 58.667 15 90
c0 32 -5 62.167 -15 90.5s-24.333 53.166 -43 74.499s-41.334 38.166 -68.001 50.499s-56.334 18.5 -89.001 18.5c-33.333 0 -63.166 -6.16699 -89.499 -18.5s-48.833 -29.166 -67.5 -50.499s-33 -46.166 -43 -74.499s-15 -58.5 -15 -90.5c0 -31.333 5 -61.333 15 -90
s24.333 -53.834 43 -75.501s41.167 -38.834 67.5 -51.501s56.166 -19 89.499 -19zM329 873h138l-114 -156h-97zM514 873h138l-114 -156h-97z" />
    <glyph glyph-name="ohungarumlaut" unicode="&#x151;" horiz-adv-x="576" 
d="M36 235c0 34 6.16699 66.167 18.5 96.5s29.5 56.833 51.5 79.5s48.5 40.667 79.5 54s65.167 20 102.5 20s71.5 -6.66699 102.5 -20s57.5 -31.333 79.5 -54s39.167 -49.167 51.5 -79.5s18.5 -62.5 18.5 -96.5s-6.16699 -66.167 -18.5 -96.5s-29.5 -57 -51.5 -80
s-48.5 -41.167 -79.5 -54.5s-65.167 -20 -102.5 -20s-71.5 6.66699 -102.5 20s-57.5 31.5 -79.5 54.5s-39.167 49.667 -51.5 80s-18.5 62.5 -18.5 96.5zM288 86c22.667 0 42.334 4.5 59.001 13.5s30.5 20.833 41.5 35.5s19.167 30.667 24.5 48s8 34.666 8 51.999
c0 16.667 -2.66699 33.834 -8 51.501s-13.5 33.667 -24.5 48s-24.833 26 -41.5 35s-36.334 13.5 -59.001 13.5s-42.334 -4.5 -59.001 -13.5s-30.5 -20.667 -41.5 -35s-19.167 -30.333 -24.5 -48s-8 -34.834 -8 -51.501c0 -17.333 2.66699 -34.666 8 -51.999
s13.5 -33.333 24.5 -48s24.833 -26.5 41.5 -35.5s36.334 -13.5 59.001 -13.5zM365 682h119l-79 -142h-88zM203 682h119l-79 -142h-88z" />
    <glyph glyph-name="OE" unicode="&#x152;" horiz-adv-x="1104" 
d="M606 83c-10.667 -15.333 -23.833 -29.1689 -39.5 -41.502s-33 -22.833 -52 -31.5s-39.5 -15.5 -61.5 -20.5s-44.667 -7.5 -68 -7.5c-47.333 0 -91.666 9.16699 -132.999 27.5s-77.5 43.5 -108.5 75.5s-55.333 69.333 -73 112s-26.5 88.334 -26.5 137.001
s8.83301 94.334 26.5 137.001s42 79.834 73 111.501s67.167 56.667 108.5 75s85.666 27.5 132.999 27.5c48 0 91.5 -9.33301 130.5 -28s69.167 -42.334 90.5 -71.001v81h432v-111h-310v-157h229v-112h-229v-174h333v-113h-455v83zM391.001 100.997
c32.667 0 62.1689 6.33301 88.502 19s48.833 29.834 67.5 51.501s33 46.834 43 75.501s15 58.667 15 90c0 32 -5 62.167 -15 90.5s-24.333 53.166 -43 74.499s-41.334 38.166 -68.001 50.499s-56.334 18.5 -89.001 18.5c-33.333 0 -63.166 -6.16699 -89.499 -18.5
s-48.833 -29.166 -67.5 -50.499s-33 -46.166 -43 -74.499s-15 -58.5 -15 -90.5c0 -31.333 5 -61.333 15 -90s24.5 -53.834 43.5 -75.501s41.667 -38.834 68 -51.501s56.166 -19 89.499 -19z" />
    <glyph glyph-name="oe" unicode="&#x153;" horiz-adv-x="922" 
d="M883 68l-16.502 -16.5c-9 -9 -22 -18.5 -39 -28.5s-38.667 -19 -65 -27s-57.833 -12 -94.5 -12c-41.333 0 -78.166 8 -110.499 24s-59.5 39 -81.5 69c-20 -28 -46.5 -50.5 -79.5 -67.5s-69.167 -25.5 -108.5 -25.5c-37.333 0 -71.5 6.66699 -102.5 20
s-57.5 31.5 -79.5 54.5s-39.167 49.667 -51.5 80s-18.5 62.5 -18.5 96.5s6.16699 66.167 18.5 96.5s29.5 56.833 51.5 79.5s48.5 40.667 79.5 54s65.167 20 102.5 20c38.667 0 74.167 -8.33301 106.5 -25s58.833 -38.334 79.5 -65.001
c21.333 28.667 47.5 50.834 78.5 66.501s66.167 23.5 105.5 23.5c42.667 0 78.834 -7.83301 108.501 -23.5s53.5 -36.167 71.5 -61.5s31 -54 39 -86s12 -64.667 12 -98v-17h-350c0 -17.333 3.83301 -33 11.5 -47s17.667 -26 30 -36s26.333 -17.667 42 -23s31.167 -8 46.5 -8
c22.667 0 42.5 2.16699 59.5 6.5s31.5 9.33301 43.5 15s21.833 11.667 29.5 18s13.5 11.5 17.5 15.5zM767.998 284c0 12 -2.33301 24 -7 36s-11.5 22.833 -20.5 32.5s-20.5 17.667 -34.5 24s-30 9.5 -48 9.5c-19.333 0 -36.5 -3.16699 -51.5 -9.5s-27.5 -14.333 -37.5 -24
s-17.667 -20.5 -23 -32.5s-8 -24 -8 -36h230zM287.998 86c22.667 0 42.334 4.5 59.001 13.5s30.5 20.833 41.5 35.5s19.167 30.667 24.5 48s8 34.666 8 51.999c0 16.667 -2.66699 33.834 -8 51.501s-13.5 33.667 -24.5 48s-24.833 26 -41.5 35s-36.334 13.5 -59.001 13.5
s-42.334 -4.5 -59.001 -13.5s-30.5 -20.667 -41.5 -35s-19.167 -30.333 -24.5 -48s-8 -34.834 -8 -51.501c0 -17.333 2.66699 -34.666 8 -51.999s13.5 -33.333 24.5 -48s24.833 -26.5 41.5 -35.5s36.334 -13.5 59.001 -13.5z" />
    <glyph glyph-name="Racute" unicode="&#x154;" horiz-adv-x="586" 
d="M70 667l221 -0.000976562c42 0 77.667 -6.33301 107 -19s53 -28.834 71 -48.501s31.167 -41.167 39.5 -64.5s12.5 -45.666 12.5 -66.999c0 -42 -9.16699 -79.167 -27.5 -111.5s-46.5 -58.166 -84.5 -77.499l154 -279h-142l-135 263h-95v-263h-121v667zM292 366.999
c32 0 56.833 9.33203 74.5 27.999s26.5 41.334 26.5 68.001c0 28.667 -9.33301 52 -28 70s-43 27 -73 27h-101v-193h101zM279 872.998h146l-114 -156h-105z" />
    <glyph glyph-name="racute" unicode="&#x155;" horiz-adv-x="382" 
d="M58 469l113.002 -0.000976562l3 -59c5.33301 6.66699 12.166 14 20.499 22s18.166 15.333 29.499 22s24.5 12.334 39.5 17.001s32.167 7 51.5 7c11.333 0 21.5 -0.666992 30.5 -2s18.167 -3.66602 27.5 -6.99902l-24 -111c-8 3.33301 -16.167 5.66602 -24.5 6.99902
s-18.166 2 -29.499 2c-16 0 -31.333 -2.66699 -46 -8s-27.334 -13 -38.001 -23s-19.167 -22 -25.5 -36s-9.5 -29.667 -9.5 -47v-253h-118v469zM214.002 681.999h126l-79 -142h-95z" />
    <glyph glyph-name="Rcommaaccent" unicode="&#x156;" horiz-adv-x="586" 
d="M70 667l221 -0.000976562c42 0 77.667 -6.33301 107 -19s53 -28.834 71 -48.501s31.167 -41.167 39.5 -64.5s12.5 -45.666 12.5 -66.999c0 -42 -9.16699 -79.167 -27.5 -111.5s-46.5 -58.166 -84.5 -77.499l154 -279h-142l-135 263h-95v-263h-121v667zM292 366.999
c32 0 56.833 9.33203 74.5 27.999s26.5 41.334 26.5 68.001c0 28.667 -9.33301 52 -28 70s-43 27 -73 27h-101v-193h101zM236 -51.002h139l-88 -158h-104z" />
    <glyph glyph-name="rcommaaccent" unicode="&#x157;" horiz-adv-x="382" 
d="M58 469l113.002 -0.000976562l3 -59c5.33301 6.66699 12.166 14 20.499 22s18.166 15.333 29.499 22s24.5 12.334 39.5 17.001s32.167 7 51.5 7c11.333 0 21.5 -0.666992 30.5 -2s18.167 -3.66602 27.5 -6.99902l-24 -111c-8 3.33301 -16.167 5.66602 -24.5 6.99902
s-18.166 2 -29.499 2c-16 0 -31.333 -2.66699 -46 -8s-27.334 -13 -38.001 -23s-19.167 -22 -25.5 -36s-9.5 -29.667 -9.5 -47v-253h-118v469zM57.002 -51.001h126l-79 -142h-95z" />
    <glyph glyph-name="Rcaron" unicode="&#x158;" horiz-adv-x="586" 
d="M70 667l221 -0.000976562c42 0 77.667 -6.33301 107 -19s53 -28.834 71 -48.501s31.167 -41.167 39.5 -64.5s12.5 -45.666 12.5 -66.999c0 -42 -9.16699 -79.167 -27.5 -111.5s-46.5 -58.166 -84.5 -77.499l154 -279h-142l-135 263h-95v-263h-121v667zM292 366.999
c32 0 56.833 9.33203 74.5 27.999s26.5 41.334 26.5 68.001c0 28.667 -9.33301 52 -28 70s-43 27 -73 27h-101v-193h101zM108 872.998h104l62 -82l61 82h104l-110 -156h-111z" />
    <glyph glyph-name="rcaron" unicode="&#x159;" horiz-adv-x="382" 
d="M58 469l113.002 -0.000976562l3 -59c5.33301 6.66699 12.166 14 20.499 22s18.166 15.333 29.499 22s24.5 12.334 39.5 17.001s32.167 7 51.5 7c11.333 0 21.5 -0.666992 30.5 -2s18.167 -3.66602 27.5 -6.99902l-24 -111c-8 3.33301 -16.167 5.66602 -24.5 6.99902
s-18.166 2 -29.499 2c-16 0 -31.333 -2.66699 -46 -8s-27.334 -13 -38.001 -23s-19.167 -22 -25.5 -36s-9.5 -29.667 -9.5 -47v-253h-118v469zM50.002 681.999h104l56 -76l55 76h104l-104 -142h-111z" />
    <glyph glyph-name="Sacute" unicode="&#x15a;" horiz-adv-x="593" 
d="M119 188c8 -9.33301 17.502 -19.168 28.502 -29.501s23.333 -20 37 -29s29 -16.5 46 -22.5s36.167 -9 57.5 -9c39.333 0 68.5 9 87.5 27s28.5 39.667 28.5 65c0 14 -2.66699 26.5 -8 37.5s-14.333 20.667 -27 29s-29.167 15.833 -49.5 22.5s-45.5 13 -75.5 19
c-30.667 6 -57.167 15.333 -79.5 28s-40.833 27.667 -55.5 45s-25.667 36.5 -33 57.5s-11 42.5 -11 64.5c0 25.333 4.66699 49.5 14 72.5s23.666 43.333 42.999 61s43.5 31.834 72.5 42.501s63.167 16 102.5 16c35.333 0 65.666 -4 90.999 -12s46.5 -17.333 63.5 -28
s30.167 -21.167 39.5 -31.5l20 -22.5l-83 -78c-3.33301 2.66699 -8.66602 7.5 -15.999 14.5s-16.5 13.833 -27.5 20.5s-24.167 12.667 -39.5 18s-32.666 8 -51.999 8c-17.333 0 -32.333 -2.33301 -45 -7s-23.167 -10.667 -31.5 -18s-14.5 -15.5 -18.5 -24.5
s-6 -17.5 -6 -25.5c0 -12 2.16699 -22.667 6.5 -32s11.666 -18 21.999 -26s24.5 -15.167 42.5 -21.5s40.667 -12.166 68 -17.499c26 -5.33301 51 -13.333 75 -24s45.167 -24.5 63.5 -41.5s33 -37.667 44 -62s16.5 -53.5 16.5 -87.5c0 -29.333 -6 -56.333 -18 -81
s-28.667 -46.334 -50 -65.001s-46.666 -33.167 -75.999 -43.5s-61.333 -15.5 -96 -15.5c-33.333 0 -63.5 4 -90.5 12s-51.333 18.167 -73 30.5s-40.334 25.833 -56.001 40.5s-28.834 28.667 -39.501 42zM309.002 872.998h146l-114 -156h-105z" />
    <glyph glyph-name="sacute" unicode="&#x15b;" horiz-adv-x="478" 
d="M106 134c14.667 -14.667 33.168 -26.833 55.501 -36.5s47.833 -14.5 76.5 -14.5c25.333 0 45.666 3.33301 60.999 10s23 17.667 23 33c0 6.66699 -1.33301 12.834 -4 18.501s-8.33398 11.167 -17.001 16.5s-20.667 10.666 -36 15.999s-36 11 -62 17
c-16 4 -32.667 9.33301 -50 16s-33.5 15.834 -48.5 27.501s-27.333 25.667 -37 42s-14.5 35.833 -14.5 58.5c0 23.333 5.66699 44.166 17 62.499s26.166 33.666 44.499 45.999s39 21.833 62 28.5s46.167 10 69.5 10c41.333 0 76.5 -4.33301 105.5 -13
s55.167 -21.667 78.5 -39l-61 -83c-12.667 9.33301 -29.334 17.833 -50.001 25.5s-45 11.5 -73 11.5s-47.5 -4.16699 -58.5 -12.5s-16.5 -18.5 -16.5 -30.5c0 -14.667 9.16699 -26.167 27.5 -34.5s46.833 -17.166 85.5 -26.499c24 -5.33301 45.5 -12 64.5 -20
s35.333 -18 49 -30s24.167 -26.167 31.5 -42.5s11 -35.833 11 -58.5s-5.33301 -43.167 -16 -61.5s-25.167 -33.833 -43.5 -46.5s-39.666 -22.5 -63.999 -29.5s-50.166 -10.5 -77.499 -10.5c-44 0 -83.667 6.16699 -119 18.5s-63.666 30.5 -84.999 54.5zM247.001 682.001h126
l-79 -142h-95z" />
    <glyph glyph-name="Scircumflex" unicode="&#x15c;" horiz-adv-x="593" 
d="M119 188c8 -9.33301 17.502 -19.168 28.502 -29.501s23.333 -20 37 -29s29 -16.5 46 -22.5s36.167 -9 57.5 -9c39.333 0 68.5 9 87.5 27s28.5 39.667 28.5 65c0 14 -2.66699 26.5 -8 37.5s-14.333 20.667 -27 29s-29.167 15.833 -49.5 22.5s-45.5 13 -75.5 19
c-30.667 6 -57.167 15.333 -79.5 28s-40.833 27.667 -55.5 45s-25.667 36.5 -33 57.5s-11 42.5 -11 64.5c0 25.333 4.66699 49.5 14 72.5s23.666 43.333 42.999 61s43.5 31.834 72.5 42.501s63.167 16 102.5 16c35.333 0 65.666 -4 90.999 -12s46.5 -17.333 63.5 -28
s30.167 -21.167 39.5 -31.5l20 -22.5l-83 -78c-3.33301 2.66699 -8.66602 7.5 -15.999 14.5s-16.5 13.833 -27.5 20.5s-24.167 12.667 -39.5 18s-32.666 8 -51.999 8c-17.333 0 -32.333 -2.33301 -45 -7s-23.167 -10.667 -31.5 -18s-14.5 -15.5 -18.5 -24.5
s-6 -17.5 -6 -25.5c0 -12 2.16699 -22.667 6.5 -32s11.666 -18 21.999 -26s24.5 -15.167 42.5 -21.5s40.667 -12.166 68 -17.499c26 -5.33301 51 -13.333 75 -24s45.167 -24.5 63.5 -41.5s33 -37.667 44 -62s16.5 -53.5 16.5 -87.5c0 -29.333 -6 -56.333 -18 -81
s-28.667 -46.334 -50 -65.001s-46.666 -33.167 -75.999 -43.5s-61.333 -15.5 -96 -15.5c-33.333 0 -63.5 4 -90.5 12s-51.333 18.167 -73 30.5s-40.334 25.833 -56.001 40.5s-28.834 28.667 -39.501 42zM242.002 872.998h111l110 -156h-104l-62 82l-61 -82h-104z" />
    <glyph glyph-name="scircumflex" unicode="&#x15d;" horiz-adv-x="478" 
d="M106 134c14.667 -14.667 33.168 -26.833 55.501 -36.5s47.833 -14.5 76.5 -14.5c25.333 0 45.666 3.33301 60.999 10s23 17.667 23 33c0 6.66699 -1.33301 12.834 -4 18.501s-8.33398 11.167 -17.001 16.5s-20.667 10.666 -36 15.999s-36 11 -62 17
c-16 4 -32.667 9.33301 -50 16s-33.5 15.834 -48.5 27.501s-27.333 25.667 -37 42s-14.5 35.833 -14.5 58.5c0 23.333 5.66699 44.166 17 62.499s26.166 33.666 44.499 45.999s39 21.833 62 28.5s46.167 10 69.5 10c41.333 0 76.5 -4.33301 105.5 -13
s55.167 -21.667 78.5 -39l-61 -83c-12.667 9.33301 -29.334 17.833 -50.001 25.5s-45 11.5 -73 11.5s-47.5 -4.16699 -58.5 -12.5s-16.5 -18.5 -16.5 -30.5c0 -14.667 9.16699 -26.167 27.5 -34.5s46.833 -17.166 85.5 -26.499c24 -5.33301 45.5 -12 64.5 -20
s35.333 -18 49 -30s24.167 -26.167 31.5 -42.5s11 -35.833 11 -58.5s-5.33301 -43.167 -16 -61.5s-25.167 -33.833 -43.5 -46.5s-39.666 -22.5 -63.999 -29.5s-50.166 -10.5 -77.499 -10.5c-44 0 -83.667 6.16699 -119 18.5s-63.666 30.5 -84.999 54.5zM196.001 682.001h111
l104 -142h-104l-56 76l-55 -76h-104z" />
    <glyph glyph-name="Scedilla" unicode="&#x15e;" horiz-adv-x="593" 
d="M119 188c8 -9.33301 17.502 -19.168 28.502 -29.501s23.333 -20 37 -29s29 -16.5 46 -22.5s36.167 -9 57.5 -9c39.333 0 68.5 9 87.5 27s28.5 39.667 28.5 65c0 14 -2.66699 26.5 -8 37.5s-14.333 20.667 -27 29s-29.167 15.833 -49.5 22.5s-45.5 13 -75.5 19
c-30.667 6 -57.167 15.333 -79.5 28s-40.833 27.667 -55.5 45s-25.667 36.5 -33 57.5s-11 42.5 -11 64.5c0 25.333 4.66699 49.5 14 72.5s23.666 43.333 42.999 61s43.5 31.834 72.5 42.501s63.167 16 102.5 16c35.333 0 65.666 -4 90.999 -12s46.5 -17.333 63.5 -28
s30.167 -21.167 39.5 -31.5l20 -22.5l-83 -78c-3.33301 2.66699 -8.66602 7.5 -15.999 14.5s-16.5 13.833 -27.5 20.5s-24.167 12.667 -39.5 18s-32.666 8 -51.999 8c-17.333 0 -32.333 -2.33301 -45 -7s-23.167 -10.667 -31.5 -18s-14.5 -15.5 -18.5 -24.5
s-6 -17.5 -6 -25.5c0 -12 2.16699 -22.667 6.5 -32s11.666 -18 21.999 -26s24.5 -15.167 42.5 -21.5s40.667 -12.166 68 -17.499c26 -5.33301 51 -13.333 75 -24s45.167 -24.5 63.5 -41.5s33 -37.667 44 -62s16.5 -53.5 16.5 -87.5c0 -29.333 -6 -56.333 -18 -81
s-28.667 -46.334 -50 -65.001s-46.666 -33.167 -75.999 -43.5s-61.333 -15.5 -96 -15.5c-33.333 0 -63.5 4 -90.5 12s-51.333 18.167 -73 30.5s-40.334 25.833 -56.001 40.5s-28.834 28.667 -39.501 42zM178.002 -150.002
c12.667 -4.66699 24.8301 -7.83398 36.4971 -9.50098s22.834 -2.5 33.501 -2.5c17.333 0 31 2.5 41 7.5s15 12.5 15 22.5c0 8 -4.16699 14.833 -12.5 20.5s-21.5 8.5 -39.5 8.5c-11.333 0 -22.666 -1 -33.999 -3s-21.333 -4.66699 -30 -8l11 68
c12 3.33301 24.333 6.16602 37 8.49902s28.667 3.5 48 3.5c36 0 64.5 -8.66699 85.5 -26s31.5 -39.666 31.5 -66.999c0 -17.333 -3.83301 -32.666 -11.5 -45.999s-17.667 -24.5 -30 -33.5s-26.5 -15.667 -42.5 -20s-32.333 -6.5 -49 -6.5c-16 0 -30.167 0.666992 -42.5 2
s-23.166 3 -32.499 5c-10.667 2 -20 4.33301 -28 7z" />
    <glyph glyph-name="scedilla" unicode="&#x15f;" horiz-adv-x="478" 
d="M106 134c14.667 -14.667 33.168 -26.833 55.501 -36.5s47.833 -14.5 76.5 -14.5c25.333 0 45.666 3.33301 60.999 10s23 17.667 23 33c0 6.66699 -1.33301 12.834 -4 18.501s-8.33398 11.167 -17.001 16.5s-20.667 10.666 -36 15.999s-36 11 -62 17
c-16 4 -32.667 9.33301 -50 16s-33.5 15.834 -48.5 27.501s-27.333 25.667 -37 42s-14.5 35.833 -14.5 58.5c0 23.333 5.66699 44.166 17 62.499s26.166 33.666 44.499 45.999s39 21.833 62 28.5s46.167 10 69.5 10c41.333 0 76.5 -4.33301 105.5 -13
s55.167 -21.667 78.5 -39l-61 -83c-12.667 9.33301 -29.334 17.833 -50.001 25.5s-45 11.5 -73 11.5s-47.5 -4.16699 -58.5 -12.5s-16.5 -18.5 -16.5 -30.5c0 -14.667 9.16699 -26.167 27.5 -34.5s46.833 -17.166 85.5 -26.499c24 -5.33301 45.5 -12 64.5 -20
s35.333 -18 49 -30s24.167 -26.167 31.5 -42.5s11 -35.833 11 -58.5s-5.33301 -43.167 -16 -61.5s-25.167 -33.833 -43.5 -46.5s-39.666 -22.5 -63.999 -29.5s-50.166 -10.5 -77.499 -10.5c-44 0 -83.667 6.16699 -119 18.5s-63.666 30.5 -84.999 54.5zM128.001 -149.999
c12.667 -4.66699 24.666 -7.83398 35.999 -9.50098s22.333 -2.5 33 -2.5c38.667 0 58 10.667 58 32c0 8 -4.16699 15 -12.5 21s-22.166 9 -41.499 9c-11.333 0 -22.5 -1 -33.5 -3s-20.833 -4.66699 -29.5 -8l11 67c12 3.33301 24.167 6.16602 36.5 8.49902
s28.166 3.5 47.499 3.5c36 0 64.167 -8.66699 84.5 -26s30.5 -39.666 30.5 -66.999c0 -17.333 -3.66699 -32.666 -11 -45.999s-17.166 -24.5 -29.499 -33.5s-26.333 -15.667 -42 -20s-31.834 -6.5 -48.501 -6.5c-16 0 -30.167 0.666992 -42.5 2s-23.166 3 -32.499 5
c-10.667 2 -19.667 4.33301 -27 7z" />
    <glyph glyph-name="Scaron" unicode="&#x160;" horiz-adv-x="593" 
d="M119 188c8 -9.33301 17.502 -19.168 28.502 -29.501s23.333 -20 37 -29s29 -16.5 46 -22.5s36.167 -9 57.5 -9c39.333 0 68.5 9 87.5 27s28.5 39.667 28.5 65c0 14 -2.66699 26.5 -8 37.5s-14.333 20.667 -27 29s-29.167 15.833 -49.5 22.5s-45.5 13 -75.5 19
c-30.667 6 -57.167 15.333 -79.5 28s-40.833 27.667 -55.5 45s-25.667 36.5 -33 57.5s-11 42.5 -11 64.5c0 25.333 4.66699 49.5 14 72.5s23.666 43.333 42.999 61s43.5 31.834 72.5 42.501s63.167 16 102.5 16c35.333 0 65.666 -4 90.999 -12s46.5 -17.333 63.5 -28
s30.167 -21.167 39.5 -31.5l20 -22.5l-83 -78c-3.33301 2.66699 -8.66602 7.5 -15.999 14.5s-16.5 13.833 -27.5 20.5s-24.167 12.667 -39.5 18s-32.666 8 -51.999 8c-17.333 0 -32.333 -2.33301 -45 -7s-23.167 -10.667 -31.5 -18s-14.5 -15.5 -18.5 -24.5
s-6 -17.5 -6 -25.5c0 -12 2.16699 -22.667 6.5 -32s11.666 -18 21.999 -26s24.5 -15.167 42.5 -21.5s40.667 -12.166 68 -17.499c26 -5.33301 51 -13.333 75 -24s45.167 -24.5 63.5 -41.5s33 -37.667 44 -62s16.5 -53.5 16.5 -87.5c0 -29.333 -6 -56.333 -18 -81
s-28.667 -46.334 -50 -65.001s-46.666 -33.167 -75.999 -43.5s-61.333 -15.5 -96 -15.5c-33.333 0 -63.5 4 -90.5 12s-51.333 18.167 -73 30.5s-40.334 25.833 -56.001 40.5s-28.834 28.667 -39.501 42zM133.002 872.998h104l62 -82l61 82h104l-110 -156h-111z" />
    <glyph glyph-name="scaron" unicode="&#x161;" horiz-adv-x="478" 
d="M106 134c14.667 -14.667 33.168 -26.833 55.501 -36.5s47.833 -14.5 76.5 -14.5c25.333 0 45.666 3.33301 60.999 10s23 17.667 23 33c0 6.66699 -1.33301 12.834 -4 18.501s-8.33398 11.167 -17.001 16.5s-20.667 10.666 -36 15.999s-36 11 -62 17
c-16 4 -32.667 9.33301 -50 16s-33.5 15.834 -48.5 27.501s-27.333 25.667 -37 42s-14.5 35.833 -14.5 58.5c0 23.333 5.66699 44.166 17 62.499s26.166 33.666 44.499 45.999s39 21.833 62 28.5s46.167 10 69.5 10c41.333 0 76.5 -4.33301 105.5 -13
s55.167 -21.667 78.5 -39l-61 -83c-12.667 9.33301 -29.334 17.833 -50.001 25.5s-45 11.5 -73 11.5s-47.5 -4.16699 -58.5 -12.5s-16.5 -18.5 -16.5 -30.5c0 -14.667 9.16699 -26.167 27.5 -34.5s46.833 -17.166 85.5 -26.499c24 -5.33301 45.5 -12 64.5 -20
s35.333 -18 49 -30s24.167 -26.167 31.5 -42.5s11 -35.833 11 -58.5s-5.33301 -43.167 -16 -61.5s-25.167 -33.833 -43.5 -46.5s-39.666 -22.5 -63.999 -29.5s-50.166 -10.5 -77.499 -10.5c-44 0 -83.667 6.16699 -119 18.5s-63.666 30.5 -84.999 54.5zM95.001 682.001h104
l56 -76l55 76h104l-104 -142h-111z" />
    <glyph glyph-name="Tcommaaccent" unicode="&#x162;" horiz-adv-x="624" 
d="M249 556h-226v111h578v-111h-226v-556h-126v556zM243 -51h139l-88 -158h-104z" />
    <glyph glyph-name="tcommaaccent" unicode="&#x163;" horiz-adv-x="402" 
d="M98 373l-80.001 0.000976562v96h80v152h118v-152h126v-96h-126v-205c0 -26.667 4.5 -47.167 13.5 -61.5s23.5 -21.5 43.5 -21.5c18.667 0 33.5 2.66699 44.5 8s21.5 11.666 31.5 18.999l50 -73c-23.333 -19.333 -46.333 -33.166 -69 -41.499s-48 -12.5 -76 -12.5
c-28.667 0 -53 4.16699 -73 12.5s-36.167 20.166 -48.5 35.499s-21.166 33.833 -26.499 55.5s-8 45.5 -8 71.5v213zM185.999 -50.999h126l-79 -142h-95z" />
    <glyph glyph-name="Tcaron" unicode="&#x164;" horiz-adv-x="624" 
d="M249 556h-226v111h578v-111h-226v-556h-126v556zM146 873h104l62 -82l61 82h104l-110 -156h-111z" />
    <glyph glyph-name="tcaron" unicode="&#x165;" horiz-adv-x="402" 
d="M269 668h110l-34 -155h-76v155zM98 373l-80.001 0.000976562v96h80v152h118v-152h126v-96h-126v-205c0 -26.667 4.5 -47.167 13.5 -61.5s23.5 -21.5 43.5 -21.5c18.667 0 33.5 2.66699 44.5 8s21.5 11.666 31.5 18.999l50 -73
c-23.333 -19.333 -46.333 -33.166 -69 -41.499s-48 -12.5 -76 -12.5c-28.667 0 -53 4.16699 -73 12.5s-36.167 20.166 -48.5 35.499s-21.166 33.833 -26.499 55.5s-8 45.5 -8 71.5v213z" />
    <glyph glyph-name="Tbar" unicode="&#x166;" horiz-adv-x="624" 
d="M249 255h-134v104h134v197h-226v111h578v-111h-226v-197h133v-104h-133v-255h-126v255z" />
    <glyph glyph-name="tbar" unicode="&#x167;" horiz-adv-x="402" 
d="M19 280l78.999 0.000976562v93h-80v96h80v152h118v-152h126v-96h-126v-93h126v-84h-126v-28c0 -26.667 4.5 -47.167 13.5 -61.5s23.5 -21.5 43.5 -21.5c18.667 0 33.5 2.66699 44.5 8s21.5 11.666 31.5 18.999l50 -73c-23.333 -19.333 -46.333 -33.166 -69 -41.499
s-48 -12.5 -76 -12.5c-28.667 0 -53 4.16699 -73 12.5s-36.167 20.166 -48.5 35.499s-21.166 33.833 -26.499 55.5s-8 45.5 -8 71.5v36h-79v84z" />
    <glyph glyph-name="Utilde" unicode="&#x168;" horiz-adv-x="674" 
d="M65 667h126v-399c0 -25.333 2.5 -48.166 7.5 -68.499s13.167 -37.666 24.5 -51.999s26.333 -25.333 45 -33s41.667 -11.5 69 -11.5s50.333 3.83301 69 11.5s33.667 18.667 45 33s19.5 31.666 24.5 51.999s7.5 43.166 7.5 68.499v399h126v-421c0 -37.333 -6 -72 -18 -104
s-29.667 -59.833 -53 -83.5s-51.833 -42.334 -85.5 -56.001s-72.167 -20.5 -115.5 -20.5s-81.833 6.83301 -115.5 20.5s-62.167 32.334 -85.5 56.001s-41 51.5 -53 83.5s-18 66.667 -18 104v421zM133 804c6 6 13.334 12.6631 22.001 19.9961s18.5 14 29.5 20
s22.833 11 35.5 15s26.334 6 41.001 6s27.334 -2.16699 38.001 -6.5s20.834 -9.16602 30.501 -14.499s19.667 -10.166 30 -14.499s22.5 -6.5 36.5 -6.5c23.333 0 42.166 4.33301 56.499 13s26.166 16.667 35.499 24l49 -75c-6 -6 -13.333 -12.667 -22 -20
s-18.334 -14.166 -29.001 -20.499s-22.334 -11.666 -35.001 -15.999s-26.334 -6.5 -41.001 -6.5s-27.334 2.33301 -38.001 7s-21 9.66699 -31 15s-20.167 10.333 -30.5 15s-22.5 7 -36.5 7c-23.333 0 -42.166 -4.33301 -56.499 -13s-26.166 -16.667 -35.499 -24z" />
    <glyph glyph-name="utilde" unicode="&#x169;" horiz-adv-x="551" 
d="M56 469h118.002v-284c0 -30 8.16699 -53.167 24.5 -69.5s37.5 -24.5 63.5 -24.5c16 0 31 3.16699 45 9.5s26 15.166 36 26.499s17.833 24.5 23.5 39.5s8.5 31.167 8.5 48.5v254h118v-469h-113l-3 53c-6 -6.66699 -13.333 -13.667 -22 -21s-18.667 -14.166 -30 -20.499
s-24.333 -11.5 -39 -15.5s-31.334 -6 -50.001 -6c-58.667 0 -103.334 17.5 -134.001 52.5s-46 82.167 -46 141.5v285zM79.002 615c5.33301 6 12.167 12.332 20.5 18.999s17.666 12.834 27.999 18.501s21.666 10.5 33.999 14.5s25.166 6 38.499 6c14 0 26 -2.16699 36 -6.5
s19.667 -9 29 -14s19 -9.66699 29 -14s21.667 -6.5 35 -6.5c22.667 0 40.667 4.33301 54 13s24.666 16.334 33.999 23.001l45 -70c-5.33301 -6 -12.166 -12.5 -20.499 -19.5s-17.5 -13.5 -27.5 -19.5s-21.167 -11 -33.5 -15s-25.166 -6 -38.499 -6
c-14 0 -26.167 2.16699 -36.5 6.5s-20.166 9.33301 -29.499 15s-19 10.667 -29 15s-21.667 6.5 -35 6.5c-22.667 0 -40.667 -4.33301 -54 -13s-24.666 -16.334 -33.999 -23.001z" />
    <glyph glyph-name="Umacron" unicode="&#x16a;" horiz-adv-x="674" 
d="M65 667h126v-399c0 -25.333 2.5 -48.166 7.5 -68.499s13.167 -37.666 24.5 -51.999s26.333 -25.333 45 -33s41.667 -11.5 69 -11.5s50.333 3.83301 69 11.5s33.667 18.667 45 33s19.5 31.666 24.5 51.999s7.5 43.166 7.5 68.499v399h126v-421c0 -37.333 -6 -72 -18 -104
s-29.667 -59.833 -53 -83.5s-51.833 -42.334 -85.5 -56.001s-72.167 -20.5 -115.5 -20.5s-81.833 6.83301 -115.5 20.5s-62.167 32.334 -85.5 56.001s-41 51.5 -53 83.5s-18 66.667 -18 104v421zM181 844h315v-97h-315v97z" />
    <glyph glyph-name="umacron" unicode="&#x16b;" horiz-adv-x="551" 
d="M56 469h118.002v-284c0 -30 8.16699 -53.167 24.5 -69.5s37.5 -24.5 63.5 -24.5c16 0 31 3.16699 45 9.5s26 15.166 36 26.499s17.833 24.5 23.5 39.5s8.5 31.167 8.5 48.5v254h118v-469h-113l-3 53c-6 -6.66699 -13.333 -13.667 -22 -21s-18.667 -14.166 -30 -20.499
s-24.333 -11.5 -39 -15.5s-31.334 -6 -50.001 -6c-58.667 0 -103.334 17.5 -134.001 52.5s-46 82.167 -46 141.5v285zM142.002 649h261v-92h-261v92z" />
    <glyph glyph-name="Ubreve" unicode="&#x16c;" horiz-adv-x="674" 
d="M65 667h126v-399c0 -25.333 2.5 -48.166 7.5 -68.499s13.167 -37.666 24.5 -51.999s26.333 -25.333 45 -33s41.667 -11.5 69 -11.5s50.333 3.83301 69 11.5s33.667 18.667 45 33s19.5 31.666 24.5 51.999s7.5 43.166 7.5 68.499v399h126v-421c0 -37.333 -6 -72 -18 -104
s-29.667 -59.833 -53 -83.5s-51.833 -42.334 -85.5 -56.001s-72.167 -20.5 -115.5 -20.5s-81.833 6.83301 -115.5 20.5s-62.167 32.334 -85.5 56.001s-41 51.5 -53 83.5s-18 66.667 -18 104v421zM272 863c0 -17.333 5.83301 -32.833 17.5 -46.5s28.167 -20.5 49.5 -20.5
s37.833 6.83301 49.5 20.5s17.5 29.167 17.5 46.5h93c0 -19.333 -3.33301 -37.833 -10 -55.5s-16.5 -33.5 -29.5 -47.5s-29.667 -25.167 -50 -33.5s-43.833 -12.5 -70.5 -12.5c-27.333 0 -51 4.16699 -71 12.5s-36.5 19.5 -49.5 33.5s-22.833 29.833 -29.5 47.5
s-10 36.167 -10 55.5h93z" />
    <glyph glyph-name="ubreve" unicode="&#x16d;" horiz-adv-x="551" 
d="M56 469h118.002v-284c0 -30 8.16699 -53.167 24.5 -69.5s37.5 -24.5 63.5 -24.5c16 0 31 3.16699 45 9.5s26 15.166 36 26.499s17.833 24.5 23.5 39.5s8.5 31.167 8.5 48.5v254h118v-469h-113l-3 53c-6 -6.66699 -13.333 -13.667 -22 -21s-18.667 -14.166 -30 -20.499
s-24.333 -11.5 -39 -15.5s-31.334 -6 -50.001 -6c-58.667 0 -103.334 17.5 -134.001 52.5s-46 82.167 -46 141.5v285zM213.002 682c0 -16 4.49805 -30.833 13.498 -44.5s25.167 -20.5 48.5 -20.5s39.5 6.83301 48.5 20.5s13.5 28.5 13.5 44.5h92
c0 -18 -3.16699 -35.5 -9.5 -52.5s-16 -32.167 -29 -45.5s-29.167 -24 -48.5 -32s-41.666 -12 -66.999 -12s-47.666 4 -66.999 12s-35.5 18.667 -48.5 32s-22.667 28.5 -29 45.5s-9.5 34.5 -9.5 52.5h92z" />
    <glyph glyph-name="Uring" unicode="&#x16e;" horiz-adv-x="674" 
d="M65 667h126v-399c0 -25.333 2.5 -48.166 7.5 -68.499s13.167 -37.666 24.5 -51.999s26.333 -25.333 45 -33s41.667 -11.5 69 -11.5s50.333 3.83301 69 11.5s33.667 18.667 45 33s19.5 31.666 24.5 51.999s7.5 43.166 7.5 68.499v399h126v-421c0 -37.333 -6 -72 -18 -104
s-29.667 -59.833 -53 -83.5s-51.833 -42.334 -85.5 -56.001s-72.167 -20.5 -115.5 -20.5s-81.833 6.83301 -115.5 20.5s-62.167 32.334 -85.5 56.001s-41 51.5 -53 83.5s-18 66.667 -18 104v421zM205 803c0 18.667 3.33301 35.834 10 51.501s16 29.167 28 40.5
s26 20.166 42 26.499s33 9.5 51 9.5c18.667 0 36 -3.16699 52 -9.5s30 -15.166 42 -26.499s21.333 -24.833 28 -40.5s10 -32.5 10 -50.5c0 -18.667 -3.33301 -35.834 -10 -51.501s-16 -29.167 -28 -40.5s-26 -20.166 -42 -26.499s-33 -9.5 -51 -9.5
c-18.667 0 -36 3.16699 -52 9.5s-30 15.166 -42 26.499s-21.333 24.833 -28 40.5s-10 32.5 -10 50.5zM337 751c15.333 0 27.5 4.83301 36.5 14.5s13.5 22.5 13.5 38.5c0 15.333 -4.5 27.833 -13.5 37.5s-21.5 14.5 -37.5 14.5c-15.333 0 -27.5 -4.83301 -36.5 -14.5
s-13.5 -22.5 -13.5 -38.5c0 -15.333 4.5 -27.833 13.5 -37.5s21.5 -14.5 37.5 -14.5z" />
    <glyph glyph-name="uring" unicode="&#x16f;" horiz-adv-x="551" 
d="M56 469h118.002v-284c0 -30 8.16699 -53.167 24.5 -69.5s37.5 -24.5 63.5 -24.5c16 0 31 3.16699 45 9.5s26 15.166 36 26.499s17.833 24.5 23.5 39.5s8.5 31.167 8.5 48.5v254h118v-469h-113l-3 53c-6 -6.66699 -13.333 -13.667 -22 -21s-18.667 -14.166 -30 -20.499
s-24.333 -11.5 -39 -15.5s-31.334 -6 -50.001 -6c-58.667 0 -103.334 17.5 -134.001 52.5s-46 82.167 -46 141.5v285zM155.002 644c0 16 3.16699 31 9.5 45s14.666 26 24.999 36s22.666 17.833 36.999 23.5s29.5 8.5 45.5 8.5s31.167 -2.83301 45.5 -8.5
s26.833 -13.5 37.5 -23.5s19.167 -21.833 25.5 -35.5s9.5 -28.5 9.5 -44.5s-3.16699 -31 -9.5 -45s-14.666 -26 -24.999 -36s-22.666 -17.833 -36.999 -23.5s-29.5 -8.5 -45.5 -8.5s-31.167 2.83301 -45.5 8.5s-26.833 13.5 -37.5 23.5s-19.167 21.833 -25.5 35.5
s-9.5 28.5 -9.5 44.5zM272.002 600c12.667 0 23.167 4.16699 31.5 12.5s12.5 18.833 12.5 31.5c0 12 -4.16699 22.167 -12.5 30.5s-18.5 12.5 -30.5 12.5c-12.667 0 -23.167 -4.16699 -31.5 -12.5s-12.5 -18.5 -12.5 -30.5c0 -12.667 4.16699 -23.167 12.5 -31.5
s18.5 -12.5 30.5 -12.5z" />
    <glyph glyph-name="Uhungarumlaut" unicode="&#x170;" horiz-adv-x="674" 
d="M65 667h126v-399c0 -25.333 2.5 -48.166 7.5 -68.499s13.167 -37.666 24.5 -51.999s26.333 -25.333 45 -33s41.667 -11.5 69 -11.5s50.333 3.83301 69 11.5s33.667 18.667 45 33s19.5 31.666 24.5 51.999s7.5 43.166 7.5 68.499v399h126v-421c0 -37.333 -6 -72 -18 -104
s-29.667 -59.833 -53 -83.5s-51.833 -42.334 -85.5 -56.001s-72.167 -20.5 -115.5 -20.5s-81.833 6.83301 -115.5 20.5s-62.167 32.334 -85.5 56.001s-41 51.5 -53 83.5s-18 66.667 -18 104v421zM255 873h138l-114 -156h-97zM440 873h138l-114 -156h-97z" />
    <glyph glyph-name="uhungarumlaut" unicode="&#x171;" horiz-adv-x="551" 
d="M56 469h118.002v-284c0 -30 8.16699 -53.167 24.5 -69.5s37.5 -24.5 63.5 -24.5c16 0 31 3.16699 45 9.5s26 15.166 36 26.499s17.833 24.5 23.5 39.5s8.5 31.167 8.5 48.5v254h118v-469h-113l-3 53c-6 -6.66699 -13.333 -13.667 -22 -21s-18.667 -14.166 -30 -20.499
s-24.333 -11.5 -39 -15.5s-31.334 -6 -50.001 -6c-58.667 0 -103.334 17.5 -134.001 52.5s-46 82.167 -46 141.5v285zM354.002 682h119l-79 -142h-88zM192.002 682h119l-79 -142h-88z" />
    <glyph glyph-name="Uogonek" unicode="&#x172;" horiz-adv-x="674" 
d="M65 667l126 -0.00390625v-399c0 -25.333 2.5 -48.166 7.5 -68.499s13.167 -37.666 24.5 -51.999s26.333 -25.333 45 -33s41.667 -11.5 69 -11.5c54.667 0 93.167 14.833 115.5 44.5s33.5 69.834 33.5 120.501v399h123v-421c0 -34 -4 -63.5 -12 -88.5s-18 -46.333 -30 -64
s-25.333 -32.5 -40 -44.5s-28.667 -22 -42 -30c-28.667 -18 -48.334 -34.167 -59.001 -48.5s-16 -29.166 -16 -44.499c0 -19.333 8.66699 -29 26 -29c9.33301 0 18 1.5 26 4.5s16 7.16699 24 12.5l29 -75c-17.333 -11.333 -36.166 -20.333 -56.499 -27
s-39.166 -10 -56.499 -10c-34.667 0 -60.167 7.33301 -76.5 22s-24.5 34 -24.5 58c0 17.333 4.5 34.5 13.5 51.5s20.167 33.5 33.5 49.5h-17c-42.667 0 -80.5 7 -113.5 21s-60.833 33 -83.5 57s-39.834 51.833 -51.501 83.5s-17.5 65.5 -17.5 101.5v421z" />
    <glyph glyph-name="uogonek" unicode="&#x173;" horiz-adv-x="551" 
d="M56 469h118.001v-284c0 -30 8.16699 -53.167 24.5 -69.5s37.5 -24.5 63.5 -24.5c16 0 31 3.16699 45 9.5s26 15.166 36 26.499s17.833 24.5 23.5 39.5s8.5 31.167 8.5 48.5v254h118v-469c-12.667 -12 -24.5 -25.5 -35.5 -40.5s-16.5 -28.167 -16.5 -39.5
c0 -14 8.33301 -21 25 -21c10.667 0 20.334 1.83301 29.001 5.5s17.334 8.16699 26.001 13.5l28 -74c-16.667 -11.333 -34.834 -20.166 -54.501 -26.499s-38.167 -9.5 -55.5 -9.5c-34 0 -58.833 7.16699 -74.5 21.5s-23.5 33.166 -23.5 56.499c0 19.333 6 38.833 18 58.5
s26.333 38.167 43 55.5h-22l-3 53c-6 -6.66699 -13.333 -13.667 -22 -21s-18.667 -14.166 -30 -20.499s-24.333 -11.5 -39 -15.5s-31.334 -6 -50.001 -6c-58.667 0 -103.334 17.5 -134.001 52.5s-46 82.167 -46 141.5v285z" />
    <glyph glyph-name="Wcircumflex" unicode="&#x174;" horiz-adv-x="880" 
d="M10 667h138l109 -499l129 480h114l130 -480l108 499h132l-175 -667h-132l-124 441l-126 -441h-130zM390 873h111l110 -156h-104l-62 82l-61 -82h-104z" />
    <glyph glyph-name="wcircumflex" unicode="&#x175;" horiz-adv-x="749" 
d="M9 469h130l90 -326l99 326h99l100 -326l89 326h124l-159 -469h-114l-96 283l-93 -283h-110zM326 682h111l104 -142h-104l-56 76l-55 -76h-104z" />
    <glyph glyph-name="Ycircumflex" unicode="&#x176;" horiz-adv-x="600" 
d="M236 293l-231 374h138l160 -266l160 266h132l-231 -374v-293h-128v293zM248 873h111l110 -156h-104l-62 82l-61 -82h-104z" />
    <glyph glyph-name="ycircumflex" unicode="&#x177;" horiz-adv-x="527" 
d="M77 -93c6.66699 -5.33301 14.002 -10.499 22.002 -15.499s18 -7.5 30 -7.5c16 0 29.167 6.66699 39.5 20s21.166 34 32.499 62l15 38l-211 465h136l134 -321l118 321h129l-196 -469l-28 -72c-9.33301 -24.667 -20.833 -47.5 -34.5 -68.5s-30.5 -38.167 -50.5 -51.5
s-45.333 -20 -76 -20c-26.667 0 -48.834 3.16699 -66.501 9.5s-33.167 15.166 -46.5 26.499zM214.002 682.001h111l104 -142h-104l-56 76l-55 -76h-104z" />
    <glyph glyph-name="Ydieresis" unicode="&#x178;" horiz-adv-x="600" 
d="M236 293l-231 374h138l160 -266l160 266h132l-231 -374v-293h-128v293zM347 854h123v-117h-123v117zM134 854h123v-117h-123v117z" />
    <glyph glyph-name="Zacute" unicode="&#x179;" horiz-adv-x="658" 
d="M53 110l393 446h-375v111h526v-111l-385 -446h393v-110h-552v110zM334 873h146l-114 -156h-105z" />
    <glyph glyph-name="zacute" unicode="&#x17a;" horiz-adv-x="472" 
d="M46 90l239 280h-232v99h379v-92l-247 -281h247v-96h-386v90zM256 682h126l-79 -142h-95z" />
    <glyph glyph-name="Zdotaccent" unicode="&#x17b;" horiz-adv-x="658" 
d="M53 110l393 446h-375v111h526v-111l-385 -446h393v-110h-552v110zM276 857h129v-123h-129v123z" />
    <glyph glyph-name="zdotaccent" unicode="&#x17c;" horiz-adv-x="472" 
d="M46 90l239 280h-232v99h379v-92l-247 -281h247v-96h-386v90zM191 670h123v-117h-123v117z" />
    <glyph glyph-name="Zcaron" unicode="&#x17d;" horiz-adv-x="658" 
d="M53 110l393 446h-375v111h526v-111l-385 -446h393v-110h-552v110zM174 873h104l62 -82l61 82h104l-110 -156h-111z" />
    <glyph glyph-name="zcaron" unicode="&#x17e;" horiz-adv-x="472" 
d="M46 90l239 280h-232v99h379v-92l-247 -281h247v-96h-386v90zM94 682h104l56 -76l55 76h104l-104 -142h-111z" />
    <glyph glyph-name="longs" unicode="&#x17f;" horiz-adv-x="233" 
d="M58 474c0 32 2.49902 60.498 7.49902 85.498s16.167 47.167 33.5 66.5c14 16 32.167 29.833 54.5 41.5s48.5 17.5 78.5 17.5c10.667 0 22 -0.666992 34 -2s24.333 -3.66602 37 -6.99902s25.334 -8.16602 38.001 -14.499s25 -14.833 37 -25.5l-55 -78
c-18 13.333 -38.5 21.5 -61.5 24.5s-43.167 -2.5 -60.5 -16.5c-12.667 -10 -20 -22.667 -22 -38s-3.33301 -35 -4 -59l1 -469h-118v474z" />
    <glyph glyph-name="florin" unicode="&#x192;" horiz-adv-x="545" 
d="M-10 -61c10.667 -10 21.9971 -17.166 33.9971 -21.499s23.333 -6.5 34 -6.5c22.667 0 40.334 5.5 53.001 16.5s22.334 34.5 29.001 70.5l54 296h-87v98h105l13 73c4.66699 26.667 11.834 51.167 21.501 73.5s22.167 41.666 37.5 57.999s34.166 29 56.499 38
s48.833 13.5 79.5 13.5c28.667 0 54.5 -4 77.5 -12s43.167 -21.667 60.5 -41l-62 -85c-11.333 10 -23.166 17.167 -35.499 21.5s-23.833 6.5 -34.5 6.5c-22.667 0 -40.334 -5.66699 -53.001 -17s-22.334 -35 -29.001 -71l-11 -58h100v-98h-118l-56 -311
c-5.33301 -26.667 -12.666 -51.167 -21.999 -73.5s-22 -41.666 -38 -57.999s-35.333 -29 -58 -38s-50 -13.5 -82 -13.5c-7.33301 0 -16.333 0.666992 -27 2s-22 3.83301 -34 7.5s-24.167 8.66699 -36.5 15s-24.166 14.166 -35.499 23.499z" />
    <glyph glyph-name="Scommaaccent" unicode="&#x218;" horiz-adv-x="593" 
d="M119 188c8 -9.33301 17.502 -19.168 28.502 -29.501s23.333 -20 37 -29s29 -16.5 46 -22.5s36.167 -9 57.5 -9c39.333 0 68.5 9 87.5 27s28.5 39.667 28.5 65c0 14 -2.66699 26.5 -8 37.5s-14.333 20.667 -27 29s-29.167 15.833 -49.5 22.5s-45.5 13 -75.5 19
c-30.667 6 -57.167 15.333 -79.5 28s-40.833 27.667 -55.5 45s-25.667 36.5 -33 57.5s-11 42.5 -11 64.5c0 25.333 4.66699 49.5 14 72.5s23.666 43.333 42.999 61s43.5 31.834 72.5 42.501s63.167 16 102.5 16c35.333 0 65.666 -4 90.999 -12s46.5 -17.333 63.5 -28
s30.167 -21.167 39.5 -31.5l20 -22.5l-83 -78c-3.33301 2.66699 -8.66602 7.5 -15.999 14.5s-16.5 13.833 -27.5 20.5s-24.167 12.667 -39.5 18s-32.666 8 -51.999 8c-17.333 0 -32.333 -2.33301 -45 -7s-23.167 -10.667 -31.5 -18s-14.5 -15.5 -18.5 -24.5
s-6 -17.5 -6 -25.5c0 -12 2.16699 -22.667 6.5 -32s11.666 -18 21.999 -26s24.5 -15.167 42.5 -21.5s40.667 -12.166 68 -17.499c26 -5.33301 51 -13.333 75 -24s45.167 -24.5 63.5 -41.5s33 -37.667 44 -62s16.5 -53.5 16.5 -87.5c0 -29.333 -6 -56.333 -18 -81
s-28.667 -46.334 -50 -65.001s-46.666 -33.167 -75.999 -43.5s-61.333 -15.5 -96 -15.5c-33.333 0 -63.5 4 -90.5 12s-51.333 18.167 -73 30.5s-40.334 25.833 -56.001 40.5s-28.834 28.667 -39.501 42zM231.002 -51.002h139l-88 -158h-104z" />
    <glyph glyph-name="scommaaccent" unicode="&#x219;" horiz-adv-x="478" 
d="M106 134c14.667 -14.667 33.168 -26.833 55.501 -36.5s47.833 -14.5 76.5 -14.5c25.333 0 45.666 3.33301 60.999 10s23 17.667 23 33c0 6.66699 -1.33301 12.834 -4 18.501s-8.33398 11.167 -17.001 16.5s-20.667 10.666 -36 15.999s-36 11 -62 17
c-16 4 -32.667 9.33301 -50 16s-33.5 15.834 -48.5 27.501s-27.333 25.667 -37 42s-14.5 35.833 -14.5 58.5c0 23.333 5.66699 44.166 17 62.499s26.166 33.666 44.499 45.999s39 21.833 62 28.5s46.167 10 69.5 10c41.333 0 76.5 -4.33301 105.5 -13
s55.167 -21.667 78.5 -39l-61 -83c-12.667 9.33301 -29.334 17.833 -50.001 25.5s-45 11.5 -73 11.5s-47.5 -4.16699 -58.5 -12.5s-16.5 -18.5 -16.5 -30.5c0 -14.667 9.16699 -26.167 27.5 -34.5s46.833 -17.166 85.5 -26.499c24 -5.33301 45.5 -12 64.5 -20
s35.333 -18 49 -30s24.167 -26.167 31.5 -42.5s11 -35.833 11 -58.5s-5.33301 -43.167 -16 -61.5s-25.167 -33.833 -43.5 -46.5s-39.666 -22.5 -63.999 -29.5s-50.166 -10.5 -77.499 -10.5c-44 0 -83.667 6.16699 -119 18.5s-63.666 30.5 -84.999 54.5zM189.001 -50.999h126
l-79 -142h-95z" />
    <glyph glyph-name="uni021A" unicode="&#x21a;" horiz-adv-x="624" 
d="M249 556h-226v111h578v-111h-226v-556h-126v556zM243 -51h139l-88 -158h-104z" />
    <glyph glyph-name="uni021B" unicode="&#x21b;" horiz-adv-x="402" 
d="M98 373l-80.001 0.000976562v96h80v152h118v-152h126v-96h-126v-205c0 -26.667 4.5 -47.167 13.5 -61.5s23.5 -21.5 43.5 -21.5c18.667 0 33.5 2.66699 44.5 8s21.5 11.666 31.5 18.999l50 -73c-23.333 -19.333 -46.333 -33.166 -69 -41.499s-48 -12.5 -76 -12.5
c-28.667 0 -53 4.16699 -73 12.5s-36.167 20.166 -48.5 35.499s-21.166 33.833 -26.499 55.5s-8 45.5 -8 71.5v213zM185.999 -50.999h126l-79 -142h-95z" />
    <glyph glyph-name="dotlessj" unicode="&#x237;" horiz-adv-x="244" 
d="M-43 -83c6 -3.33301 13.3311 -6.83594 21.998 -10.5029s19.334 -5.5 32.001 -5.5c15.333 0 27.833 6.33301 37.5 19s14.5 31.334 14.5 56.001v493h118v-470c0 -23.333 -1.83301 -46.666 -5.5 -69.999s-11 -44.666 -22 -63.999s-26.5 -35 -46.5 -47s-46.667 -18 -80 -18
c-28 0 -51.167 4.16699 -69.5 12.5s-33.166 16.5 -44.499 24.5z" />
    <glyph glyph-name="apostrophe" unicode="&#x2bc;" horiz-adv-x="116" 
d="M18 682h119l-39 -142h-88z" />
    <glyph glyph-name="circumflex" unicode="&#x2c6;" horiz-adv-x="449" 
d="M169 682h111l104 -142h-104l-56 76l-55 -76h-104z" />
    <glyph glyph-name="caron" unicode="&#x2c7;" horiz-adv-x="449" 
d="M65 682h104l56 -76l55 76h104l-104 -142h-111z" />
    <glyph glyph-name="uni02C9" unicode="&#x2c9;" horiz-adv-x="347" 
d="M43 649h261v-92h-261v92z" />
    <glyph glyph-name="breve" unicode="&#x2d8;" horiz-adv-x="460" 
d="M183 682c0 -16 4.49805 -30.833 13.498 -44.5s25.167 -20.5 48.5 -20.5s39.5 6.83301 48.5 20.5s13.5 28.5 13.5 44.5h92c0 -18 -3.16699 -35.5 -9.5 -52.5s-16 -32.167 -29 -45.5s-29.167 -24 -48.5 -32s-41.666 -12 -66.999 -12s-47.666 4 -66.999 12
s-35.5 18.667 -48.5 32s-22.667 28.5 -29 45.5s-9.5 34.5 -9.5 52.5h92z" />
    <glyph glyph-name="dotaccent" unicode="&#x2d9;" horiz-adv-x="259" 
d="M68 670h123v-117h-123v117z" />
    <glyph glyph-name="ring" unicode="&#x2da;" horiz-adv-x="315" 
d="M40 644c0 16 3.16699 31 9.5 45s14.666 26 24.999 36s22.666 17.833 36.999 23.5s29.5 8.5 45.5 8.5s31.167 -2.83301 45.5 -8.5s26.833 -13.5 37.5 -23.5s19.167 -21.833 25.5 -35.5s9.5 -28.5 9.5 -44.5s-3.16699 -31 -9.5 -45s-14.666 -26 -24.999 -36
s-22.666 -17.833 -36.999 -23.5s-29.5 -8.5 -45.5 -8.5s-31.167 2.83301 -45.5 8.5s-26.833 13.5 -37.5 23.5s-19.167 21.833 -25.5 35.5s-9.5 28.5 -9.5 44.5zM157 600c12.667 0 23.167 4.16699 31.5 12.5s12.5 18.833 12.5 31.5c0 12 -4.16699 22.167 -12.5 30.5
s-18.5 12.5 -30.5 12.5c-12.667 0 -23.167 -4.16699 -31.5 -12.5s-12.5 -18.5 -12.5 -30.5c0 -12.667 4.16699 -23.167 12.5 -31.5s18.5 -12.5 30.5 -12.5z" />
    <glyph glyph-name="ogonek" unicode="&#x2db;" horiz-adv-x="298" 
d="M214 0c-12.667 -12 -24.501 -25.5 -35.501 -40.5s-16.5 -28.167 -16.5 -39.5c0 -14 8.33301 -21 25 -21c10.667 0 20.334 1.83301 29.001 5.5s17.334 8.16699 26.001 13.5l28 -74c-16.667 -11.333 -34.834 -20.166 -54.501 -26.499s-38.167 -9.5 -55.5 -9.5
c-34 0 -58.833 7.16699 -74.5 21.5s-23.5 33.166 -23.5 56.499c0 19.333 6 38.833 18 58.5s26.333 38.167 43 55.5h91z" />
    <glyph glyph-name="tilde" unicode="&#x2dc;" horiz-adv-x="462" 
d="M38 615c5.33301 6 12.167 12.332 20.5 18.999s17.666 12.834 27.999 18.501s21.666 10.5 33.999 14.5s25.166 6 38.499 6c14 0 26 -2.16699 36 -6.5s19.667 -9 29 -14s19 -9.66699 29 -14s21.667 -6.5 35 -6.5c22.667 0 40.667 4.33301 54 13
s24.666 16.334 33.999 23.001l45 -70c-5.33301 -6 -12.166 -12.5 -20.499 -19.5s-17.5 -13.5 -27.5 -19.5s-21.167 -11 -33.5 -15s-25.166 -6 -38.499 -6c-14 0 -26.167 2.16699 -36.5 6.5s-20.166 9.33301 -29.499 15s-19 10.667 -29 15s-21.667 6.5 -35 6.5
c-22.667 0 -40.667 -4.33301 -54 -13s-24.666 -16.334 -33.999 -23.001z" />
    <glyph glyph-name="hungarumlaut" unicode="&#x2dd;" horiz-adv-x="445" 
d="M268 682h119l-79 -142h-88zM106 682h119l-79 -142h-88z" />
    <glyph glyph-name="Omega" unicode="&#x3a9;" horiz-adv-x="822" 
d="M53 113h126.001c-37.333 30.667 -65.833 65 -85.5 103s-29.5 83 -29.5 135c0 48.667 9 93.334 27 134.001s42.5 75.667 73.5 105s67.667 52.333 110 69s87.833 25 136.5 25s94.167 -8.33301 136.5 -25s79 -39.667 110 -69s55.5 -64.333 73.5 -105s27 -85.334 27 -134.001
c0 -52 -9.83301 -97 -29.5 -135s-48.167 -72.333 -85.5 -103h126v-113h-298v113c24 6.66699 45.667 18 65 34s35.833 35 49.5 57s24 45.833 31 71.5s10.5 51.834 10.5 78.501c0 32 -5 61.167 -15 87.5s-24.333 49 -43 68s-41.334 33.833 -68.001 44.5s-56.334 16 -89.001 16
h-2c-33.333 0 -63.166 -5.33301 -89.499 -16s-48.833 -25.5 -67.5 -44.5s-33 -41.667 -43 -68s-15 -55.5 -15 -87.5c0 -26.667 3.5 -52.834 10.5 -78.501s17.333 -49.5 31 -71.5s30.167 -41 49.5 -57s41 -27.333 65 -34v-113h-298v113z" />
    <glyph glyph-name="pi" unicode="&#x3c0;" horiz-adv-x="694" 
d="M153 373h-100v96h583v-96h-99v-215c0 -23.333 2.5 -39.5 7.5 -48.5s16.167 -13.5 33.5 -13.5s31 2 41 6l22 -91c-12 -5.33301 -27.333 -9.33301 -46 -12s-35.667 -4 -51 -4c-44 0 -75.667 13.5 -95 40.5s-29 63.833 -29 110.5l-1 227h-148v-373h-118v373z" />
    <glyph glyph-name="Wgrave" unicode="&#x1e80;" horiz-adv-x="880" 
d="M10 667h138l109 -499l129 480h114l130 -480l108 499h132l-175 -667h-132l-124 441l-126 -441h-130zM269 873h146l73 -156h-105z" />
    <glyph glyph-name="wgrave" unicode="&#x1e81;" horiz-adv-x="749" 
d="M9 469h130l90 -326l99 326h99l100 -326l89 326h124l-159 -469h-114l-96 283l-93 -283h-110zM253 682h126l48 -142h-95z" />
    <glyph glyph-name="Wacute" unicode="&#x1e82;" horiz-adv-x="880" 
d="M10 667h138l109 -499l129 480h114l130 -480l108 499h132l-175 -667h-132l-124 441l-126 -441h-130zM465 873h146l-114 -156h-105z" />
    <glyph glyph-name="wacute" unicode="&#x1e83;" horiz-adv-x="749" 
d="M9 469h130l90 -326l99 326h99l100 -326l89 326h124l-159 -469h-114l-96 283l-93 -283h-110zM376 682h126l-79 -142h-95z" />
    <glyph glyph-name="Wdieresis" unicode="&#x1e84;" horiz-adv-x="880" 
d="M10 667h138l109 -499l129 480h114l130 -480l108 499h132l-175 -667h-132l-124 441l-126 -441h-130zM487 854h123v-117h-123v117zM274 854h123v-117h-123v117z" />
    <glyph glyph-name="wdieresis" unicode="&#x1e85;" horiz-adv-x="749" 
d="M9 469h130l90 -326l99 326h99l100 -326l89 326h124l-159 -469h-114l-96 283l-93 -283h-110zM409 666h115v-109h-115v109zM224 666h115v-109h-115v109z" />
    <glyph glyph-name="Ygrave" unicode="&#x1ef2;" horiz-adv-x="600" 
d="M236 293l-231 374h138l160 -266l160 266h132l-231 -374v-293h-128v293zM149 873h146l73 -156h-105z" />
    <glyph glyph-name="ygrave" unicode="&#x1ef3;" horiz-adv-x="527" 
d="M77 -93c6.66699 -5.33301 14.002 -10.499 22.002 -15.499s18 -7.5 30 -7.5c16 0 29.167 6.66699 39.5 20s21.166 34 32.499 62l15 38l-211 465h136l134 -321l118 321h129l-196 -469l-28 -72c-9.33301 -24.667 -20.833 -47.5 -34.5 -68.5s-30.5 -38.167 -50.5 -51.5
s-45.333 -20 -76 -20c-26.667 0 -48.834 3.16699 -66.501 9.5s-33.167 15.166 -46.5 26.499zM151.002 682.001h126l48 -142h-95z" />
    <glyph glyph-name="endash" unicode="&#x2013;" horiz-adv-x="500" 
d="M0 336h500v-112h-500v112z" />
    <glyph glyph-name="emdash" unicode="&#x2014;" horiz-adv-x="1000" 
d="M0 336h1000v-112h-1000v112z" />
    <glyph glyph-name="quoteleft" unicode="&#x2018;" horiz-adv-x="268" 
d="M116 666h89l-22 -211h-135z" />
    <glyph glyph-name="quoteright" unicode="&#x2019;" horiz-adv-x="268" 
d="M85 666h135l-68 -211h-89z" />
    <glyph glyph-name="quotesinglbase" unicode="&#x201a;" horiz-adv-x="283" 
d="M90 139h135l-68 -211h-89z" />
    <glyph glyph-name="quotedblleft" unicode="&#x201c;" horiz-adv-x="458" 
d="M116 666h89l-22 -211h-135zM306 666h89l-22 -211h-135z" />
    <glyph glyph-name="quotedblright" unicode="&#x201d;" horiz-adv-x="458" 
d="M85 666h135l-68 -211h-89zM275 666h135l-68 -211h-89z" />
    <glyph glyph-name="quotedblbase" unicode="&#x201e;" horiz-adv-x="475" 
d="M90 139h135l-68 -211h-89zM283 139h135l-68 -211h-89z" />
    <glyph glyph-name="dagger" unicode="&#x2020;" horiz-adv-x="529" 
d="M207 383h-149v96h149v188h115v-188h149v-96h-149v-504h-115v504z" />
    <glyph glyph-name="daggerdbl" unicode="&#x2021;" horiz-adv-x="539" 
d="M212 67h-149v96h149v220h-149v96h149v188h115v-188h149v-96h-149v-220h149v-96h-149v-188h-115v188z" />
    <glyph glyph-name="bullet" unicode="&#x2022;" horiz-adv-x="438" 
d="M83 343c0 18.667 3.5 36.334 10.5 53.001s16.667 31.167 29 43.5s26.833 22 43.5 29s34.334 10.5 53.001 10.5s36.334 -3.5 53.001 -10.5s31.167 -16.667 43.5 -29s22 -26.833 29 -43.5s10.5 -34.334 10.5 -53.001s-3.5 -36.334 -10.5 -53.001s-16.667 -31.167 -29 -43.5
s-26.833 -22 -43.5 -29s-34.334 -10.5 -53.001 -10.5s-36.334 3.5 -53.001 10.5s-31.167 16.667 -43.5 29s-22 26.833 -29 43.5s-10.5 34.334 -10.5 53.001z" />
    <glyph glyph-name="ellipsis" unicode="&#x2026;" horiz-adv-x="793" 
d="M325 138h143v-138h-143v138zM585 138h143v-138h-143v138zM66 138h143v-138h-143v138z" />
    <glyph glyph-name="perthousand" unicode="&#x2030;" horiz-adv-x="1306" 
d="M609 630h107l-406 -630h-107zM210 285c-46 0 -84 15.167 -114 45.5s-45 75.5 -45 135.5s15 105.167 45 135.5s68 45.5 114 45.5s84 -15.167 114 -45.5s45 -75.5 45 -135.5s-15 -105.167 -45 -135.5s-68 -45.5 -114 -45.5zM210 364c7.33301 0 14.666 1.66699 21.999 5
s13.833 9 19.5 17s10.334 18.5 14.001 31.5s5.5 29.167 5.5 48.5s-1.83301 35.5 -5.5 48.5s-8.33398 23.5 -14.001 31.5s-12.167 13.667 -19.5 17s-14.666 5 -21.999 5s-14.666 -1.66699 -21.999 -5s-13.833 -9 -19.5 -17s-10.334 -18.5 -14.001 -31.5
s-5.5 -29.167 -5.5 -48.5s1.83301 -35.5 5.5 -48.5s8.33398 -23.5 14.001 -31.5s12.167 -13.667 19.5 -17s14.666 -5 21.999 -5zM715 -9c-46 0 -84 15.167 -114 45.5s-45 75.5 -45 135.5s15 105.167 45 135.5s68 45.5 114 45.5s84 -15.167 114 -45.5s45 -75.5 45 -135.5
s-15 -105.167 -45 -135.5s-68 -45.5 -114 -45.5zM715 70c7.33301 0 14.666 1.66699 21.999 5s13.833 9 19.5 17s10.334 18.5 14.001 31.5s5.5 29.167 5.5 48.5s-1.83301 35.5 -5.5 48.5s-8.33398 23.5 -14.001 31.5s-12.167 13.667 -19.5 17s-14.666 5 -21.999 5
s-14.666 -1.66699 -21.999 -5s-13.833 -9 -19.5 -17s-10.334 -18.5 -14.001 -31.5s-5.5 -29.167 -5.5 -48.5s1.83301 -35.5 5.5 -48.5s8.33398 -23.5 14.001 -31.5s12.167 -13.667 19.5 -17s14.666 -5 21.999 -5zM1096 -9c-46 0 -84 15.167 -114 45.5s-45 75.5 -45 135.5
s15 105.167 45 135.5s68 45.5 114 45.5s84 -15.167 114 -45.5s45 -75.5 45 -135.5s-15 -105.167 -45 -135.5s-68 -45.5 -114 -45.5zM1096 70c7.33301 0 14.666 1.66699 21.999 5s13.833 9 19.5 17s10.334 18.5 14.001 31.5s5.5 29.167 5.5 48.5s-1.83301 35.5 -5.5 48.5
s-8.33398 23.5 -14.001 31.5s-12.167 13.667 -19.5 17s-14.666 5 -21.999 5s-14.666 -1.66699 -21.999 -5s-13.833 -9 -19.5 -17s-10.334 -18.5 -14.001 -31.5s-5.5 -29.167 -5.5 -48.5s1.83301 -35.5 5.5 -48.5s8.33398 -23.5 14.001 -31.5s12.167 -13.667 19.5 -17
s14.666 -5 21.999 -5z" />
    <glyph glyph-name="guilsinglleft" unicode="&#x2039;" horiz-adv-x="340" 
d="M58 241l104 194h115l-99 -194l99 -194h-115z" />
    <glyph glyph-name="guilsinglright" unicode="&#x203a;" horiz-adv-x="340" 
d="M162 241l-99 194h115l104 -194l-104 -194h-115z" />
    <glyph glyph-name="fraction" unicode="&#x2044;" horiz-adv-x="195" 
d="M249 630h107l-406 -630h-107z" />
    <glyph glyph-name="zerosuperior" unicode="&#x2070;" 
d="M180 285c-46 0 -84 15.167 -114 45.5s-45 75.5 -45 135.5s15 105.167 45 135.5s68 45.5 114 45.5s84 -15.167 114 -45.5s45 -75.5 45 -135.5s-15 -105.167 -45 -135.5s-68 -45.5 -114 -45.5zM180 364c7.33301 0 14.666 1.66699 21.999 5s13.833 9 19.5 17
s10.334 18.5 14.001 31.5s5.5 29.167 5.5 48.5s-1.83301 35.5 -5.5 48.5s-8.33398 23.5 -14.001 31.5s-12.167 13.667 -19.5 17s-14.666 5 -21.999 5s-14.666 -1.66699 -21.999 -5s-13.833 -9 -19.5 -17s-10.334 -18.5 -14.001 -31.5s-5.5 -29.167 -5.5 -48.5
s1.83301 -35.5 5.5 -48.5s8.33398 -23.5 14.001 -31.5s12.167 -13.667 19.5 -17s14.666 -5 21.999 -5z" />
    <glyph glyph-name="foursuperior" unicode="&#x2074;" 
d="M33 426l172 211h96v-211h41v-71h-41v-60h-87v60h-181v71zM214 426v122l-103 -122h103z" />
    <glyph glyph-name="fivesuperior" unicode="&#x2075;" 
d="M69 390c11.333 -9.33301 24.665 -16.666 39.998 -21.999s31.333 -8 48 -8c6 0 12.5 0.5 19.5 1.5s13.667 3 20 6s11.5 7.33301 15.5 13s6 13.167 6 22.5c0 14 -6.33301 24.5 -19 31.5s-27 10.5 -43 10.5c-8.66699 0 -18 -0.833008 -28 -2.5s-19.667 -5.16699 -29 -10.5
l-44 35l38 170h199v-79h-131l-11 -52c12 3.33301 24.333 5 37 5c16 0 31.333 -2.16699 46 -6.5s27.834 -10.833 39.501 -19.5s20.834 -19.834 27.501 -33.501s10 -29.5 10 -47.5c0 -16.667 -3.5 -32.5 -10.5 -47.5s-17 -28 -30 -39s-28.667 -19.667 -47 -26
s-38.833 -9.5 -61.5 -9.5c-25.333 0 -50 3.66699 -74 11s-44.333 17 -61 29z" />
    <glyph glyph-name="sixsuperior" unicode="&#x2076;" 
d="M271 554c-7.33301 4 -16.334 7.50195 -27.001 10.502s-21.667 4.5 -33 4.5c-22.667 0 -42 -7 -58 -21s-24.667 -31.667 -26 -53c11.333 6 23.833 10.5 37.5 13.5s26.5 4.5 38.5 4.5c15.333 0 30.333 -2 45 -6s27.667 -10.333 39 -19s20.333 -20 27 -34s10 -31 10 -51
c0 -16 -3.5 -31.167 -10.5 -45.5s-16.667 -26.833 -29 -37.5s-27.166 -19.167 -44.499 -25.5s-36 -9.5 -56 -9.5c-18.667 0 -37 3.16699 -55 9.5s-34 16.166 -48 29.499s-25.333 30.666 -34 51.999s-13 46.666 -13 75.999c0 28.667 4.16699 54.834 12.5 78.501
s20 44.167 35 61.5s33 30.833 54 40.5s44.5 14.5 70.5 14.5c23.333 0 43.333 -2.83301 60 -8.5s28.667 -10.5 36 -14.5zM126.999 429.002c0 -24.667 5.16699 -43 15.5 -55s23.5 -18 39.5 -18c17.333 0 31.333 4.33301 42 13s16 20 16 34c0 12 -4.33301 22.333 -13 31
s-22 13 -40 13c-11.333 0 -22.833 -2 -34.5 -6s-20.167 -8 -25.5 -12z" />
    <glyph glyph-name="sevensuperior" unicode="&#x2077;" 
d="M83 295c8 24.667 18.167 50 30.5 76s25 51 38 75s25.5 45.667 37.5 65s21.333 35 28 47h-172v79h269v-80c-7.33301 -11.333 -17 -27.5 -29 -48.5l-37.5 -68c-13 -24.333 -25.167 -49.333 -36.5 -75s-20 -49.167 -26 -70.5h-102z" />
    <glyph glyph-name="eightsuperior" unicode="&#x2078;" 
d="M99 476c-34 17.333 -50.9971 41.666 -50.9971 72.999c0 16 3.66699 30.167 11 42.5s17 22.5 29 30.5s25.833 14.167 41.5 18.5s32.167 6.5 49.5 6.5c16.667 0 33 -2 49 -6s30.167 -10.167 42.5 -18.5s22.166 -18.666 29.499 -30.999s11 -26.5 11 -42.5
c0 -15.333 -4.5 -29.333 -13.5 -42s-21.5 -23 -37.5 -31c19.333 -7.33301 35.166 -17.833 47.499 -31.5s18.5 -31.167 18.5 -52.5c0 -18 -4 -33.667 -12 -47s-18.667 -24.5 -32 -33.5s-28.833 -15.667 -46.5 -20s-36.5 -6.5 -56.5 -6.5s-38.833 2.16699 -56.5 6.5
s-33.167 11 -46.5 20s-23.833 20.167 -31.5 33.5s-11.5 29 -11.5 47c0 21.333 6.16699 38.833 18.5 52.5s28.166 24.167 47.499 31.5zM181.003 446c-12.667 -3.33301 -24.501 -9.33301 -35.501 -18s-16.5 -20 -16.5 -34c0 -13.333 5.16699 -23 15.5 -29s21.833 -9 34.5 -9
c12 0 23.333 3 34 9s16 15.667 16 29c0 14 -5.16699 25.333 -15.5 34s-21.166 14.667 -32.499 18zM177.002 505c11.333 3.33301 22 8 32 14s15 15.333 15 28c0 12 -4.5 21 -13.5 27s-19.5 9 -31.5 9s-22.5 -3 -31.5 -9s-13.5 -15 -13.5 -27c0 -12.667 4.33301 -22 13 -28
s18.667 -10.667 30 -14z" />
    <glyph glyph-name="ninesuperior" unicode="&#x2079;" 
d="M85 378c7.33301 -4 16.499 -7.49902 27.499 -10.499s24.167 -4.5 39.5 -4.5c26.667 0 46.334 7 59.001 21s19.667 31.667 21 53c-11.333 -6 -23.833 -10.5 -37.5 -13.5s-26.5 -4.5 -38.5 -4.5c-15.333 0 -30.333 2 -45 6s-27.667 10.333 -39 19s-20.333 20 -27 34
s-10 31 -10 51c0 16 3.5 31.167 10.5 45.5s16.667 26.833 29 37.5s27.166 19.167 44.499 25.5s36 9.5 56 9.5c18.667 0 37 -3.16699 55 -9.5s34 -16.333 48 -30s25.333 -31 34 -52s13 -46.167 13 -75.5c0 -28.667 -3.66699 -54.834 -11 -78.501s-18.333 -44.167 -33 -61.5
s-33 -30.833 -55 -40.5s-48 -14.5 -78 -14.5c-22.667 0 -42.167 2.83301 -58.5 8.5s-28.166 10.5 -35.499 14.5zM231.999 503.001c0 24.667 -5.16699 43 -15.5 55s-23.5 18 -39.5 18c-17.333 0 -31.333 -4.33301 -42 -13s-16 -20 -16 -34c0 -12 4.33301 -22.333 13 -31
s22 -13 40 -13c11.333 0 22.833 2 34.5 6s20.167 8 25.5 12z" />
    <glyph glyph-name="zeroinferior" unicode="&#x2080;" 
d="M180 -9c-46 0 -84 15.167 -114 45.5s-45 75.5 -45 135.5s15 105.167 45 135.5s68 45.5 114 45.5s84 -15.167 114 -45.5s45 -75.5 45 -135.5s-15 -105.167 -45 -135.5s-68 -45.5 -114 -45.5zM180 70c7.33301 0 14.666 1.66699 21.999 5s13.833 9 19.5 17
s10.334 18.5 14.001 31.5s5.5 29.167 5.5 48.5s-1.83301 35.5 -5.5 48.5s-8.33398 23.5 -14.001 31.5s-12.167 13.667 -19.5 17s-14.666 5 -21.999 5s-14.666 -1.66699 -21.999 -5s-13.833 -9 -19.5 -17s-10.334 -18.5 -14.001 -31.5s-5.5 -29.167 -5.5 -48.5
s1.83301 -35.5 5.5 -48.5s8.33398 -23.5 14.001 -31.5s12.167 -13.667 19.5 -17s14.666 -5 21.999 -5z" />
    <glyph glyph-name="oneinferior" unicode="&#x2081;" 
d="M173 239l-78 -39l-36 72l126 71h86v-342h-98v238z" />
    </font>
</defs>
</svg>
